RecursiveMonoVar-StrictBold.ufo
<glyph name="exclam" format="1">
  <advance width="600"/>
  <unicode hex="0021"/>
  <outline>
    <contour>
      <point x="349" y="281" type="line"/>
      <point x="359" y="355"/>
      <point x="370" y="428"/>
      <point x="381" y="502" type="curve"/>
      <point x="381" y="689" type="line" smooth="yes"/>
      <point x="381" y="696"/>
      <point x="376" y="700"/>
      <point x="370" y="700" type="curve" smooth="yes"/>
      <point x="306" y="700"/>
      <point x="257" y="700"/>
      <point x="219" y="700" type="curve"/>
      <point x="219" y="662"/>
      <point x="219" y="627"/>
      <point x="219" y="590" type="curve" smooth="yes"/>
      <point x="219" y="502" type="line"/>
      <point x="248" y="291"/>
      <point x="249" y="288"/>
      <point x="253" y="284" type="curve" smooth="yes"/>
      <point x="255" y="282"/>
      <point x="257" y="281"/>
      <point x="261" y="281" type="curve"/>
    </contour>
    <contour>
      <point x="393" y="-9" type="curve"/>
      <point x="393" y="166" type="line" smooth="yes"/>
      <point x="393" y="172"/>
      <point x="388" y="177"/>
      <point x="382" y="177" type="curve" smooth="yes"/>
      <point x="325" y="177"/>
      <point x="264" y="177"/>
      <point x="207" y="177" type="curve"/>
      <point x="207" y="2" type="line" smooth="yes"/>
      <point x="207" y="-4"/>
      <point x="212" y="-9"/>
      <point x="218" y="-9" type="curve" smooth="yes"/>
      <point x="275" y="-9"/>
      <point x="336" y="-9"/>
    </contour>
  </outline>
</glyph>
<glyph name="quotesingle" format="1">
  <advance width="600"/>
  <unicode hex="0027"/>
  <outline>
    <contour>
      <point x="360" y="450" type="curve"/>
      <point x="383" y="737" type="line" smooth="yes"/>
      <point x="384" y="746"/>
      <point x="379" y="750"/>
      <point x="373" y="750" type="curve" smooth="yes"/>
      <point x="326" y="750"/>
      <point x="274" y="750"/>
      <point x="216" y="750" type="curve"/>
      <point x="219" y="714"/>
      <point x="221" y="683"/>
      <point x="224" y="648" type="curve" smooth="yes"/>
      <point x="239" y="461" type="line" smooth="yes"/>
      <point x="240" y="454"/>
      <point x="245" y="450"/>
      <point x="251" y="450" type="curve" smooth="yes"/>
      <point x="288" y="450"/>
      <point x="323" y="450"/>
    </contour>
  </outline>
</glyph>
<glyph name="parenleft" format="1">
  <advance width="600"/>
  <unicode hex="0028"/>
  <outline>
    <contour>
      <point x="352" y="744" type="curve" smooth="yes"/>
      <point x="235" y="626"/>
      <point x="178" y="479"/>
      <point x="178" y="317" type="curve" smooth="yes"/>
      <point x="178" y="308" type="line" smooth="yes"/>
      <point x="178" y="148"/>
      <point x="235" y="4"/>
      <point x="352" y="-113" type="curve" smooth="yes"/>
      <point x="360" y="-121"/>
      <point x="365" y="-121"/>
      <point x="372" y="-121" type="curve" smooth="yes"/>
      <point x="423" y="-121"/>
      <point x="462" y="-121"/>
      <point x="517" y="-121" type="curve"/>
      <point x="517" y="-103" type="line"/>
      <point x="387" y="21"/>
      <point x="319" y="150"/>
      <point x="319" y="308" type="curve" smooth="yes"/>
      <point x="319" y="317" type="line" smooth="yes"/>
      <point x="319" y="477"/>
      <point x="383" y="615"/>
      <point x="513" y="733" type="curve"/>
      <point x="513" y="752" type="line"/>
      <point x="459" y="752"/>
      <point x="422" y="752"/>
      <point x="372" y="752" type="curve" smooth="yes"/>
      <point x="365" y="752"/>
      <point x="360" y="751"/>
    </contour>
  </outline>
</glyph>
<glyph name="parenright" format="1">
  <advance width="600"/>
  <unicode hex="0029"/>
  <outline>
    <contour>
      <point x="248" y="-113" type="curve" smooth="yes"/>
      <point x="365" y="5"/>
      <point x="422" y="152"/>
      <point x="422" y="313" type="curve" smooth="yes"/>
      <point x="422" y="322" type="line" smooth="yes"/>
      <point x="422" y="482"/>
      <point x="365" y="627"/>
      <point x="248" y="744" type="curve" smooth="yes"/>
      <point x="240" y="751"/>
      <point x="235" y="752"/>
      <point x="228" y="752" type="curve" smooth="yes"/>
      <point x="177" y="752"/>
      <point x="138" y="752"/>
      <point x="83" y="752" type="curve"/>
      <point x="83" y="733" type="line"/>
      <point x="213" y="610"/>
      <point x="281" y="480"/>
      <point x="281" y="322" type="curve" smooth="yes"/>
      <point x="281" y="313" type="line" smooth="yes"/>
      <point x="281" y="153"/>
      <point x="217" y="16"/>
      <point x="87" y="-103" type="curve"/>
      <point x="87" y="-121" type="line"/>
      <point x="141" y="-121"/>
      <point x="178" y="-121"/>
      <point x="228" y="-121" type="curve" smooth="yes"/>
      <point x="235" y="-121"/>
      <point x="240" y="-121"/>
    </contour>
  </outline>
</glyph>
<glyph name="asterisk" format="1">
  <advance width="600"/>
  <unicode hex="002A"/>
  <outline>
    <contour>
      <point x="236" y="568" type="curve"/>
      <point x="243" y="531"/>
      <point x="250" y="495"/>
      <point x="257" y="458" type="curve" smooth="yes"/>
      <point x="283" y="309" type="line"/>
      <point x="237" y="60" type="line" smooth="yes"/>
      <point x="236" y="54"/>
      <point x="239" y="50"/>
      <point x="245" y="50" type="curve"/>
      <point x="284" y="50"/>
      <point x="324" y="50"/>
      <point x="363" y="50" type="curve"/>
      <point x="356" y="87"/>
      <point x="349" y="123"/>
      <point x="342" y="160" type="curve" smooth="yes"/>
      <point x="316" y="309" type="line"/>
      <point x="362" y="558" type="line" smooth="yes"/>
      <point x="363" y="564"/>
      <point x="360" y="568"/>
      <point x="354" y="568" type="curve" smooth="yes"/>
      <point x="315" y="568"/>
      <point x="275" y="568"/>
    </contour>
    <contour>
      <point x="492" y="494" type="curve"/>
      <point x="292" y="324" type="line"/>
      <point x="53" y="240" type="line" smooth="yes"/>
      <point x="47" y="238"/>
      <point x="45" y="233"/>
      <point x="49" y="225" type="curve"/>
      <point x="68" y="191"/>
      <point x="88" y="158"/>
      <point x="107" y="125" type="curve"/>
      <point x="308" y="295" type="line"/>
      <point x="545" y="379" type="line" smooth="yes"/>
      <point x="552" y="381"/>
      <point x="554" y="387"/>
      <point x="550" y="393" type="curve" smooth="yes"/>
      <point x="531" y="427"/>
      <point x="511" y="460"/>
    </contour>
    <contour>
      <point x="555" y="236" type="curve"/>
      <point x="308" y="324" type="line"/>
      <point x="116" y="489" type="line" smooth="yes"/>
      <point x="111" y="493"/>
      <point x="106" y="492"/>
      <point x="101" y="485" type="curve"/>
      <point x="82" y="451"/>
      <point x="62" y="418"/>
      <point x="43" y="384" type="curve"/>
      <point x="291" y="296" type="line"/>
      <point x="482" y="131" type="line" smooth="yes"/>
      <point x="488" y="127"/>
      <point x="494" y="128"/>
      <point x="498" y="135" type="curve"/>
      <point x="517" y="168"/>
      <point x="536" y="202"/>
    </contour>
  </outline>
</glyph>
<glyph name="plus" format="1">
  <advance width="600"/>
  <unicode hex="002B"/>
  <outline>
    <contour>
      <point x="63" y="366" type="line"/>
      <point x="63" y="325"/>
      <point x="63" y="286"/>
      <point x="63" y="245" type="curve" smooth="yes"/>
      <point x="63" y="242"/>
      <point x="64" y="239"/>
      <point x="66" y="237" type="curve" smooth="yes"/>
      <point x="68" y="235"/>
      <point x="71" y="234"/>
      <point x="74" y="234" type="curve"/>
      <point x="537" y="234" type="line"/>
      <point x="537" y="275"/>
      <point x="537" y="314"/>
      <point x="537" y="355" type="curve" smooth="yes"/>
      <point x="537" y="361"/>
      <point x="532" y="366"/>
      <point x="526" y="366" type="curve"/>
    </contour>
    <contour>
      <point x="366" y="64" type="curve"/>
      <point x="366" y="525" type="line" smooth="yes"/>
      <point x="366" y="528"/>
      <point x="365" y="531"/>
      <point x="363" y="533" type="curve" smooth="yes"/>
      <point x="361" y="535"/>
      <point x="358" y="536"/>
      <point x="355" y="536" type="curve" smooth="yes"/>
      <point x="316" y="536"/>
      <point x="281" y="536"/>
      <point x="234" y="536" type="curve"/>
      <point x="234" y="510"/>
      <point x="234" y="476"/>
      <point x="234" y="438" type="curve" smooth="yes"/>
      <point x="234" y="75" type="line" smooth="yes"/>
      <point x="234" y="69"/>
      <point x="239" y="64"/>
      <point x="245" y="64" type="curve" smooth="yes"/>
      <point x="288" y="64"/>
      <point x="323" y="64"/>
    </contour>
  </outline>
</glyph>
<glyph name="comma" format="1">
  <advance width="600"/>
  <unicode hex="002C"/>
  <outline>
    <contour>
      <point x="308" y="-190" type="curve" smooth="yes"/>
      <point x="313" y="-190"/>
      <point x="316" y="-189"/>
      <point x="318" y="-183" type="curve"/>
      <point x="359" y="-77"/>
      <point x="405" y="45"/>
      <point x="440" y="133" type="curve"/>
      <point x="443" y="141"/>
      <point x="440" y="146"/>
      <point x="432" y="146" type="curve" smooth="yes"/>
      <point x="367" y="146"/>
      <point x="329" y="146"/>
      <point x="253" y="146" type="curve"/>
      <point x="229" y="34"/>
      <point x="205" y="-78"/>
      <point x="181" y="-190" type="curve"/>
      <point x="214" y="-190"/>
      <point x="252" y="-190"/>
    </contour>
  </outline>
</glyph>
<glyph name="period" format="1">
  <advance width="600"/>
  <unicode hex="002E"/>
  <outline>
    <contour>
      <point x="393" y="-9" type="curve"/>
      <point x="393" y="166" type="line" smooth="yes"/>
      <point x="393" y="172"/>
      <point x="388" y="177"/>
      <point x="382" y="177" type="curve" smooth="yes"/>
      <point x="325" y="177"/>
      <point x="264" y="177"/>
      <point x="207" y="177" type="curve"/>
      <point x="207" y="2" type="line" smooth="yes"/>
      <point x="207" y="-4"/>
      <point x="212" y="-9"/>
      <point x="218" y="-9" type="curve" smooth="yes"/>
      <point x="275" y="-9"/>
      <point x="336" y="-9"/>
    </contour>
  </outline>
</glyph>
<glyph name="one" format="1">
  <advance width="600"/>
  <unicode hex="0031"/>
  <outline>
    <contour>
      <point x="401" y="35" type="curve"/>
      <point x="401" y="256"/>
      <point x="401" y="478"/>
      <point x="401" y="699" type="curve" smooth="yes"/>
      <point x="401" y="705"/>
      <point x="397" y="710"/>
      <point x="390" y="710" type="curve" smooth="yes"/>
      <point x="269" y="710" type="line"/>
      <point x="269" y="503"/>
      <point x="269" y="291"/>
      <point x="269" y="84" type="curve" smooth="yes"/>
      <point x="269" y="46"/>
      <point x="326" y="35"/>
    </contour>
    <contour>
      <point x="82" y="126" type="line"/>
      <point x="82" y="87"/>
      <point x="82" y="54"/>
      <point x="82" y="11" type="curve" smooth="yes"/>
      <point x="82" y="7"/>
      <point x="83" y="5"/>
      <point x="85" y="3" type="curve" smooth="yes"/>
      <point x="87" y="1"/>
      <point x="89" y="0"/>
      <point x="93" y="0" type="curve" smooth="yes"/>
      <point x="548" y="0" type="line"/>
      <point x="548" y="34"/>
      <point x="548" y="70"/>
      <point x="548" y="115" type="curve" smooth="yes"/>
      <point x="548" y="122"/>
      <point x="545" y="126"/>
      <point x="537" y="126" type="curve" smooth="yes"/>
    </contour>
    <contour>
      <point x="106" y="440" type="curve" smooth="yes"/>
      <point x="111" y="440"/>
      <point x="116" y="442"/>
      <point x="305" y="585" type="curve" smooth="yes"/>
      <point x="340" y="610"/>
      <point x="375" y="637"/>
      <point x="375" y="643" type="curve" smooth="yes"/>
      <point x="375" y="668"/>
      <point x="359" y="710"/>
      <point x="282" y="710" type="curve"/>
      <point x="260" y="710" type="line"/>
      <point x="233" y="691"/>
      <point x="206" y="670"/>
      <point x="180" y="651" type="curve"/>
      <point x="153" y="631"/>
      <point x="126" y="611"/>
      <point x="100" y="592" type="curve"/>
      <point x="100" y="448" type="line" smooth="yes"/>
      <point x="100" y="443"/>
      <point x="102" y="440"/>
    </contour>
  </outline>
</glyph>
<glyph name="two" format="1">
  <advance width="600"/>
  <unicode hex="0032"/>
  <outline>
    <contour>
      <point x="398" y="600" type="curve"/>
      <point x="398" y="579"/>
      <point x="398" y="561"/>
      <point x="398" y="523" type="curve" smooth="yes"/>
      <point x="398" y="482"/>
      <point x="380" y="456"/>
      <point x="268" y="382" type="curve" smooth="yes"/>
      <point x="115" y="282"/>
      <point x="62" y="202"/>
      <point x="62" y="96" type="curve" smooth="yes"/>
      <point x="62" y="83"/>
      <point x="102" y="81"/>
      <point x="196" y="81" type="curve"/>
      <point x="196" y="172"/>
      <point x="218" y="200"/>
      <point x="336" y="277" type="curve" smooth="yes"/>
      <point x="476" y="367"/>
      <point x="531" y="425"/>
      <point x="531" y="518" type="curve" smooth="yes"/>
      <point x="531" y="547" type="line" smooth="yes"/>
      <point x="531" y="577"/>
      <point x="492" y="600"/>
    </contour>
    <contour>
      <point x="547" y="0" type="line"/>
      <point x="547" y="34"/>
      <point x="547" y="70"/>
      <point x="547" y="115" type="curve" smooth="yes"/>
      <point x="547" y="122"/>
      <point x="543" y="126"/>
      <point x="536" y="126" type="curve" smooth="yes"/>
      <point x="176" y="126" type="line" smooth="yes"/>
      <point x="137" y="126"/>
      <point x="97" y="117"/>
      <point x="62" y="96" type="curve"/>
      <point x="62" y="67"/>
      <point x="62" y="52"/>
      <point x="62" y="11" type="curve" smooth="yes"/>
      <point x="62" y="3"/>
      <point x="65" y="0"/>
      <point x="73" y="0" type="curve" smooth="yes"/>
    </contour>
    <contour>
      <point x="300" y="720" type="curve" smooth="yes"/>
      <point x="196" y="720"/>
      <point x="108" y="691"/>
      <point x="85" y="668" type="curve" smooth="yes"/>
      <point x="82" y="665"/>
      <point x="81" y="663"/>
      <point x="81" y="658" type="curve" smooth="yes"/>
      <point x="81" y="607"/>
      <point x="81" y="574"/>
      <point x="81" y="538" type="curve"/>
      <point x="100" y="538" type="line"/>
      <point x="158" y="572"/>
      <point x="221" y="588"/>
      <point x="298" y="588" type="curve" smooth="yes"/>
      <point x="369" y="588"/>
      <point x="398" y="573"/>
      <point x="398" y="536" type="curve" smooth="yes"/>
      <point x="398" y="511"/>
      <point x="398" y="492"/>
      <point x="398" y="478" type="curve"/>
      <point x="486" y="479"/>
      <point x="531" y="511"/>
      <point x="531" y="547" type="curve" smooth="yes"/>
      <point x="531" y="654"/>
      <point x="444" y="720"/>
    </contour>
  </outline>
</glyph>
<glyph name="three" format="1">
  <advance width="600"/>
  <unicode hex="0033"/>
  <outline>
    <contour>
      <point x="278" y="588" type="curve" smooth="yes"/>
      <point x="375" y="588"/>
      <point x="403" y="553"/>
      <point x="403" y="511" type="curve" smooth="yes"/>
      <point x="403" y="487"/>
      <point x="403" y="473"/>
      <point x="403" y="454" type="curve"/>
      <point x="472" y="454"/>
      <point x="536" y="473"/>
      <point x="536" y="528" type="curve" smooth="yes"/>
      <point x="536" y="554" type="line" smooth="yes"/>
      <point x="536" y="653"/>
      <point x="435" y="720"/>
      <point x="283" y="720" type="curve" smooth="yes"/>
      <point x="185" y="720"/>
      <point x="93" y="697"/>
      <point x="78" y="682" type="curve" smooth="yes"/>
      <point x="76" y="680"/>
      <point x="75" y="678"/>
      <point x="75" y="674" type="curve" smooth="yes"/>
      <point x="75" y="627"/>
      <point x="75" y="585"/>
      <point x="75" y="555" type="curve"/>
      <point x="94" y="555" type="line"/>
      <point x="152" y="578"/>
      <point x="196" y="588"/>
    </contour>
    <contour>
      <point x="165" y="338" type="curve" smooth="yes"/>
      <point x="385" y="338"/>
      <point x="536" y="383"/>
      <point x="536" y="528" type="curve" smooth="yes"/>
      <point x="536" y="555"/>
      <point x="465" y="582"/>
      <point x="402" y="582" type="curve"/>
      <point x="402" y="557"/>
      <point x="402" y="533"/>
      <point x="402" y="509" type="curve" smooth="yes"/>
      <point x="402" y="456"/>
      <point x="369" y="420"/>
      <point x="154" y="420" type="curve"/>
      <point x="154" y="400"/>
      <point x="154" y="369"/>
      <point x="154" y="349" type="curve" smooth="yes"/>
      <point x="154" y="343"/>
      <point x="159" y="338"/>
    </contour>
    <contour>
      <point x="165" y="296" type="curve" smooth="yes"/>
      <point x="359" y="296"/>
      <point x="412" y="263"/>
      <point x="412" y="200" type="curve" smooth="yes"/>
      <point x="412" y="175"/>
      <point x="412" y="164"/>
      <point x="412" y="131" type="curve"/>
      <point x="494" y="131"/>
      <point x="546" y="152"/>
      <point x="546" y="204" type="curve" smooth="yes"/>
      <point x="546" y="334"/>
      <point x="391" y="379"/>
      <point x="154" y="379" type="curve"/>
      <point x="154" y="356"/>
      <point x="154" y="328"/>
      <point x="154" y="307" type="curve" smooth="yes"/>
      <point x="154" y="299"/>
      <point x="158" y="296"/>
    </contour>
    <contour>
      <point x="276" y="112" type="curve" smooth="yes"/>
      <point x="187" y="112"/>
      <point x="139" y="121"/>
      <point x="76" y="150" type="curve"/>
      <point x="57" y="150" type="line"/>
      <point x="57" y="115"/>
      <point x="57" y="73"/>
      <point x="57" y="26" type="curve" smooth="yes"/>
      <point x="57" y="22"/>
      <point x="57" y="20"/>
      <point x="59" y="18" type="curve" smooth="yes"/>
      <point x="75" y="2"/>
      <point x="175" y="-20"/>
      <point x="281" y="-20" type="curve" smooth="yes"/>
      <point x="443" y="-20"/>
      <point x="546" y="49"/>
      <point x="546" y="172" type="curve" smooth="yes"/>
      <point x="546" y="204" type="line" smooth="yes"/>
      <point x="546" y="247"/>
      <point x="483" y="267"/>
      <point x="413" y="266" type="curve"/>
      <point x="413" y="240"/>
      <point x="413" y="225"/>
      <point x="413" y="199" type="curve" smooth="yes"/>
      <point x="413" y="152"/>
      <point x="382" y="112"/>
    </contour>
  </outline>
</glyph>
<glyph name="four" format="1">
  <advance width="600"/>
  <unicode hex="0034"/>
  <outline>
    <contour>
      <point x="165" y="227" type="curve"/>
      <point x="259" y="379"/>
      <point x="353" y="530"/>
      <point x="446" y="682" type="curve"/>
      <point x="446" y="700" type="line"/>
      <point x="369" y="700"/>
      <point x="319" y="700"/>
      <point x="310" y="700" type="curve" smooth="yes"/>
      <point x="304" y="700"/>
      <point x="298" y="699"/>
      <point x="293" y="690" type="curve" smooth="yes"/>
      <point x="189" y="516"/>
      <point x="43" y="267"/>
      <point x="43" y="260" type="curve" smooth="yes"/>
      <point x="43" y="238"/>
      <point x="115" y="227"/>
    </contour>
    <contour>
      <point x="560" y="151" type="line"/>
      <point x="560" y="189"/>
      <point x="560" y="227"/>
      <point x="560" y="265" type="curve" smooth="yes"/>
      <point x="560" y="271"/>
      <point x="555" y="276"/>
      <point x="549" y="276" type="curve" smooth="yes"/>
      <point x="385" y="276" type="line"/>
      <point x="358" y="276"/>
      <point x="190" y="268"/>
      <point x="43" y="260" type="curve"/>
      <point x="43" y="162" type="line" smooth="yes"/>
      <point x="43" y="159"/>
      <point x="44" y="156"/>
      <point x="46" y="154" type="curve" smooth="yes"/>
      <point x="48" y="152"/>
      <point x="51" y="151"/>
      <point x="54" y="151" type="curve" smooth="yes"/>
    </contour>
    <contour>
      <point x="495" y="0" type="curve"/>
      <point x="495" y="29"/>
      <point x="495" y="63"/>
      <point x="495" y="98" type="curve" smooth="yes"/>
      <point x="495" y="384" type="line" smooth="yes"/>
      <point x="495" y="391"/>
      <point x="491" y="395"/>
      <point x="484" y="395" type="curve" smooth="yes"/>
      <point x="389" y="395" type="line"/>
      <point x="379" y="347"/>
      <point x="371" y="301"/>
      <point x="362" y="253" type="curve"/>
      <point x="362" y="11" type="line" smooth="yes"/>
      <point x="362" y="5"/>
      <point x="367" y="0"/>
      <point x="373" y="0" type="curve" smooth="yes"/>
      <point x="413" y="0"/>
      <point x="455" y="0"/>
    </contour>
  </outline>
</glyph>
<glyph name="six" format="1">
  <advance width="600"/>
  <unicode hex="0036"/>
  <outline>
    <contour>
      <point x="193" y="104" type="curve"/>
      <point x="193" y="10"/>
      <point x="248" y="-21"/>
      <point x="308" y="-21" type="curve"/>
      <point x="450" y="-21"/>
      <point x="550" y="72"/>
      <point x="550" y="193" type="curve" smooth="yes"/>
      <point x="550" y="253" type="line" smooth="yes"/>
      <point x="550" y="296"/>
      <point x="487" y="325"/>
      <point x="420" y="325" type="curve"/>
      <point x="420" y="292"/>
      <point x="420" y="272"/>
      <point x="420" y="238" type="curve" smooth="yes"/>
      <point x="420" y="208" type="line" smooth="yes"/>
      <point x="420" y="147"/>
      <point x="380" y="104"/>
      <point x="302" y="104" type="curve" smooth="yes"/>
      <point x="254" y="104"/>
      <point x="221" y="104"/>
    </contour>
    <contour>
      <point x="233" y="588" type="curve"/>
      <point x="268" y="588"/>
      <point x="288" y="588"/>
      <point x="334" y="588" type="curve" smooth="yes"/>
      <point x="407" y="588"/>
      <point x="443" y="577"/>
      <point x="496" y="553" type="curve"/>
      <point x="514" y="553" type="line"/>
      <point x="514" y="587"/>
      <point x="514" y="629"/>
      <point x="514" y="676" type="curve" smooth="yes"/>
      <point x="514" y="680"/>
      <point x="514" y="682"/>
      <point x="512" y="684" type="curve" smooth="yes"/>
      <point x="499" y="697"/>
      <point x="429" y="720"/>
      <point x="353" y="720" type="curve" smooth="yes"/>
      <point x="246" y="720"/>
      <point x="233" y="652"/>
    </contour>
    <contour>
      <point x="54" y="405" type="curve" smooth="yes"/>
      <point x="54" y="261" type="line" smooth="yes"/>
      <point x="54" y="77"/>
      <point x="147" y="-21"/>
      <point x="308" y="-21" type="curve" smooth="yes"/>
      <point x="321" y="-21"/>
      <point x="332" y="0"/>
      <point x="302" y="104" type="curve"/>
      <point x="223" y="104"/>
      <point x="190" y="149"/>
      <point x="190" y="257" type="curve" smooth="yes"/>
      <point x="190" y="410" type="line" smooth="yes"/>
      <point x="190" y="538"/>
      <point x="235" y="588"/>
      <point x="334" y="588" type="curve"/>
      <point x="379" y="701"/>
      <point x="374" y="720"/>
      <point x="353" y="720" type="curve" smooth="yes"/>
      <point x="219" y="720"/>
      <point x="54" y="660"/>
    </contour>
    <contour>
      <point x="353" y="443" type="curve" smooth="yes"/>
      <point x="284" y="443"/>
      <point x="224" y="417"/>
      <point x="190" y="383" type="curve" smooth="yes"/>
      <point x="179" y="371"/>
      <point x="174" y="353"/>
      <point x="174" y="274" type="curve"/>
      <point x="216" y="309"/>
      <point x="261" y="324"/>
      <point x="313" y="324" type="curve" smooth="yes"/>
      <point x="387" y="324"/>
      <point x="420" y="297"/>
      <point x="420" y="238" type="curve" smooth="yes"/>
      <point x="420" y="222"/>
      <point x="420" y="207"/>
      <point x="420" y="197" type="curve"/>
      <point x="529" y="198"/>
      <point x="550" y="235"/>
      <point x="550" y="253" type="curve" smooth="yes"/>
      <point x="550" y="371"/>
      <point x="471" y="443"/>
    </contour>
  </outline>
</glyph>
<glyph name="seven" format="1">
  <advance width="600"/>
  <unicode hex="0037"/>
  <outline>
    <contour>
      <point x="452" y="574" type="line" smooth="yes"/>
      <point x="484" y="574"/>
      <point x="516" y="578"/>
      <point x="548" y="588" type="curve"/>
      <point x="548" y="689" type="line"/>
      <point x="548" y="695"/>
      <point x="543" y="700"/>
      <point x="537" y="700" type="curve"/>
      <point x="55" y="700" type="line"/>
      <point x="55" y="649" type="line" smooth="yes"/>
      <point x="55" y="599"/>
      <point x="70" y="574"/>
      <point x="93" y="574" type="curve" smooth="yes"/>
    </contour>
    <contour>
      <point x="316" y="0" type="line"/>
      <point x="459" y="359"/>
      <point x="548" y="580"/>
      <point x="548" y="588" type="curve" smooth="yes"/>
      <point x="548" y="622"/>
      <point x="509" y="630"/>
      <point x="428" y="629" type="curve"/>
      <point x="264" y="233"/>
      <point x="176" y="23"/>
      <point x="176" y="11" type="curve" smooth="yes"/>
      <point x="176" y="5"/>
      <point x="180" y="0"/>
      <point x="187" y="0" type="curve" smooth="yes"/>
    </contour>
    <contour>
      <point x="188" y="475" type="curve"/>
      <point x="188" y="521"/>
      <point x="188" y="616"/>
      <point x="188" y="662" type="curve"/>
      <point x="188" y="690"/>
      <point x="155" y="700"/>
      <point x="68" y="700" type="curve" smooth="yes"/>
      <point x="55" y="700" type="line"/>
      <point x="55" y="646"/>
      <point x="55" y="539"/>
      <point x="55" y="486" type="curve"/>
      <point x="55" y="480"/>
      <point x="60" y="475"/>
      <point x="66" y="475" type="curve" smooth="yes"/>
      <point x="106" y="475"/>
      <point x="148" y="475"/>
    </contour>
  </outline>
</glyph>
<glyph name="eight" format="1">
  <advance width="600"/>
  <unicode hex="0038"/>
  <outline>
    <contour>
      <point x="386" y="376" type="curve" smooth="yes"/>
      <point x="265" y="419" type="line" smooth="yes"/>
      <point x="220" y="436"/>
      <point x="196" y="464"/>
      <point x="196" y="502" type="curve" smooth="yes"/>
      <point x="196" y="523"/>
      <point x="196" y="546"/>
      <point x="196" y="577" type="curve"/>
      <point x="129" y="576"/>
      <point x="71" y="555"/>
      <point x="71" y="503" type="curve" smooth="yes"/>
      <point x="71" y="410"/>
      <point x="117" y="356"/>
      <point x="237" y="311" type="curve" smooth="yes"/>
      <point x="352" y="269" type="line" smooth="yes"/>
      <point x="406" y="248"/>
      <point x="423" y="231"/>
      <point x="423" y="189" type="curve" smooth="yes"/>
      <point x="423" y="142"/>
      <point x="423" y="129"/>
      <point x="423" y="105" type="curve"/>
      <point x="492" y="106"/>
      <point x="547" y="140"/>
      <point x="547" y="196" type="curve"/>
      <point x="547" y="283"/>
      <point x="498" y="335"/>
    </contour>
    <contour>
      <point x="299" y="-20" type="curve" smooth="yes"/>
      <point x="453" y="-20"/>
      <point x="547" y="61"/>
      <point x="547" y="158" type="curve" smooth="yes"/>
      <point x="547" y="196" type="line" smooth="yes"/>
      <point x="547" y="235"/>
      <point x="496" y="255"/>
      <point x="423" y="257" type="curve"/>
      <point x="423" y="251"/>
      <point x="423" y="221"/>
      <point x="423" y="179" type="curve" smooth="yes"/>
      <point x="423" y="133"/>
      <point x="383" y="104"/>
      <point x="299" y="104" type="curve" smooth="yes"/>
      <point x="242" y="104"/>
      <point x="216" y="104"/>
      <point x="184" y="104" type="curve"/>
      <point x="184" y="41"/>
      <point x="234" y="-20"/>
    </contour>
    <contour>
      <point x="301" y="720" type="curve" smooth="yes"/>
      <point x="160" y="720"/>
      <point x="71" y="638"/>
      <point x="71" y="532" type="curve" smooth="yes"/>
      <point x="71" y="503" type="line" smooth="yes"/>
      <point x="71" y="462"/>
      <point x="108" y="435"/>
      <point x="196" y="435" type="curve"/>
      <point x="196" y="455"/>
      <point x="196" y="477"/>
      <point x="196" y="517" type="curve" smooth="yes"/>
      <point x="196" y="562"/>
      <point x="232" y="596"/>
      <point x="301" y="596" type="curve" smooth="yes"/>
      <point x="367" y="596"/>
      <point x="387" y="596"/>
      <point x="418" y="596" type="curve"/>
      <point x="418" y="673"/>
      <point x="369" y="720"/>
    </contour>
    <contour>
      <point x="380" y="347" type="curve" smooth="yes"/>
      <point x="442" y="347"/>
      <point x="528" y="425"/>
      <point x="528" y="504" type="curve" smooth="yes"/>
      <point x="528" y="533" type="line" smooth="yes"/>
      <point x="528" y="640"/>
      <point x="439" y="720"/>
      <point x="301" y="720" type="curve" smooth="yes"/>
      <point x="279" y="720"/>
      <point x="275" y="707"/>
      <point x="301" y="596" type="curve"/>
      <point x="377" y="596"/>
      <point x="404" y="569"/>
      <point x="404" y="517" type="curve" smooth="yes"/>
      <point x="404" y="503" type="line" smooth="yes"/>
      <point x="404" y="458"/>
      <point x="379" y="411"/>
      <point x="291" y="386" type="curve"/>
      <point x="313" y="362"/>
      <point x="347" y="347"/>
    </contour>
    <contour>
      <point x="299" y="104" type="curve"/>
      <point x="219" y="104"/>
      <point x="177" y="132"/>
      <point x="177" y="179" type="curve" smooth="yes"/>
      <point x="177" y="190" type="line" smooth="yes"/>
      <point x="177" y="236"/>
      <point x="210" y="289"/>
      <point x="312" y="308" type="curve"/>
      <point x="288" y="335"/>
      <point x="268" y="349"/>
      <point x="214" y="349" type="curve" smooth="yes"/>
      <point x="144" y="349"/>
      <point x="53" y="280"/>
      <point x="53" y="196" type="curve" smooth="yes"/>
      <point x="53" y="158" type="line" smooth="yes"/>
      <point x="53" y="51"/>
      <point x="151" y="-20"/>
      <point x="299" y="-20" type="curve" smooth="yes"/>
      <point x="316" y="-20"/>
      <point x="335" y="10"/>
    </contour>
  </outline>
</glyph>
<glyph name="colon" format="1">
  <advance width="600"/>
  <unicode hex="003A"/>
  <outline>
    <contour>
      <point x="393" y="360" type="curve"/>
      <point x="393" y="536" type="line" smooth="yes"/>
      <point x="393" y="542"/>
      <point x="388" y="547"/>
      <point x="382" y="547" type="curve" smooth="yes"/>
      <point x="325" y="547"/>
      <point x="264" y="547"/>
      <point x="207" y="547" type="curve"/>
      <point x="207" y="371" type="line" smooth="yes"/>
      <point x="207" y="365"/>
      <point x="212" y="360"/>
      <point x="218" y="360" type="curve" smooth="yes"/>
      <point x="275" y="360"/>
      <point x="336" y="360"/>
    </contour>
    <contour>
      <point x="393" y="-9" type="curve"/>
      <point x="393" y="166" type="line" smooth="yes"/>
      <point x="393" y="172"/>
      <point x="388" y="177"/>
      <point x="382" y="177" type="curve" smooth="yes"/>
      <point x="325" y="177"/>
      <point x="264" y="177"/>
      <point x="207" y="177" type="curve"/>
      <point x="207" y="2" type="line" smooth="yes"/>
      <point x="207" y="-4"/>
      <point x="212" y="-9"/>
      <point x="218" y="-9" type="curve" smooth="yes"/>
      <point x="275" y="-9"/>
      <point x="336" y="-9"/>
    </contour>
  </outline>
</glyph>
<glyph name="semicolon" format="1">
  <advance width="600"/>
  <unicode hex="003B"/>
  <outline>
    <contour>
      <point x="393" y="360" type="curve"/>
      <point x="393" y="536" type="line" smooth="yes"/>
      <point x="393" y="542"/>
      <point x="388" y="547"/>
      <point x="382" y="547" type="curve" smooth="yes"/>
      <point x="325" y="547"/>
      <point x="264" y="547"/>
      <point x="207" y="547" type="curve"/>
      <point x="207" y="371" type="line" smooth="yes"/>
      <point x="207" y="365"/>
      <point x="212" y="360"/>
      <point x="218" y="360" type="curve" smooth="yes"/>
      <point x="275" y="360"/>
      <point x="336" y="360"/>
    </contour>
    <contour>
      <point x="299" y="-231" type="curve" smooth="yes"/>
      <point x="304" y="-231"/>
      <point x="307" y="-230"/>
      <point x="309" y="-224" type="curve"/>
      <point x="350" y="-118"/>
      <point x="397" y="4"/>
      <point x="431" y="91" type="curve"/>
      <point x="434" y="99"/>
      <point x="431" y="104"/>
      <point x="423" y="104" type="curve" smooth="yes"/>
      <point x="359" y="104"/>
      <point x="320" y="104"/>
      <point x="245" y="104" type="curve"/>
      <point x="221" y="-7"/>
      <point x="197" y="-120"/>
      <point x="173" y="-231" type="curve"/>
      <point x="206" y="-231"/>
      <point x="244" y="-231"/>
    </contour>
  </outline>
</glyph>
<glyph name="less" format="1">
  <advance width="600"/>
  <unicode hex="003C"/>
  <outline>
    <contour>
      <point x="520" y="455" type="curve"/>
      <point x="520" y="577" type="line"/>
      <point x="520" y="583"/>
      <point x="517" y="586"/>
      <point x="512" y="586" type="curve" smooth="yes"/>
      <point x="508" y="586"/>
      <point x="504" y="585"/>
      <point x="489" y="579" type="curve" smooth="yes"/>
      <point x="445" y="559"/>
      <point x="220" y="457"/>
      <point x="79" y="394" type="curve"/>
      <point x="79" y="234" type="line"/>
      <point x="94" y="257"/>
      <point x="113" y="274"/>
      <point x="167" y="298" type="curve"/>
      <point x="285" y="350"/>
      <point x="403" y="403"/>
    </contour>
    <contour>
      <point x="519" y="9" type="curve"/>
      <point x="519" y="51"/>
      <point x="519" y="90"/>
      <point x="519" y="132" type="curve" smooth="yes"/>
      <point x="519" y="142"/>
      <point x="518" y="145"/>
      <point x="508" y="150" type="curve" smooth="yes"/>
      <point x="414" y="192"/>
      <point x="315" y="236"/>
      <point x="220" y="279" type="curve" smooth="yes"/>
      <point x="211" y="283"/>
      <point x="209" y="287"/>
      <point x="209" y="296" type="curve" smooth="yes"/>
      <point x="209" y="316"/>
      <point x="209" y="341"/>
      <point x="209" y="375" type="curve"/>
      <point x="115" y="374"/>
      <point x="79" y="301"/>
      <point x="79" y="244" type="curve" smooth="yes"/>
      <point x="79" y="218" type="line" smooth="yes"/>
      <point x="79" y="208"/>
      <point x="84" y="201"/>
      <point x="93" y="198" type="curve" smooth="yes"/>
      <point x="235" y="135"/>
      <point x="377" y="72"/>
    </contour>
  </outline>
</glyph>
<glyph name="equal" format="1">
  <advance width="600"/>
  <unicode hex="003D"/>
  <outline>
    <contour>
      <point x="63" y="491" type="line"/>
      <point x="63" y="451"/>
      <point x="63" y="417"/>
      <point x="63" y="376" type="curve" smooth="yes"/>
      <point x="63" y="373"/>
      <point x="64" y="370"/>
      <point x="66" y="368" type="curve" smooth="yes"/>
      <point x="68" y="366"/>
      <point x="71" y="365"/>
      <point x="74" y="365" type="curve"/>
      <point x="537" y="365" type="line"/>
      <point x="537" y="406"/>
      <point x="537" y="440"/>
      <point x="537" y="480" type="curve" smooth="yes"/>
      <point x="537" y="486"/>
      <point x="532" y="491"/>
      <point x="526" y="491" type="curve"/>
    </contour>
    <contour>
      <point x="537" y="107" type="line"/>
      <point x="537" y="147"/>
      <point x="537" y="182"/>
      <point x="537" y="222" type="curve" smooth="yes"/>
      <point x="537" y="225"/>
      <point x="536" y="228"/>
      <point x="534" y="230" type="curve" smooth="yes"/>
      <point x="532" y="232"/>
      <point x="529" y="233"/>
      <point x="526" y="233" type="curve"/>
      <point x="63" y="233" type="line"/>
      <point x="63" y="193"/>
      <point x="63" y="158"/>
      <point x="63" y="118" type="curve" smooth="yes"/>
      <point x="63" y="112"/>
      <point x="68" y="107"/>
      <point x="74" y="107" type="curve"/>
    </contour>
  </outline>
</glyph>
<glyph name="greater" format="1">
  <advance width="600"/>
  <unicode hex="003E"/>
  <outline>
    <contour>
      <point x="80" y="145" type="curve"/>
      <point x="80" y="23" type="line"/>
      <point x="80" y="18"/>
      <point x="83" y="14"/>
      <point x="88" y="14" type="curve" smooth="yes"/>
      <point x="92" y="14"/>
      <point x="96" y="15"/>
      <point x="111" y="21" type="curve" smooth="yes"/>
      <point x="155" y="41"/>
      <point x="380" y="143"/>
      <point x="521" y="207" type="curve"/>
      <point x="521" y="366" type="line"/>
      <point x="506" y="343"/>
      <point x="487" y="326"/>
      <point x="433" y="303" type="curve"/>
      <point x="315" y="250"/>
      <point x="197" y="198"/>
    </contour>
    <contour>
      <point x="81" y="591" type="curve"/>
      <point x="81" y="549"/>
      <point x="81" y="511"/>
      <point x="81" y="468" type="curve" smooth="yes"/>
      <point x="81" y="458"/>
      <point x="82" y="455"/>
      <point x="92" y="451" type="curve" smooth="yes"/>
      <point x="186" y="408"/>
      <point x="285" y="364"/>
      <point x="380" y="321" type="curve" smooth="yes"/>
      <point x="389" y="318"/>
      <point x="391" y="313"/>
      <point x="391" y="304" type="curve" smooth="yes"/>
      <point x="391" y="284"/>
      <point x="391" y="260"/>
      <point x="391" y="225" type="curve"/>
      <point x="485" y="226"/>
      <point x="521" y="299"/>
      <point x="521" y="356" type="curve" smooth="yes"/>
      <point x="521" y="382" type="line" smooth="yes"/>
      <point x="521" y="392"/>
      <point x="516" y="399"/>
      <point x="507" y="403" type="curve" smooth="yes"/>
      <point x="365" y="465"/>
      <point x="223" y="528"/>
    </contour>
  </outline>
</glyph>
<glyph name="B" format="1">
  <advance width="600"/>
  <unicode hex="0042"/>
  <outline>
    <contour>
      <point x="216" y="10" type="curve"/>
      <point x="216" y="650" type="line" smooth="yes"/>
      <point x="216" y="660"/>
      <point x="167" y="665"/>
      <point x="79" y="665" type="curve"/>
      <point x="79" y="11" type="line"/>
      <point x="79" y="11"/>
      <point x="141" y="10"/>
    </contour>
    <contour>
      <point x="30" y="700" type="curve"/>
      <point x="30" y="670"/>
      <point x="30" y="626"/>
      <point x="30" y="585" type="curve" smooth="yes"/>
      <point x="30" y="582"/>
      <point x="31" y="579"/>
      <point x="33" y="577" type="curve" smooth="yes"/>
      <point x="35" y="575"/>
      <point x="38" y="574"/>
      <point x="41" y="574" type="curve" smooth="yes"/>
      <point x="57" y="574"/>
      <point x="83" y="574"/>
      <point x="101" y="574" type="curve" smooth="yes"/>
      <point x="170" y="574"/>
      <point x="246" y="574"/>
      <point x="314" y="574" type="curve" smooth="yes"/>
      <point x="391" y="574"/>
      <point x="405" y="574"/>
      <point x="451" y="574" type="curve"/>
      <point x="451" y="645"/>
      <point x="406" y="700"/>
      <point x="304" y="700" type="curve" smooth="yes"/>
      <point x="224" y="700"/>
      <point x="114" y="700"/>
    </contour>
    <contour>
      <point x="535" y="501" type="curve" smooth="yes"/>
      <point x="535" y="528" type="line" smooth="yes"/>
      <point x="535" y="612"/>
      <point x="478" y="700"/>
      <point x="304" y="700" type="curve" smooth="yes"/>
      <point x="285" y="700"/>
      <point x="286" y="684"/>
      <point x="314" y="574" type="curve"/>
      <point x="372" y="574"/>
      <point x="398" y="552"/>
      <point x="398" y="505" type="curve" smooth="yes"/>
      <point x="398" y="474" type="line" smooth="yes"/>
      <point x="398" y="427"/>
      <point x="373" y="400"/>
      <point x="309" y="400" type="curve" smooth="yes"/>
      <point x="259" y="400"/>
      <point x="226" y="400"/>
      <point x="178" y="400" type="curve"/>
      <point x="178" y="387"/>
      <point x="178" y="369"/>
      <point x="178" y="355" type="curve" smooth="yes"/>
      <point x="178" y="349"/>
      <point x="184" y="344"/>
      <point x="193" y="344" type="curve" smooth="yes"/>
      <point x="340" y="344" type="line" smooth="yes"/>
      <point x="459" y="344"/>
      <point x="535" y="407"/>
    </contour>
    <contour>
      <point x="537" y="180" type="curve" smooth="yes"/>
      <point x="537" y="213" type="line" smooth="yes"/>
      <point x="537" y="305"/>
      <point x="449" y="367"/>
      <point x="332" y="367" type="curve" smooth="yes"/>
      <point x="193" y="367" type="line" smooth="yes"/>
      <point x="187" y="367"/>
      <point x="178" y="362"/>
      <point x="178" y="357" type="curve"/>
      <point x="178" y="306" type="line"/>
      <point x="302" y="306" type="line"/>
      <point x="375" y="306"/>
      <point x="400" y="281"/>
      <point x="400" y="237" type="curve" smooth="yes"/>
      <point x="400" y="201" type="line" smooth="yes"/>
      <point x="400" y="154"/>
      <point x="374" y="126"/>
      <point x="314" y="126" type="curve" smooth="yes"/>
      <point x="269" y="126"/>
      <point x="208" y="126"/>
      <point x="147" y="126" type="curve"/>
      <point x="82" y="31"/>
      <point x="79" y="15"/>
      <point x="79" y="11" type="curve" smooth="yes"/>
      <point x="79" y="4"/>
      <point x="83" y="0"/>
      <point x="90" y="0" type="curve" smooth="yes"/>
      <point x="322" y="0" type="line" smooth="yes"/>
      <point x="452" y="0"/>
      <point x="537" y="59"/>
    </contour>
  </outline>
</glyph>
<glyph name="D" format="1">
  <advance width="600"/>
  <unicode hex="0044"/>
  <outline>
    <contour>
      <point x="217" y="4" type="curve"/>
      <point x="217" y="644" type="line" smooth="yes"/>
      <point x="217" y="650"/>
      <point x="212" y="655"/>
      <point x="79" y="655" type="curve"/>
      <point x="79" y="11" type="line" smooth="yes"/>
      <point x="79" y="5"/>
      <point x="84" y="4"/>
    </contour>
    <contour>
      <point x="38" y="700" type="curve"/>
      <point x="38" y="660"/>
      <point x="38" y="626"/>
      <point x="38" y="585" type="curve"/>
      <point x="38" y="582"/>
      <point x="39" y="579"/>
      <point x="41" y="577" type="curve" smooth="yes"/>
      <point x="43" y="575"/>
      <point x="46" y="574"/>
      <point x="49" y="574" type="curve" smooth="yes"/>
      <point x="69" y="574"/>
      <point x="91" y="574"/>
      <point x="113" y="574" type="curve" smooth="yes"/>
      <point x="171" y="574"/>
      <point x="241" y="574"/>
      <point x="291" y="574" type="curve" smooth="yes"/>
      <point x="342" y="574"/>
      <point x="372" y="574"/>
      <point x="399" y="574" type="curve"/>
      <point x="399" y="648"/>
      <point x="354" y="700"/>
      <point x="287" y="700" type="curve" smooth="yes"/>
      <point x="219" y="700"/>
      <point x="110" y="700"/>
    </contour>
    <contour>
      <point x="539" y="242" type="curve" smooth="yes"/>
      <point x="539" y="451" type="line" smooth="yes"/>
      <point x="539" y="613"/>
      <point x="460" y="700"/>
      <point x="287" y="700" type="curve"/>
      <point x="282" y="700"/>
      <point x="267" y="684"/>
      <point x="291" y="574" type="curve"/>
      <point x="372" y="574"/>
      <point x="402" y="541"/>
      <point x="402" y="446" type="curve" smooth="yes"/>
      <point x="402" y="242" type="line" smooth="yes"/>
      <point x="402" y="172"/>
      <point x="360" y="126"/>
      <point x="291" y="126" type="curve" smooth="yes"/>
      <point x="259" y="126"/>
      <point x="157" y="126"/>
      <point x="107" y="126" type="curve"/>
      <point x="88" y="84"/>
      <point x="79" y="61"/>
      <point x="79" y="11" type="curve" smooth="yes"/>
      <point x="79" y="5"/>
      <point x="84" y="0"/>
      <point x="90" y="0" type="curve" smooth="yes"/>
      <point x="299" y="0" type="line" smooth="yes"/>
      <point x="449" y="0"/>
      <point x="539" y="90"/>
    </contour>
    <contour>
      <point x="289" y="711" type="move" name="top"/>
    </contour>
  </outline>
</glyph>
<glyph name="E" format="1">
  <advance width="600"/>
  <unicode hex="0045"/>
  <outline>
    <contour>
      <point x="30" y="700" type="line"/>
      <point x="30" y="660"/>
      <point x="30" y="626"/>
      <point x="30" y="585" type="curve" smooth="yes"/>
      <point x="30" y="582"/>
      <point x="31" y="579"/>
      <point x="33" y="577" type="curve" smooth="yes"/>
      <point x="35" y="575"/>
      <point x="38" y="574"/>
      <point x="41" y="574" type="curve" smooth="yes"/>
      <point x="538" y="574" type="line"/>
      <point x="538" y="615"/>
      <point x="538" y="649"/>
      <point x="538" y="689" type="curve" smooth="yes"/>
      <point x="538" y="692"/>
      <point x="537" y="695"/>
      <point x="535" y="697" type="curve" smooth="yes"/>
      <point x="533" y="699"/>
      <point x="530" y="700"/>
      <point x="527" y="700" type="curve" smooth="yes"/>
    </contour>
    <contour>
      <point x="220" y="87" type="curve"/>
      <point x="220" y="646" type="line" smooth="yes"/>
      <point x="220" y="652"/>
      <point x="215" y="657"/>
      <point x="79" y="657" type="curve"/>
      <point x="79" y="126" type="line"/>
      <point x="79" y="107"/>
      <point x="105" y="87"/>
    </contour>
    <contour>
      <point x="79" y="126" type="line"/>
      <point x="79" y="11" type="line" smooth="yes"/>
      <point x="79" y="5"/>
      <point x="84" y="0"/>
      <point x="90" y="0" type="curve" smooth="yes"/>
      <point x="538" y="0" type="line"/>
      <point x="538" y="40"/>
      <point x="538" y="74"/>
      <point x="538" y="115" type="curve" smooth="yes"/>
      <point x="538" y="121"/>
      <point x="533" y="126"/>
      <point x="527" y="126" type="curve" smooth="yes"/>
    </contour>
    <contour>
      <point x="141" y="413" type="line"/>
      <point x="141" y="297"/>
      <point x="146" y="291"/>
      <point x="152" y="291" type="curve" smooth="yes"/>
      <point x="480" y="291" type="line"/>
      <point x="480" y="326"/>
      <point x="480" y="361"/>
      <point x="480" y="402" type="curve" smooth="yes"/>
      <point x="480" y="405"/>
      <point x="479" y="408"/>
      <point x="477" y="410" type="curve" smooth="yes"/>
      <point x="475" y="412"/>
      <point x="472" y="413"/>
      <point x="469" y="413" type="curve" smooth="yes"/>
    </contour>
    <contour>
      <point x="300" y="711" type="move" name="top"/>
    </contour>
    <contour>
      <point x="539" y="0" type="move" name="ogonek"/>
    </contour>
    <contour>
      <point x="320" y="-1" type="move" name="bottom"/>
    </contour>
  </outline>
</glyph>
<glyph name="F" format="1">
  <advance width="600"/>
  <unicode hex="0046"/>
  <outline>
    <contour>
      <point x="241" y="0" type="curve"/>
      <point x="241" y="29"/>
      <point x="241" y="63"/>
      <point x="241" y="98" type="curve" smooth="yes"/>
      <point x="241" y="640" type="line"/>
      <point x="241" y="650"/>
      <point x="229" y="656"/>
      <point x="100" y="656" type="curve"/>
      <point x="100" y="11" type="line" smooth="yes"/>
      <point x="100" y="5"/>
      <point x="105" y="0"/>
      <point x="111" y="0" type="curve" smooth="yes"/>
      <point x="155" y="0"/>
      <point x="198" y="0"/>
    </contour>
    <contour>
      <point x="51" y="700" type="line"/>
      <point x="51" y="660"/>
      <point x="51" y="626"/>
      <point x="51" y="585" type="curve" smooth="yes"/>
      <point x="51" y="582"/>
      <point x="52" y="579"/>
      <point x="54" y="577" type="curve" smooth="yes"/>
      <point x="56" y="575"/>
      <point x="59" y="574"/>
      <point x="62" y="574" type="curve"/>
      <point x="538" y="574" type="line"/>
      <point x="538" y="615"/>
      <point x="538" y="649"/>
      <point x="538" y="689" type="curve" smooth="yes"/>
      <point x="538" y="692"/>
      <point x="537" y="695"/>
      <point x="535" y="697" type="curve" smooth="yes"/>
      <point x="533" y="699"/>
      <point x="530" y="700"/>
      <point x="527" y="700" type="curve"/>
    </contour>
    <contour>
      <point x="162" y="385" type="line"/>
      <point x="162" y="275"/>
      <point x="164" y="261"/>
      <point x="173" y="261" type="curve"/>
      <point x="497" y="261" type="line"/>
      <point x="497" y="301"/>
      <point x="497" y="334"/>
      <point x="497" y="374" type="curve"/>
      <point x="497" y="377"/>
      <point x="496" y="380"/>
      <point x="494" y="382" type="curve" smooth="yes"/>
      <point x="492" y="384"/>
      <point x="489" y="385"/>
      <point x="486" y="385" type="curve"/>
    </contour>
  </outline>
</glyph>
<glyph name="G" format="1">
  <advance width="578"/>
  <unicode hex="0047"/>
  <outline>
    <contour>
      <point x="314" y="597" type="curve" smooth="yes"/>
      <point x="381" y="597"/>
      <point x="412" y="581"/>
      <point x="452" y="549" type="curve"/>
      <point x="517" y="616"/>
      <point x="522" y="628"/>
      <point x="522" y="639" type="curve" smooth="yes"/>
      <point x="522" y="650"/>
      <point x="521" y="653"/>
      <point x="516" y="658" type="curve" smooth="yes"/>
      <point x="483" y="690"/>
      <point x="417" y="720"/>
      <point x="320" y="720" type="curve" smooth="yes"/>
      <point x="153" y="720"/>
      <point x="54" y="630"/>
      <point x="54" y="459" type="curve" smooth="yes"/>
      <point x="54" y="239" type="line" smooth="yes"/>
      <point x="54" y="186"/>
      <point x="112" y="127"/>
      <point x="187" y="128" type="curve"/>
      <point x="187" y="163"/>
      <point x="187" y="191"/>
      <point x="187" y="239" type="curve" smooth="yes"/>
      <point x="187" y="461" type="line" smooth="yes"/>
      <point x="187" y="551"/>
      <point x="226" y="597"/>
    </contour>
    <contour>
      <point x="308" y="104" type="curve" smooth="yes"/>
      <point x="229" y="104"/>
      <point x="187" y="146"/>
      <point x="187" y="239" type="curve"/>
      <point x="80" y="259"/>
      <point x="54" y="248"/>
      <point x="54" y="239" type="curve" smooth="yes"/>
      <point x="54" y="78"/>
      <point x="141" y="-20"/>
      <point x="302" y="-20" type="curve" smooth="yes"/>
      <point x="454" y="-20"/>
      <point x="525" y="54"/>
      <point x="525" y="69" type="curve" smooth="yes"/>
      <point x="525" y="283" type="line" smooth="yes"/>
      <point x="525" y="301"/>
      <point x="438" y="308"/>
      <point x="400" y="308" type="curve"/>
      <point x="400" y="251"/>
      <point x="400" y="187"/>
      <point x="400" y="130" type="curve" smooth="yes"/>
      <point x="400" y="123"/>
      <point x="368" y="104"/>
    </contour>
    <contour>
      <point x="301" y="381" type="line"/>
      <point x="301" y="346"/>
      <point x="301" y="312"/>
      <point x="301" y="277" type="curve" smooth="yes"/>
      <point x="301" y="274"/>
      <point x="302" y="271"/>
      <point x="304" y="269" type="curve" smooth="yes"/>
      <point x="306" y="267"/>
      <point x="309" y="266"/>
      <point x="312" y="266" type="curve"/>
      <point x="562" y="266" type="line"/>
      <point x="562" y="370" type="line" smooth="yes"/>
      <point x="562" y="376"/>
      <point x="557" y="381"/>
      <point x="551" y="381" type="curve" smooth="yes"/>
    </contour>
    <contour>
      <point x="522" y="496" type="curve"/>
      <point x="522" y="639" type="line" smooth="yes"/>
      <point x="522" y="655"/>
      <point x="513" y="661"/>
      <point x="397" y="661" type="curve"/>
      <point x="397" y="646"/>
      <point x="397" y="623"/>
      <point x="397" y="610" type="curve" smooth="yes"/>
      <point x="397" y="507" type="line" smooth="yes"/>
      <point x="397" y="500"/>
      <point x="401" y="496"/>
      <point x="408" y="496" type="curve" smooth="yes"/>
      <point x="446" y="496"/>
      <point x="484" y="496"/>
    </contour>
    <contour>
      <point x="308" y="711" type="move" name="top"/>
    </contour>
    <contour>
      <point x="308" y="-1" type="move" name="bottom"/>
    </contour>
  </outline>
</glyph>
<glyph name="H" format="1">
  <advance width="600"/>
  <unicode hex="0048"/>
  <outline>
    <contour>
      <point x="72" y="700" type="curve"/>
      <point x="72" y="665"/>
      <point x="72" y="630"/>
      <point x="72" y="594" type="curve" smooth="yes"/>
      <point x="72" y="11" type="line" smooth="yes"/>
      <point x="72" y="5"/>
      <point x="77" y="0"/>
      <point x="83" y="0" type="curve" smooth="yes"/>
      <point x="127" y="0"/>
      <point x="170" y="0"/>
      <point x="213" y="0" type="curve"/>
      <point x="213" y="689" type="line" smooth="yes"/>
      <point x="213" y="692"/>
      <point x="212" y="695"/>
      <point x="210" y="697" type="curve" smooth="yes"/>
      <point x="208" y="699"/>
      <point x="205" y="700"/>
      <point x="202" y="700" type="curve" smooth="yes"/>
      <point x="159" y="700"/>
      <point x="116" y="700"/>
    </contour>
    <contour>
      <point x="528" y="0" type="curve"/>
      <point x="528" y="32"/>
      <point x="528" y="69"/>
      <point x="528" y="108" type="curve" smooth="yes"/>
      <point x="528" y="689" type="line" smooth="yes"/>
      <point x="528" y="695"/>
      <point x="523" y="700"/>
      <point x="517" y="700" type="curve" smooth="yes"/>
      <point x="473" y="700"/>
      <point x="430" y="700"/>
      <point x="387" y="700" type="curve"/>
      <point x="387" y="11" type="line" smooth="yes"/>
      <point x="387" y="8"/>
      <point x="388" y="5"/>
      <point x="390" y="3" type="curve" smooth="yes"/>
      <point x="392" y="1"/>
      <point x="395" y="0"/>
      <point x="398" y="0" type="curve" smooth="yes"/>
      <point x="441" y="0"/>
      <point x="484" y="0"/>
    </contour>
    <contour>
      <point x="132" y="413" type="line"/>
      <point x="132" y="298" type="line" smooth="yes"/>
      <point x="132" y="295"/>
      <point x="133" y="292"/>
      <point x="135" y="290" type="curve" smooth="yes"/>
      <point x="137" y="288"/>
      <point x="140" y="287"/>
      <point x="143" y="287" type="curve"/>
      <point x="467" y="287" type="line"/>
      <point x="467" y="414"/>
      <point x="462" y="413"/>
      <point x="456" y="413" type="curve" smooth="yes"/>
    </contour>
    <contour>
      <point x="300" y="711" type="move" name="top"/>
    </contour>
  </outline>
</glyph>
<glyph name="I" format="1">
  <advance width="600"/>
  <unicode hex="0049"/>
  <outline>
    <contour>
      <point x="371" y="45" type="curve"/>
      <point x="371" y="644" type="line" smooth="yes"/>
      <point x="371" y="650"/>
      <point x="366" y="655"/>
      <point x="229" y="655" type="curve"/>
      <point x="229" y="56" type="line" smooth="yes"/>
      <point x="229" y="50"/>
      <point x="234" y="45"/>
    </contour>
    <contour>
      <point x="73" y="700" type="line"/>
      <point x="73" y="660"/>
      <point x="73" y="626"/>
      <point x="73" y="585" type="curve"/>
      <point x="73" y="582"/>
      <point x="74" y="579"/>
      <point x="76" y="577" type="curve" smooth="yes"/>
      <point x="78" y="575"/>
      <point x="81" y="574"/>
      <point x="84" y="574" type="curve" smooth="yes"/>
      <point x="527" y="574" type="line"/>
      <point x="527" y="615"/>
      <point x="527" y="649"/>
      <point x="527" y="689" type="curve" smooth="yes"/>
      <point x="527" y="695"/>
      <point x="522" y="700"/>
      <point x="516" y="700" type="curve" smooth="yes"/>
    </contour>
    <contour>
      <point x="73" y="126" type="line"/>
      <point x="73" y="85"/>
      <point x="73" y="51"/>
      <point x="73" y="11" type="curve"/>
      <point x="73" y="8"/>
      <point x="74" y="5"/>
      <point x="76" y="3" type="curve" smooth="yes"/>
      <point x="78" y="1"/>
      <point x="81" y="0"/>
      <point x="84" y="0" type="curve" smooth="yes"/>
      <point x="527" y="0" type="line"/>
      <point x="527" y="40"/>
      <point x="527" y="75"/>
      <point x="527" y="115" type="curve" smooth="yes"/>
      <point x="527" y="121"/>
      <point x="522" y="126"/>
      <point x="516" y="126" type="curve" smooth="yes"/>
    </contour>
    <contour>
      <point x="300" y="711" type="move" name="top"/>
    </contour>
    <contour>
      <point x="528" y="0" type="move" name="ogonek"/>
    </contour>
    <contour>
      <point x="300" y="-1" type="move" name="bottom"/>
    </contour>
  </outline>
</glyph>
<glyph name="J" format="1">
  <advance width="600"/>
  <unicode hex="004A"/>
  <outline>
    <contour>
      <point x="124" y="700" type="line"/>
      <point x="124" y="660"/>
      <point x="124" y="626"/>
      <point x="124" y="585" type="curve" smooth="yes"/>
      <point x="124" y="582"/>
      <point x="125" y="579"/>
      <point x="127" y="577" type="curve" smooth="yes"/>
      <point x="129" y="575"/>
      <point x="132" y="574"/>
      <point x="135" y="574" type="curve" smooth="yes"/>
      <point x="467" y="574" type="line"/>
      <point x="467" y="629"/>
      <point x="448" y="700"/>
      <point x="403" y="700" type="curve"/>
    </contour>
    <contour>
      <point x="507" y="241" type="curve" smooth="yes"/>
      <point x="507" y="689" type="line" smooth="yes"/>
      <point x="507" y="695"/>
      <point x="502" y="700"/>
      <point x="496" y="700" type="curve" smooth="yes"/>
      <point x="365" y="700" type="line"/>
      <point x="365" y="233" type="line" smooth="yes"/>
      <point x="365" y="171"/>
      <point x="365" y="147"/>
      <point x="365" y="111" type="curve"/>
      <point x="473" y="111"/>
      <point x="507" y="150"/>
    </contour>
    <contour>
      <point x="248" y="108" type="curve" smooth="yes"/>
      <point x="197" y="108"/>
      <point x="153" y="118"/>
      <point x="104" y="141" type="curve"/>
      <point x="85" y="141" type="line"/>
      <point x="85" y="100"/>
      <point x="85" y="64"/>
      <point x="85" y="23" type="curve"/>
      <point x="85" y="20"/>
      <point x="86" y="17"/>
      <point x="88" y="15" type="curve" smooth="yes"/>
      <point x="105" y="-1"/>
      <point x="175" y="-20"/>
      <point x="233" y="-20" type="curve" smooth="yes"/>
      <point x="258" y="-20" type="line" smooth="yes"/>
      <point x="427" y="-20"/>
      <point x="507" y="90"/>
      <point x="507" y="241" type="curve"/>
      <point x="507" y="258"/>
      <point x="500" y="271"/>
      <point x="365" y="233" type="curve"/>
      <point x="365" y="143"/>
      <point x="330" y="108"/>
    </contour>
    <contour>
      <point x="296" y="711" type="move" name="top"/>
    </contour>
  </outline>
</glyph>
<glyph name="L" format="1">
  <advance width="600"/>
  <unicode hex="004C"/>
  <outline>
    <contour>
      <point x="215" y="87" type="curve"/>
      <point x="215" y="689" type="line" smooth="yes"/>
      <point x="215" y="692"/>
      <point x="214" y="695"/>
      <point x="212" y="697" type="curve" smooth="yes"/>
      <point x="210" y="699"/>
      <point x="207" y="700"/>
      <point x="204" y="700" type="curve" smooth="yes"/>
      <point x="160" y="700"/>
      <point x="117" y="700"/>
      <point x="73" y="700" type="curve"/>
      <point x="73" y="667"/>
      <point x="73" y="633"/>
      <point x="73" y="600" type="curve" smooth="yes"/>
      <point x="73" y="126" type="line" smooth="yes"/>
      <point x="73" y="120"/>
      <point x="78" y="87"/>
    </contour>
    <contour>
      <point x="73" y="126" type="line"/>
      <point x="73" y="11" type="line" smooth="yes"/>
      <point x="73" y="5"/>
      <point x="78" y="0"/>
      <point x="84" y="0" type="curve" smooth="yes"/>
      <point x="538" y="0" type="line"/>
      <point x="538" y="40"/>
      <point x="538" y="74"/>
      <point x="538" y="115" type="curve" smooth="yes"/>
      <point x="538" y="121"/>
      <point x="533" y="126"/>
      <point x="527" y="126" type="curve" smooth="yes"/>
    </contour>
    <contour>
      <point x="436" y="550" type="move" name="caronslovak"/>
    </contour>
    <contour>
      <point x="144" y="711" type="move" name="top"/>
    </contour>
    <contour>
      <point x="411" y="400" type="move" name="dot"/>
    </contour>
    <contour>
      <point x="306" y="-1" type="move" name="bottom"/>
    </contour>
  </outline>
</glyph>
<glyph name="M" format="1">
  <advance width="600"/>
  <unicode hex="004D"/>
  <outline>
    <contour>
      <point x="187" y="0" type="curve"/>
      <point x="187" y="54"/>
      <point x="187" y="109"/>
      <point x="187" y="163" type="curve" smooth="yes"/>
      <point x="187" y="224"/>
      <point x="154" y="562"/>
      <point x="154" y="690" type="curve" smooth="yes"/>
      <point x="154" y="693"/>
      <point x="153" y="695"/>
      <point x="151" y="697" type="curve" smooth="yes"/>
      <point x="149" y="699"/>
      <point x="146" y="700"/>
      <point x="143" y="700" type="curve" smooth="yes"/>
      <point x="113" y="700"/>
      <point x="75" y="700"/>
      <point x="54" y="700" type="curve"/>
      <point x="54" y="667"/>
      <point x="54" y="633"/>
      <point x="54" y="600" type="curve" smooth="yes"/>
      <point x="54" y="11" type="line" smooth="yes"/>
      <point x="54" y="8"/>
      <point x="55" y="5"/>
      <point x="57" y="3" type="curve" smooth="yes"/>
      <point x="59" y="1"/>
      <point x="62" y="0"/>
      <point x="65" y="0" type="curve" smooth="yes"/>
      <point x="105" y="0"/>
      <point x="147" y="0"/>
    </contour>
    <contour>
      <point x="546" y="0" type="curve"/>
      <point x="546" y="33"/>
      <point x="546" y="67"/>
      <point x="546" y="100" type="curve" smooth="yes"/>
      <point x="546" y="689" type="line" smooth="yes"/>
      <point x="546" y="692"/>
      <point x="545" y="695"/>
      <point x="543" y="697" type="curve" smooth="yes"/>
      <point x="541" y="699"/>
      <point x="538" y="700"/>
      <point x="535" y="700" type="curve" smooth="yes"/>
      <point x="446" y="700" type="line"/>
      <point x="446" y="696"/>
      <point x="446" y="694"/>
      <point x="446" y="690" type="curve" smooth="yes"/>
      <point x="446" y="566"/>
      <point x="413" y="223"/>
      <point x="413" y="163" type="curve" smooth="yes"/>
      <point x="413" y="112"/>
      <point x="413" y="62"/>
      <point x="413" y="11" type="curve" smooth="yes"/>
      <point x="413" y="8"/>
      <point x="414" y="5"/>
      <point x="416" y="3" type="curve" smooth="yes"/>
      <point x="418" y="1"/>
      <point x="421" y="0"/>
      <point x="424" y="0" type="curve"/>
      <point x="464" y="0"/>
      <point x="506" y="0"/>
    </contour>
    <contour>
      <point x="83" y="700" type="line"/>
      <point x="150" y="523"/>
      <point x="217" y="346"/>
      <point x="284" y="172" type="curve"/>
      <point x="287" y="165"/>
      <point x="292" y="164"/>
      <point x="296" y="164" type="curve"/>
      <point x="311" y="164"/>
      <point x="322" y="246"/>
      <point x="322" y="311" type="curve"/>
      <point x="276" y="439"/>
      <point x="232" y="564"/>
      <point x="187" y="690" type="curve"/>
      <point x="184" y="696"/>
      <point x="180" y="700"/>
      <point x="172" y="700" type="curve"/>
    </contour>
    <contour>
      <point x="448" y="700" type="curve" smooth="yes"/>
      <point x="438" y="700"/>
      <point x="428" y="700"/>
      <point x="419" y="700" type="curve"/>
      <point x="372" y="570"/>
      <point x="325" y="439"/>
      <point x="278" y="310" type="curve"/>
      <point x="264" y="269"/>
      <point x="277" y="164"/>
      <point x="296" y="164" type="curve"/>
      <point x="307" y="164" type="line"/>
      <point x="372" y="326"/>
      <point x="437" y="487"/>
      <point x="503" y="649" type="curve"/>
      <point x="514" y="678"/>
      <point x="493" y="700"/>
    </contour>
  </outline>
</glyph>
<glyph name="N" format="1">
  <advance width="600"/>
  <unicode hex="004E"/>
  <outline>
    <contour>
      <point x="197" y="0" type="curve"/>
      <point x="197" y="253" type="line"/>
      <point x="197" y="286"/>
      <point x="165" y="693"/>
      <point x="160" y="697" type="curve" smooth="yes"/>
      <point x="158" y="699"/>
      <point x="155" y="700"/>
      <point x="152" y="700" type="curve"/>
      <point x="123" y="700"/>
      <point x="70" y="700"/>
      <point x="64" y="700" type="curve"/>
      <point x="64" y="653"/>
      <point x="64" y="607"/>
      <point x="64" y="560" type="curve" smooth="yes"/>
      <point x="64" y="11" type="line"/>
      <point x="64" y="5"/>
      <point x="69" y="0"/>
      <point x="75" y="0" type="curve"/>
      <point x="115" y="0"/>
      <point x="156" y="0"/>
    </contour>
    <contour>
      <point x="536" y="0" type="line"/>
      <point x="536" y="689" type="line"/>
      <point x="536" y="695"/>
      <point x="531" y="700"/>
      <point x="525" y="700" type="curve"/>
      <point x="403" y="700" type="line"/>
      <point x="403" y="411" type="line"/>
      <point x="403" y="387"/>
      <point x="438" y="5"/>
      <point x="440" y="3" type="curve" smooth="yes"/>
      <point x="442" y="1"/>
      <point x="445" y="0"/>
      <point x="448" y="0" type="curve"/>
    </contour>
    <contour>
      <point x="152" y="700" type="line"/>
      <point x="77" y="698"/>
      <point x="84" y="687"/>
      <point x="90" y="674" type="curve" smooth="yes"/>
      <point x="196" y="452"/>
      <point x="301" y="230"/>
      <point x="407" y="8" type="curve"/>
      <point x="410" y="1"/>
      <point x="415" y="0"/>
      <point x="419" y="0" type="curve" smooth="yes"/>
      <point x="427" y="0"/>
      <point x="451" y="0"/>
      <point x="457" y="0" type="curve"/>
      <point x="470" y="2"/>
      <point x="466" y="89"/>
      <point x="465" y="137" type="curve"/>
      <point x="379" y="323"/>
      <point x="292" y="510"/>
      <point x="208" y="690" type="curve"/>
      <point x="204" y="699"/>
      <point x="202" y="700"/>
      <point x="190" y="700" type="curve"/>
    </contour>
    <contour>
      <point x="300" y="710" type="move" name="top"/>
    </contour>
    <contour>
      <point x="300" y="-1" type="move" name="bottom"/>
    </contour>
  </outline>
</glyph>
<glyph name="O" format="1">
  <advance width="600"/>
  <unicode hex="004F"/>
  <outline>
    <contour>
      <point x="296" y="720" type="curve" smooth="yes"/>
      <point x="159" y="720"/>
      <point x="57" y="628"/>
      <point x="57" y="461" type="curve" smooth="yes"/>
      <point x="57" y="232" type="line" smooth="yes"/>
      <point x="57" y="68"/>
      <point x="146" y="-20"/>
      <point x="303" y="-20" type="curve" smooth="yes"/>
      <point x="320" y="-20"/>
      <point x="335" y="-2"/>
      <point x="300" y="106" type="curve"/>
      <point x="216" y="106"/>
      <point x="190" y="152"/>
      <point x="190" y="232" type="curve" smooth="yes"/>
      <point x="190" y="459" type="line" smooth="yes"/>
      <point x="190" y="552"/>
      <point x="232" y="594"/>
      <point x="299" y="594" type="curve" smooth="yes"/>
      <point x="355" y="594"/>
      <point x="383" y="594"/>
      <point x="404" y="594" type="curve"/>
      <point x="404" y="656"/>
      <point x="393" y="720"/>
    </contour>
    <contour>
      <point x="303" y="-20" type="curve" smooth="yes"/>
      <point x="440" y="-20"/>
      <point x="542" y="72"/>
      <point x="542" y="239" type="curve" smooth="yes"/>
      <point x="542" y="469" type="line" smooth="yes"/>
      <point x="542" y="632"/>
      <point x="453" y="720"/>
      <point x="296" y="720" type="curve" smooth="yes"/>
      <point x="279" y="720"/>
      <point x="265" y="702"/>
      <point x="299" y="594" type="curve"/>
      <point x="384" y="594"/>
      <point x="409" y="548"/>
      <point x="409" y="468" type="curve" smooth="yes"/>
      <point x="409" y="241" type="line" smooth="yes"/>
      <point x="409" y="148"/>
      <point x="368" y="106"/>
      <point x="300" y="106" type="curve" smooth="yes"/>
      <point x="244" y="106"/>
      <point x="216" y="106"/>
      <point x="196" y="106" type="curve"/>
      <point x="196" y="44"/>
      <point x="207" y="-20"/>
    </contour>
    <contour>
      <point x="300" y="711" type="move" name="top"/>
    </contour>
    <contour>
      <point x="412" y="10" type="move" name="ogonek"/>
    </contour>
    <contour>
      <point x="300" y="-1" type="move" name="bottom"/>
    </contour>
  </outline>
</glyph>
<glyph name="P" format="1">
  <advance width="600"/>
  <unicode hex="0050"/>
  <outline>
    <contour>
      <point x="216" y="0" type="curve"/>
      <point x="216" y="33"/>
      <point x="216" y="67"/>
      <point x="216" y="100" type="curve" smooth="yes"/>
      <point x="216" y="644" type="line" smooth="yes"/>
      <point x="216" y="650"/>
      <point x="211" y="655"/>
      <point x="79" y="655" type="curve"/>
      <point x="79" y="11" type="line" smooth="yes"/>
      <point x="79" y="8"/>
      <point x="80" y="5"/>
      <point x="82" y="3" type="curve" smooth="yes"/>
      <point x="84" y="1"/>
      <point x="87" y="0"/>
      <point x="90" y="0" type="curve" smooth="yes"/>
      <point x="133" y="0"/>
      <point x="174" y="0"/>
    </contour>
    <contour>
      <point x="38" y="700" type="curve"/>
      <point x="38" y="660"/>
      <point x="38" y="626"/>
      <point x="38" y="585" type="curve"/>
      <point x="38" y="582"/>
      <point x="39" y="579"/>
      <point x="41" y="577" type="curve" smooth="yes"/>
      <point x="43" y="575"/>
      <point x="46" y="574"/>
      <point x="49" y="574" type="curve" smooth="yes"/>
      <point x="69" y="574"/>
      <point x="91" y="574"/>
      <point x="113" y="574" type="curve" smooth="yes"/>
      <point x="176" y="574"/>
      <point x="255" y="574"/>
      <point x="310" y="574" type="curve" smooth="yes"/>
      <point x="361" y="574"/>
      <point x="383" y="574"/>
      <point x="410" y="574" type="curve"/>
      <point x="410" y="648"/>
      <point x="372" y="700"/>
      <point x="305" y="700" type="curve" smooth="yes"/>
      <point x="233" y="700"/>
      <point x="116" y="700"/>
    </contour>
    <contour>
      <point x="543" y="422" type="curve" smooth="yes"/>
      <point x="543" y="489" type="line" smooth="yes"/>
      <point x="543" y="625"/>
      <point x="470" y="700"/>
      <point x="305" y="700" type="curve"/>
      <point x="300" y="700"/>
      <point x="286" y="684"/>
      <point x="310" y="574" type="curve"/>
      <point x="377" y="574"/>
      <point x="402" y="553"/>
      <point x="402" y="489" type="curve" smooth="yes"/>
      <point x="402" y="423" type="line" smooth="yes"/>
      <point x="402" y="374"/>
      <point x="372" y="342"/>
      <point x="323" y="342" type="curve" smooth="yes"/>
      <point x="296" y="342"/>
      <point x="218" y="342"/>
      <point x="176" y="342" type="curve"/>
      <point x="176" y="300"/>
      <point x="176" y="276"/>
      <point x="176" y="227" type="curve" smooth="yes"/>
      <point x="176" y="221"/>
      <point x="181" y="216"/>
      <point x="187" y="216" type="curve" smooth="yes"/>
      <point x="331" y="216" type="line" smooth="yes"/>
      <point x="463" y="216"/>
      <point x="543" y="293"/>
    </contour>
  </outline>
</glyph>
<glyph name="Q" format="1">
  <advance width="600"/>
  <unicode hex="0051"/>
  <outline>
    <contour>
      <point x="296" y="720" type="curve" smooth="yes"/>
      <point x="159" y="720"/>
      <point x="57" y="628"/>
      <point x="57" y="461" type="curve" smooth="yes"/>
      <point x="57" y="232" type="line" smooth="yes"/>
      <point x="57" y="68"/>
      <point x="146" y="-20"/>
      <point x="303" y="-20" type="curve" smooth="yes"/>
      <point x="320" y="-20"/>
      <point x="335" y="-2"/>
      <point x="300" y="106" type="curve"/>
      <point x="216" y="106"/>
      <point x="190" y="152"/>
      <point x="190" y="232" type="curve" smooth="yes"/>
      <point x="190" y="459" type="line" smooth="yes"/>
      <point x="190" y="552"/>
      <point x="231" y="594"/>
      <point x="299" y="594" type="curve" smooth="yes"/>
      <point x="355" y="594"/>
      <point x="383" y="594"/>
      <point x="404" y="594" type="curve"/>
      <point x="404" y="656"/>
      <point x="392" y="720"/>
    </contour>
    <contour>
      <point x="303" y="-20" type="curve" smooth="yes"/>
      <point x="440" y="-20"/>
      <point x="542" y="72"/>
      <point x="542" y="239" type="curve" smooth="yes"/>
      <point x="542" y="469" type="line" smooth="yes"/>
      <point x="542" y="632"/>
      <point x="453" y="720"/>
      <point x="296" y="720" type="curve" smooth="yes"/>
      <point x="279" y="720"/>
      <point x="265" y="702"/>
      <point x="299" y="594" type="curve"/>
      <point x="384" y="594"/>
      <point x="409" y="548"/>
      <point x="409" y="468" type="curve" smooth="yes"/>
      <point x="409" y="241" type="line" smooth="yes"/>
      <point x="409" y="148"/>
      <point x="368" y="106"/>
      <point x="300" y="106" type="curve" smooth="yes"/>
      <point x="244" y="106"/>
      <point x="216" y="106"/>
      <point x="196" y="106" type="curve"/>
      <point x="196" y="44"/>
      <point x="207" y="-20"/>
    </contour>
    <contour>
      <point x="434" y="112" type="line"/>
      <point x="323" y="68"/>
      <point x="309" y="59"/>
      <point x="322" y="39" type="curve" smooth="yes"/>
      <point x="398" y="-81" type="line" smooth="yes"/>
      <point x="432" y="-137"/>
      <point x="460" y="-158"/>
      <point x="529" y="-158" type="curve" smooth="yes"/>
      <point x="559" y="-158" type="line" smooth="yes"/>
      <point x="566" y="-158"/>
      <point x="570" y="-154"/>
      <point x="570" y="-147" type="curve" smooth="yes"/>
      <point x="570" y="-104"/>
      <point x="570" y="-61"/>
      <point x="570" y="-17" type="curve"/>
      <point x="564" y="-17" type="line"/>
      <point x="558" y="-17"/>
      <point x="554" y="-17"/>
      <point x="548" y="-17" type="curve" smooth="yes"/>
      <point x="519" y="-17"/>
      <point x="509" y="-14"/>
      <point x="495" y="10" type="curve" smooth="yes"/>
    </contour>
  </outline>
</glyph>
<glyph name="S" format="1">
  <advance width="600"/>
  <unicode hex="0053"/>
  <outline>
    <contour>
      <point x="319" y="719" type="curve" smooth="yes"/>
      <point x="174" y="719"/>
      <point x="71" y="634"/>
      <point x="71" y="527" type="curve" smooth="yes"/>
      <point x="71" y="481" type="line" smooth="yes"/>
      <point x="71" y="455"/>
      <point x="132" y="423"/>
      <point x="201" y="421" type="curve"/>
      <point x="201" y="448"/>
      <point x="201" y="493"/>
      <point x="201" y="520" type="curve" smooth="yes"/>
      <point x="201" y="573"/>
      <point x="243" y="597"/>
      <point x="321" y="597" type="curve" smooth="yes"/>
      <point x="371" y="597"/>
      <point x="436" y="583"/>
      <point x="477" y="562" type="curve"/>
      <point x="518" y="640"/>
      <point x="520" y="646"/>
      <point x="520" y="654" type="curve" smooth="yes"/>
      <point x="520" y="665"/>
      <point x="519" y="668"/>
      <point x="514" y="673" type="curve" smooth="yes"/>
      <point x="492" y="696"/>
      <point x="420" y="719"/>
    </contour>
    <contour>
      <point x="383" y="393" type="curve" smooth="yes"/>
      <point x="288" y="422" type="line" smooth="yes"/>
      <point x="215" y="444"/>
      <point x="201" y="460"/>
      <point x="201" y="500" type="curve" smooth="yes"/>
      <point x="201" y="523"/>
      <point x="201" y="537"/>
      <point x="201" y="572" type="curve"/>
      <point x="131" y="570"/>
      <point x="71" y="561"/>
      <point x="71" y="481" type="curve" smooth="yes"/>
      <point x="71" y="420"/>
      <point x="103" y="349"/>
      <point x="235" y="308" type="curve" smooth="yes"/>
      <point x="330" y="279" type="line" smooth="yes"/>
      <point x="403" y="257"/>
      <point x="412" y="240"/>
      <point x="412" y="206" type="curve" smooth="yes"/>
      <point x="412" y="181"/>
      <point x="412" y="135"/>
      <point x="412" y="100" type="curve"/>
      <point x="470" y="100"/>
      <point x="543" y="162"/>
      <point x="543" y="217" type="curve"/>
      <point x="543" y="296"/>
      <point x="506" y="356"/>
    </contour>
    <contour>
      <point x="282" y="-19" type="curve" smooth="yes"/>
      <point x="445" y="-19"/>
      <point x="543" y="61"/>
      <point x="543" y="172" type="curve" smooth="yes"/>
      <point x="543" y="217" type="line" smooth="yes"/>
      <point x="543" y="234"/>
      <point x="487" y="253"/>
      <point x="412" y="253" type="curve"/>
      <point x="412" y="223"/>
      <point x="412" y="201"/>
      <point x="412" y="176" type="curve" smooth="yes"/>
      <point x="412" y="140"/>
      <point x="376" y="109"/>
      <point x="292" y="109" type="curve" smooth="yes"/>
      <point x="202" y="109"/>
      <point x="142" y="128"/>
      <point x="82" y="171" type="curve"/>
      <point x="63" y="171" type="line"/>
      <point x="63" y="145"/>
      <point x="63" y="97"/>
      <point x="63" y="46" type="curve" smooth="yes"/>
      <point x="63" y="44"/>
      <point x="64" y="40"/>
      <point x="66" y="38" type="curve" smooth="yes"/>
      <point x="102" y="2"/>
      <point x="186" y="-19"/>
    </contour>
    <contour>
      <point x="520" y="508" type="curve"/>
      <point x="520" y="654" type="line" smooth="yes"/>
      <point x="520" y="667"/>
      <point x="509" y="670"/>
      <point x="392" y="670" type="curve"/>
      <point x="392" y="658"/>
      <point x="392" y="641"/>
      <point x="392" y="623" type="curve" smooth="yes"/>
      <point x="392" y="519" type="line" smooth="yes"/>
      <point x="392" y="513"/>
      <point x="393" y="511"/>
      <point x="395" y="510" type="curve" smooth="yes"/>
      <point x="396" y="509"/>
      <point x="398" y="508"/>
      <point x="402" y="508" type="curve" smooth="yes"/>
      <point x="441" y="508"/>
      <point x="481" y="508"/>
    </contour>
    <contour>
      <point x="316" y="711" type="move" name="top"/>
    </contour>
    <contour>
      <point x="303" y="-1" type="move" name="bottom"/>
    </contour>
  </outline>
</glyph>
<glyph name="T" format="1">
  <advance width="600"/>
  <unicode hex="0054"/>
  <outline>
    <contour>
      <point x="52" y="700" type="line"/>
      <point x="52" y="662"/>
      <point x="52" y="623"/>
      <point x="52" y="585" type="curve" smooth="yes"/>
      <point x="52" y="582"/>
      <point x="53" y="579"/>
      <point x="55" y="577" type="curve" smooth="yes"/>
      <point x="57" y="575"/>
      <point x="60" y="574"/>
      <point x="63" y="574" type="curve" smooth="yes"/>
      <point x="548" y="574" type="line"/>
      <point x="548" y="612"/>
      <point x="548" y="651"/>
      <point x="548" y="689" type="curve" smooth="yes"/>
      <point x="548" y="695"/>
      <point x="543" y="700"/>
      <point x="537" y="700" type="curve" smooth="yes"/>
    </contour>
    <contour>
      <point x="371" y="0" type="curve"/>
      <point x="371" y="33"/>
      <point x="371" y="67"/>
      <point x="371" y="100" type="curve" smooth="yes"/>
      <point x="371" y="644" type="line" smooth="yes"/>
      <point x="371" y="650"/>
      <point x="366" y="655"/>
      <point x="229" y="655" type="curve"/>
      <point x="229" y="11" type="line" smooth="yes"/>
      <point x="229" y="8"/>
      <point x="230" y="5"/>
      <point x="232" y="3" type="curve" smooth="yes"/>
      <point x="234" y="1"/>
      <point x="237" y="0"/>
      <point x="240" y="0" type="curve" smooth="yes"/>
      <point x="284" y="0"/>
      <point x="327" y="0"/>
    </contour>
    <contour>
      <point x="300" y="711" type="move" name="top"/>
    </contour>
    <contour>
      <point x="300" y="-1" type="move" name="bottom"/>
    </contour>
  </outline>
</glyph>
<glyph name="V" format="1">
  <advance width="600"/>
  <unicode hex="0056"/>
  <outline>
    <contour>
      <point x="160" y="700" type="curve"/>
      <point x="35" y="700" type="line"/>
      <point x="86" y="471"/>
      <point x="139" y="241"/>
      <point x="190" y="13" type="curve" smooth="yes"/>
      <point x="193" y="3"/>
      <point x="201" y="-2"/>
      <point x="210" y="-2" type="curve" smooth="yes"/>
      <point x="245" y="-2" type="line" smooth="yes"/>
      <point x="288" y="-2"/>
      <point x="358" y="34"/>
      <point x="361" y="119" type="curve"/>
      <point x="336" y="119"/>
      <point x="323" y="119"/>
      <point x="303" y="119" type="curve" smooth="yes"/>
      <point x="297" y="119"/>
      <point x="295" y="120"/>
      <point x="293" y="129" type="curve"/>
      <point x="254" y="314"/>
      <point x="215" y="500"/>
      <point x="175" y="685" type="curve"/>
      <point x="173" y="695"/>
      <point x="168" y="700"/>
    </contour>
    <contour>
      <point x="549" y="700" type="curve"/>
      <point x="428" y="700" type="line"/>
      <point x="384" y="491"/>
      <point x="341" y="281"/>
      <point x="300" y="86" type="curve"/>
      <point x="288" y="27"/>
      <point x="256" y="8"/>
      <point x="229" y="-2" type="curve"/>
      <point x="408" y="-2" type="line"/>
      <point x="458" y="226"/>
      <point x="510" y="454"/>
      <point x="561" y="682" type="curve"/>
      <point x="563" y="692"/>
      <point x="559" y="700"/>
    </contour>
  </outline>
</glyph>
<glyph name="W" format="1">
  <advance width="600"/>
  <unicode hex="0057"/>
  <outline>
    <contour>
      <point x="27" y="700" type="curve"/>
      <point x="52" y="471"/>
      <point x="78" y="241"/>
      <point x="104" y="13" type="curve"/>
      <point x="105" y="3"/>
      <point x="114" y="-2"/>
      <point x="124" y="-2" type="curve"/>
      <point x="146" y="-2" type="line" smooth="yes"/>
      <point x="168" y="-2"/>
      <point x="189" y="17"/>
      <point x="198" y="32" type="curve"/>
      <point x="183" y="248"/>
      <point x="168" y="467"/>
      <point x="153" y="683" type="curve"/>
      <point x="152" y="693"/>
      <point x="151" y="695"/>
      <point x="149" y="697" type="curve" smooth="yes"/>
      <point x="148" y="699"/>
      <point x="145" y="700"/>
      <point x="141" y="700" type="curve"/>
      <point x="103" y="700"/>
      <point x="65" y="700"/>
    </contour>
    <contour>
      <point x="450" y="700" type="curve"/>
      <point x="436" y="496"/>
      <point x="422" y="290"/>
      <point x="409" y="86" type="curve"/>
      <point x="403" y="32"/>
      <point x="398" y="15"/>
      <point x="387" y="-2" type="curve"/>
      <point x="493" y="-2" type="line"/>
      <point x="519" y="228"/>
      <point x="546" y="458"/>
      <point x="572" y="687" type="curve"/>
      <point x="573" y="693"/>
      <point x="572" y="695"/>
      <point x="570" y="697" type="curve" smooth="yes"/>
      <point x="568" y="699"/>
      <point x="567" y="700"/>
      <point x="563" y="700" type="curve"/>
      <point x="525" y="700"/>
      <point x="488" y="700"/>
    </contour>
    <contour>
      <point x="315" y="576" type="curve"/>
      <point x="257" y="576" type="line"/>
      <point x="233" y="413"/>
      <point x="209" y="250"/>
      <point x="185" y="86" type="curve"/>
      <point x="171" y="27"/>
      <point x="152" y="11"/>
      <point x="124" y="-2" type="curve"/>
      <point x="245" y="-2" type="line"/>
      <point x="272" y="184"/>
      <point x="300" y="371"/>
      <point x="327" y="557" type="curve"/>
      <point x="329" y="568"/>
      <point x="325" y="576"/>
    </contour>
    <contour>
      <point x="337" y="576" type="curve"/>
      <point x="271" y="576" type="line"/>
      <point x="299" y="388"/>
      <point x="326" y="200"/>
      <point x="354" y="13" type="curve"/>
      <point x="356" y="3"/>
      <point x="364" y="-2"/>
      <point x="373" y="-2" type="curve"/>
      <point x="405" y="-2" type="line"/>
      <point x="416" y="-2"/>
      <point x="427" y="8"/>
      <point x="429" y="23" type="curve"/>
      <point x="402" y="203"/>
      <point x="375" y="385"/>
      <point x="348" y="565" type="curve"/>
      <point x="347" y="572"/>
      <point x="342" y="576"/>
    </contour>
    <contour>
      <point x="299" y="711" type="move" name="top"/>
    </contour>
  </outline>
</glyph>
<glyph name="X" format="1">
  <advance width="600"/>
  <unicode hex="0058"/>
  <outline>
    <contour>
      <point x="442" y="0" type="curve" smooth="yes"/>
      <point x="486" y="0"/>
      <point x="535" y="0"/>
      <point x="580" y="0" type="curve"/>
      <point x="510" y="127"/>
      <point x="440" y="255"/>
      <point x="371" y="380" type="curve" smooth="yes"/>
      <point x="358" y="404"/>
      <point x="333" y="415"/>
      <point x="321" y="435" type="curve" smooth="yes"/>
      <point x="275" y="519"/>
      <point x="228" y="605"/>
      <point x="182" y="689" type="curve" smooth="yes"/>
      <point x="177" y="696"/>
      <point x="171" y="700"/>
      <point x="162" y="700" type="curve" smooth="yes"/>
      <point x="23" y="700" type="line"/>
      <point x="92" y="575"/>
      <point x="162" y="449"/>
      <point x="230" y="324" type="curve" smooth="yes"/>
      <point x="242" y="303"/>
      <point x="272" y="288"/>
      <point x="283" y="266" type="curve" smooth="yes"/>
      <point x="329" y="182"/>
      <point x="375" y="96"/>
      <point x="422" y="11" type="curve" smooth="yes"/>
      <point x="426" y="3"/>
      <point x="434" y="0"/>
    </contour>
    <contour>
      <point x="561" y="700" type="curve"/>
      <point x="431" y="700" type="line"/>
      <point x="375" y="594"/>
      <point x="318" y="488"/>
      <point x="262" y="381" type="curve"/>
      <point x="253" y="364"/>
      <point x="261" y="351"/>
      <point x="355" y="309" type="curve"/>
      <point x="427" y="433"/>
      <point x="499" y="557"/>
      <point x="570" y="681" type="curve"/>
      <point x="574" y="687"/>
      <point x="574" y="693"/>
      <point x="571" y="696" type="curve" smooth="yes"/>
      <point x="569" y="699"/>
      <point x="565" y="700"/>
    </contour>
    <contour>
      <point x="37" y="0" type="curve" smooth="yes"/>
      <point x="169" y="0" type="line"/>
      <point x="225" y="107"/>
      <point x="281" y="213"/>
      <point x="337" y="320" type="curve"/>
      <point x="346" y="335"/>
      <point x="335" y="350"/>
      <point x="243" y="391" type="curve"/>
      <point x="171" y="267"/>
      <point x="99" y="143"/>
      <point x="28" y="19" type="curve"/>
      <point x="25" y="13"/>
      <point x="24" y="7"/>
      <point x="28" y="3" type="curve" smooth="yes"/>
      <point x="30" y="1"/>
      <point x="33" y="0"/>
    </contour>
  </outline>
</glyph>
<glyph name="Y" format="1">
  <advance width="600"/>
  <unicode hex="0059"/>
  <outline>
    <contour>
      <point x="19" y="700" type="line"/>
      <point x="91" y="549"/>
      <point x="166" y="398"/>
      <point x="236" y="246" type="curve"/>
      <point x="240" y="237"/>
      <point x="247" y="234"/>
      <point x="256" y="234" type="curve"/>
      <point x="312" y="234"/>
      <point x="339" y="301"/>
      <point x="324" y="333" type="curve"/>
      <point x="274" y="450"/>
      <point x="224" y="567"/>
      <point x="174" y="684" type="curve"/>
      <point x="171" y="694"/>
      <point x="167" y="700"/>
      <point x="157" y="700" type="curve" smooth="yes"/>
    </contour>
    <contour>
      <point x="432" y="700" type="line"/>
      <point x="382" y="577"/>
      <point x="333" y="455"/>
      <point x="283" y="332" type="curve"/>
      <point x="261" y="278"/>
      <point x="264" y="255"/>
      <point x="256" y="234" type="curve"/>
      <point x="357" y="234" type="line"/>
      <point x="429" y="383"/>
      <point x="502" y="533"/>
      <point x="574" y="682" type="curve"/>
      <point x="577" y="692"/>
      <point x="572" y="700"/>
      <point x="562" y="700" type="curve"/>
    </contour>
    <contour>
      <point x="371" y="0" type="curve"/>
      <point x="371" y="33"/>
      <point x="371" y="67"/>
      <point x="371" y="100" type="curve" smooth="yes"/>
      <point x="371" y="292" type="line" smooth="yes"/>
      <point x="371" y="298"/>
      <point x="366" y="303"/>
      <point x="229" y="303" type="curve"/>
      <point x="229" y="11" type="line" smooth="yes"/>
      <point x="229" y="8"/>
      <point x="230" y="5"/>
      <point x="232" y="3" type="curve" smooth="yes"/>
      <point x="234" y="1"/>
      <point x="237" y="0"/>
      <point x="240" y="0" type="curve" smooth="yes"/>
      <point x="284" y="0"/>
      <point x="327" y="0"/>
    </contour>
    <contour>
      <point x="300" y="711" type="move" name="top"/>
    </contour>
  </outline>
</glyph>
<glyph name="Z" format="1">
  <advance width="600"/>
  <unicode hex="005A"/>
  <outline>
    <contour>
      <point x="98" y="700" type="line"/>
      <point x="98" y="660"/>
      <point x="98" y="626"/>
      <point x="98" y="585" type="curve" smooth="yes"/>
      <point x="98" y="582"/>
      <point x="99" y="579"/>
      <point x="101" y="577" type="curve" smooth="yes"/>
      <point x="103" y="575"/>
      <point x="106" y="574"/>
      <point x="109" y="574" type="curve" smooth="yes"/>
      <point x="385" y="574" type="line" smooth="yes"/>
      <point x="428" y="574"/>
      <point x="489" y="577"/>
      <point x="534" y="585" type="curve" smooth="yes"/>
      <point x="539" y="586"/>
      <point x="545" y="587"/>
      <point x="548" y="588" type="curve"/>
      <point x="548" y="689" type="line" smooth="yes"/>
      <point x="548" y="695"/>
      <point x="543" y="700"/>
      <point x="537" y="700" type="curve" smooth="yes"/>
    </contour>
    <contour>
      <point x="409" y="619" type="curve"/>
      <point x="291" y="451"/>
      <point x="171" y="280"/>
      <point x="52" y="112" type="curve"/>
      <point x="173" y="72"/>
      <point x="185" y="76"/>
      <point x="192" y="86" type="curve" smooth="yes"/>
      <point x="394" y="366"/>
      <point x="548" y="586"/>
      <point x="548" y="588" type="curve"/>
      <point x="432" y="630"/>
      <point x="418" y="631"/>
    </contour>
    <contour>
      <point x="552" y="0" type="line"/>
      <point x="552" y="40"/>
      <point x="552" y="74"/>
      <point x="552" y="115" type="curve" smooth="yes"/>
      <point x="552" y="118"/>
      <point x="551" y="121"/>
      <point x="549" y="123" type="curve" smooth="yes"/>
      <point x="547" y="125"/>
      <point x="544" y="126"/>
      <point x="541" y="126" type="curve" smooth="yes"/>
      <point x="219" y="126" type="line" smooth="yes"/>
      <point x="169" y="126"/>
      <point x="101" y="125"/>
      <point x="52" y="112" type="curve"/>
      <point x="52" y="11" type="line" smooth="yes"/>
      <point x="52" y="5"/>
      <point x="57" y="0"/>
      <point x="63" y="0" type="curve" smooth="yes"/>
    </contour>
    <contour>
      <point x="188" y="509" type="curve"/>
      <point x="188" y="568"/>
      <point x="188" y="626"/>
      <point x="188" y="686" type="curve"/>
      <point x="188" y="696"/>
      <point x="184" y="700"/>
      <point x="174" y="700" type="curve" smooth="yes"/>
      <point x="55" y="700" type="line"/>
      <point x="55" y="639"/>
      <point x="55" y="580"/>
      <point x="55" y="520" type="curve"/>
      <point x="55" y="514"/>
      <point x="60" y="509"/>
      <point x="66" y="509" type="curve" smooth="yes"/>
      <point x="106" y="509"/>
      <point x="148" y="509"/>
    </contour>
    <contour>
      <point x="300" y="711" type="move" name="top"/>
    </contour>
  </outline>
</glyph>
<glyph name="bracketleft" format="1">
  <advance width="600"/>
  <unicode hex="005B"/>
  <outline>
    <contour>
      <point x="205" y="645" type="curve" smooth="yes"/>
      <point x="205" y="-10" type="line" smooth="yes"/>
      <point x="205" y="-20"/>
      <point x="236" y="-21"/>
      <point x="346" y="-21" type="curve"/>
      <point x="346" y="741" type="line" smooth="yes"/>
      <point x="346" y="747"/>
      <point x="338" y="752"/>
      <point x="311" y="752" type="curve" smooth="yes"/>
      <point x="269" y="752"/>
      <point x="247" y="752"/>
      <point x="205" y="752" type="curve"/>
      <point x="205" y="716"/>
      <point x="205" y="681"/>
    </contour>
    <contour>
      <point x="520" y="626" type="line"/>
      <point x="520" y="666"/>
      <point x="520" y="700"/>
      <point x="520" y="741" type="curve" smooth="yes"/>
      <point x="520" y="744"/>
      <point x="519" y="747"/>
      <point x="517" y="749" type="curve" smooth="yes"/>
      <point x="515" y="751"/>
      <point x="512" y="752"/>
      <point x="509" y="752" type="curve" smooth="yes"/>
      <point x="311" y="752" type="line"/>
      <point x="311" y="630"/>
      <point x="317" y="626"/>
      <point x="322" y="626" type="curve"/>
    </contour>
    <contour>
      <point x="520" y="-135" type="line"/>
      <point x="520" y="-95"/>
      <point x="520" y="-61"/>
      <point x="520" y="-20" type="curve" smooth="yes"/>
      <point x="520" y="-14"/>
      <point x="515" y="-9"/>
      <point x="509" y="-9" type="curve" smooth="yes"/>
      <point x="205" y="-9" type="line"/>
      <point x="205" y="-124" type="line" smooth="yes"/>
      <point x="205" y="-130"/>
      <point x="210" y="-135"/>
      <point x="216" y="-135" type="curve" smooth="yes"/>
    </contour>
  </outline>
</glyph>
<glyph name="backslash" format="1">
  <advance width="600"/>
  <unicode hex="005C"/>
  <outline>
    <contour>
      <point x="67" y="750" type="curve"/>
      <point x="179" y="461"/>
      <point x="290" y="170"/>
      <point x="402" y="-119" type="curve" smooth="yes"/>
      <point x="405" y="-127"/>
      <point x="411" y="-130"/>
      <point x="417" y="-130" type="curve" smooth="yes"/>
      <point x="461" y="-130"/>
      <point x="500" y="-130"/>
      <point x="545" y="-130" type="curve"/>
      <point x="530" y="-94"/>
      <point x="516" y="-57"/>
      <point x="502" y="-21" type="curve"/>
      <point x="404" y="233"/>
      <point x="305" y="489"/>
      <point x="207" y="743" type="curve"/>
      <point x="205" y="748"/>
      <point x="201" y="750"/>
      <point x="195" y="750" type="curve" smooth="yes"/>
      <point x="151" y="750"/>
      <point x="111" y="750"/>
    </contour>
  </outline>
</glyph>
<glyph name="bracketright" format="1">
  <advance width="600"/>
  <unicode hex="005D"/>
  <outline>
    <contour>
      <point x="395" y="-28" type="curve" smooth="yes"/>
      <point x="395" y="627" type="line" smooth="yes"/>
      <point x="395" y="637"/>
      <point x="364" y="638"/>
      <point x="254" y="638" type="curve"/>
      <point x="254" y="-124" type="line" smooth="yes"/>
      <point x="254" y="-130"/>
      <point x="262" y="-135"/>
      <point x="289" y="-135" type="curve" smooth="yes"/>
      <point x="331" y="-135"/>
      <point x="353" y="-135"/>
      <point x="395" y="-135" type="curve"/>
      <point x="395" y="-99"/>
      <point x="395" y="-64"/>
    </contour>
    <contour>
      <point x="80" y="-9" type="line"/>
      <point x="80" y="-49"/>
      <point x="80" y="-84"/>
      <point x="80" y="-124" type="curve" smooth="yes"/>
      <point x="80" y="-127"/>
      <point x="81" y="-130"/>
      <point x="83" y="-132" type="curve" smooth="yes"/>
      <point x="85" y="-134"/>
      <point x="88" y="-135"/>
      <point x="91" y="-135" type="curve" smooth="yes"/>
      <point x="289" y="-135" type="line"/>
      <point x="289" y="-13"/>
      <point x="283" y="-9"/>
      <point x="278" y="-9" type="curve"/>
    </contour>
    <contour>
      <point x="80" y="752" type="line"/>
      <point x="80" y="711"/>
      <point x="80" y="677"/>
      <point x="80" y="637" type="curve" smooth="yes"/>
      <point x="80" y="631"/>
      <point x="85" y="626"/>
      <point x="91" y="626" type="curve" smooth="yes"/>
      <point x="395" y="626" type="line"/>
      <point x="395" y="741" type="line" smooth="yes"/>
      <point x="395" y="747"/>
      <point x="390" y="752"/>
      <point x="384" y="752" type="curve" smooth="yes"/>
    </contour>
  </outline>
</glyph>
<glyph name="asciicircum" format="1">
  <advance width="600"/>
  <unicode hex="005E"/>
  <outline>
    <contour>
      <point x="165" y="359" type="line"/>
      <point x="218" y="476"/>
      <point x="249" y="545"/>
      <point x="301" y="662" type="curve"/>
      <point x="325" y="717"/>
      <point x="335" y="731"/>
      <point x="360" y="750" type="curve"/>
      <point x="205" y="750" type="line"/>
      <point x="142" y="610"/>
      <point x="62" y="434"/>
      <point x="41" y="390" type="curve" smooth="yes"/>
      <point x="35" y="375"/>
      <point x="34" y="371"/>
      <point x="34" y="367" type="curve" smooth="yes"/>
      <point x="34" y="361"/>
      <point x="38" y="359"/>
      <point x="44" y="359" type="curve"/>
    </contour>
    <contour>
      <point x="566" y="359" type="curve"/>
      <point x="503" y="502"/>
      <point x="464" y="594"/>
      <point x="401" y="736" type="curve" smooth="yes"/>
      <point x="398" y="746"/>
      <point x="390" y="750"/>
      <point x="381" y="750" type="curve" smooth="yes"/>
      <point x="351" y="750" type="line" smooth="yes"/>
      <point x="294" y="750"/>
      <point x="224" y="712"/>
      <point x="224" y="620" type="curve"/>
      <point x="258" y="620"/>
      <point x="282" y="620"/>
      <point x="302" y="620" type="curve" smooth="yes"/>
      <point x="312" y="620"/>
      <point x="316" y="618"/>
      <point x="320" y="609" type="curve" smooth="yes"/>
      <point x="362" y="514"/>
      <point x="383" y="465"/>
      <point x="426" y="371" type="curve" smooth="yes"/>
      <point x="430" y="360"/>
      <point x="433" y="359"/>
      <point x="443" y="359" type="curve" smooth="yes"/>
      <point x="486" y="359"/>
      <point x="524" y="359"/>
    </contour>
  </outline>
</glyph>
<glyph name="underscore" format="1">
  <advance width="600"/>
  <unicode hex="005F"/>
  <outline>
    <contour>
      <point x="54" y="-59" type="line"/>
      <point x="54" y="-99"/>
      <point x="54" y="-133"/>
      <point x="54" y="-174" type="curve" smooth="yes"/>
      <point x="54" y="-177"/>
      <point x="55" y="-180"/>
      <point x="57" y="-182" type="curve" smooth="yes"/>
      <point x="59" y="-184"/>
      <point x="62" y="-185"/>
      <point x="65" y="-185" type="curve"/>
      <point x="546" y="-185" type="line"/>
      <point x="546" y="-144"/>
      <point x="546" y="-110"/>
      <point x="546" y="-70" type="curve" smooth="yes"/>
      <point x="546" y="-64"/>
      <point x="541" y="-59"/>
      <point x="535" y="-59" type="curve"/>
    </contour>
  </outline>
</glyph>
<glyph name="grave" format="1">
  <advance width="600"/>
  <unicode hex="0060"/>
  <outline>
    <contour>
      <point x="417" y="405" type="curve"/>
      <point x="390" y="515"/>
      <point x="368" y="603"/>
      <point x="341" y="713" type="curve"/>
      <point x="265" y="713"/>
      <point x="227" y="713"/>
      <point x="162" y="713" type="curve" smooth="yes"/>
      <point x="154" y="713"/>
      <point x="149" y="706"/>
      <point x="153" y="698" type="curve" smooth="yes"/>
      <point x="195" y="612"/>
      <point x="241" y="518"/>
      <point x="290" y="415" type="curve" smooth="yes"/>
      <point x="293" y="409"/>
      <point x="298" y="405"/>
      <point x="308" y="405" type="curve" smooth="yes"/>
      <point x="361" y="405"/>
      <point x="383" y="405"/>
    </contour>
  </outline>
</glyph>
<glyph name="a" format="1">
  <advance width="600"/>
  <unicode hex="0061"/>
  <outline>
    <contour>
      <point x="259" y="548" type="curve" smooth="yes"/>
      <point x="194" y="548"/>
      <point x="102" y="533"/>
      <point x="88" y="519" type="curve" smooth="yes"/>
      <point x="86" y="517"/>
      <point x="85" y="515"/>
      <point x="85" y="511" type="curve" smooth="yes"/>
      <point x="85" y="475"/>
      <point x="85" y="438"/>
      <point x="85" y="402" type="curve"/>
      <point x="104" y="402" type="line"/>
      <point x="158" y="416"/>
      <point x="206" y="423"/>
      <point x="269" y="423" type="curve" smooth="yes"/>
      <point x="345" y="423"/>
      <point x="372" y="403"/>
      <point x="372" y="338" type="curve"/>
      <point x="492" y="306"/>
      <point x="509" y="307"/>
      <point x="509" y="326" type="curve"/>
      <point x="509" y="485"/>
      <point x="437" y="548"/>
    </contour>
    <contour>
      <point x="368" y="437" type="curve"/>
      <point x="371" y="410"/>
      <point x="372" y="386"/>
      <point x="372" y="353" type="curve" smooth="yes"/>
      <point x="372" y="272"/>
      <point x="372" y="211"/>
      <point x="372" y="117" type="curve" smooth="yes"/>
      <point x="372" y="71"/>
      <point x="441" y="29"/>
      <point x="514" y="32" type="curve"/>
      <point x="510" y="59"/>
      <point x="509" y="82"/>
      <point x="509" y="118" type="curve" smooth="yes"/>
      <point x="509" y="192"/>
      <point x="509" y="226"/>
      <point x="509" y="326" type="curve" smooth="yes"/>
      <point x="509" y="395"/>
      <point x="481" y="438"/>
    </contour>
    <contour>
      <point x="567" y="116" type="line"/>
      <point x="549" y="116" type="line"/>
      <point x="545" y="116"/>
      <point x="543" y="116"/>
      <point x="538" y="116" type="curve" smooth="yes"/>
      <point x="520" y="116"/>
      <point x="510" y="128"/>
      <point x="509" y="154" type="curve"/>
      <point x="383" y="152"/>
      <point x="372" y="134"/>
      <point x="372" y="117" type="curve" smooth="yes"/>
      <point x="372" y="48"/>
      <point x="429" y="-10"/>
      <point x="523" y="-10" type="curve" smooth="yes"/>
      <point x="556" y="-10" type="line" smooth="yes"/>
      <point x="563" y="-10"/>
      <point x="567" y="-6"/>
      <point x="567" y="1" type="curve"/>
    </contour>
    <contour>
      <point x="189" y="151" type="curve" smooth="yes"/>
      <point x="189" y="174" type="line" smooth="yes"/>
      <point x="189" y="208"/>
      <point x="190" y="232"/>
      <point x="195" y="257" type="curve"/>
      <point x="119" y="259"/>
      <point x="56" y="222"/>
      <point x="56" y="168" type="curve" smooth="yes"/>
      <point x="56" y="133" type="line" smooth="yes"/>
      <point x="56" y="48"/>
      <point x="114" y="-10"/>
      <point x="209" y="-10" type="curve" smooth="yes"/>
      <point x="283" y="-10"/>
      <point x="352" y="26"/>
      <point x="401" y="96" type="curve" smooth="yes"/>
      <point x="409" y="107"/>
      <point x="410" y="128"/>
      <point x="403" y="181" type="curve"/>
      <point x="353" y="128"/>
      <point x="307" y="110"/>
      <point x="238" y="110" type="curve" smooth="yes"/>
      <point x="234" y="110" type="line" smooth="yes"/>
      <point x="201" y="110"/>
      <point x="189" y="127"/>
    </contour>
    <contour>
      <point x="395" y="284" type="curve" smooth="yes"/>
      <point x="376" y="300"/>
      <point x="305" y="314"/>
      <point x="213" y="314" type="curve" smooth="yes"/>
      <point x="124" y="314"/>
      <point x="58" y="251"/>
      <point x="56" y="168" type="curve" smooth="yes"/>
      <point x="56" y="165"/>
      <point x="74" y="160"/>
      <point x="189" y="174" type="curve"/>
      <point x="189" y="199"/>
      <point x="204" y="220"/>
      <point x="239" y="220" type="curve" smooth="yes"/>
      <point x="297" y="220"/>
      <point x="379" y="218"/>
      <point x="419" y="216" type="curve"/>
      <point x="419" y="243"/>
      <point x="412" y="269"/>
    </contour>
    <contour>
      <point x="296" y="549" type="move" name="top"/>
    </contour>
    <contour>
      <point x="568" y="1" type="move" name="ogonek"/>
    </contour>
    <contour>
      <point x="298" y="-1" type="move" name="bottom"/>
    </contour>
  </outline>
</glyph>
<glyph name="b" format="1">
  <advance width="600"/>
  <unicode hex="0062"/>
  <outline>
    <contour>
      <point x="77" y="0" type="line"/>
      <point x="99" y="0"/>
      <point x="122" y="0"/>
      <point x="144" y="0" type="curve" smooth="yes"/>
      <point x="159" y="0"/>
      <point x="214" y="84"/>
      <point x="214" y="107" type="curve" smooth="yes"/>
      <point x="214" y="739" type="line"/>
      <point x="214" y="745"/>
      <point x="209" y="750"/>
      <point x="203" y="750" type="curve" smooth="yes"/>
      <point x="161" y="750"/>
      <point x="119" y="750"/>
      <point x="77" y="750" type="curve"/>
      <point x="77" y="704"/>
      <point x="77" y="657"/>
      <point x="77" y="611" type="curve" smooth="yes"/>
    </contour>
    <contour>
      <point x="382" y="549" type="curve" smooth="yes"/>
      <point x="323" y="549"/>
      <point x="264" y="526"/>
      <point x="212" y="474" type="curve" smooth="yes"/>
      <point x="163" y="425"/>
      <point x="153" y="380"/>
      <point x="170" y="347" type="curve"/>
      <point x="237" y="399"/>
      <point x="283" y="417"/>
      <point x="338" y="417" type="curve" smooth="yes"/>
      <point x="380" y="417"/>
      <point x="405" y="393"/>
      <point x="405" y="339" type="curve"/>
      <point x="471" y="339"/>
      <point x="542" y="350"/>
      <point x="542" y="360" type="curve" smooth="yes"/>
      <point x="542" y="474"/>
      <point x="478" y="549"/>
    </contour>
    <contour>
      <point x="350" y="-10" type="curve" smooth="yes"/>
      <point x="472" y="-10"/>
      <point x="542" y="75"/>
      <point x="542" y="223" type="curve" smooth="yes"/>
      <point x="542" y="360" type="line" smooth="yes"/>
      <point x="542" y="424"/>
      <point x="486" y="477"/>
      <point x="417" y="477" type="curve"/>
      <point x="388" y="477"/>
      <point x="371" y="465"/>
      <point x="371" y="444" type="curve"/>
      <point x="394" y="413"/>
      <point x="405" y="394"/>
      <point x="405" y="339" type="curve" smooth="yes"/>
      <point x="405" y="210" type="line" smooth="yes"/>
      <point x="405" y="149"/>
      <point x="377" y="118"/>
      <point x="328" y="118" type="curve" smooth="yes"/>
      <point x="281" y="118"/>
      <point x="229" y="138"/>
      <point x="182" y="187" type="curve"/>
      <point x="178" y="179"/>
      <point x="166" y="143"/>
      <point x="168" y="128" type="curve" smooth="yes"/>
      <point x="175" y="53"/>
      <point x="258" y="-10"/>
    </contour>
  </outline>
</glyph>
<glyph name="d" format="1">
  <advance width="600"/>
  <unicode hex="0064"/>
  <outline>
    <contour>
      <point x="242" y="549" type="curve" smooth="yes"/>
      <point x="128" y="549"/>
      <point x="58" y="469"/>
      <point x="58" y="332" type="curve" smooth="yes"/>
      <point x="58" y="179" type="line" smooth="yes"/>
      <point x="58" y="118"/>
      <point x="114" y="65"/>
      <point x="184" y="65" type="curve" smooth="yes"/>
      <point x="213" y="65"/>
      <point x="229" y="76"/>
      <point x="229" y="98" type="curve"/>
      <point x="209" y="125"/>
      <point x="195" y="140"/>
      <point x="195" y="184" type="curve" smooth="yes"/>
      <point x="195" y="330" type="line" smooth="yes"/>
      <point x="195" y="389"/>
      <point x="222" y="421"/>
      <point x="275" y="421" type="curve" smooth="yes"/>
      <point x="319" y="421"/>
      <point x="363" y="401"/>
      <point x="406" y="359" type="curve"/>
      <point x="419" y="369"/>
      <point x="421" y="403"/>
      <point x="419" y="419" type="curve" smooth="yes"/>
      <point x="415" y="478"/>
      <point x="335" y="549"/>
    </contour>
    <contour>
      <point x="214" y="-10" type="curve" smooth="yes"/>
      <point x="279" y="-10"/>
      <point x="337" y="19"/>
      <point x="387" y="81" type="curve" smooth="yes"/>
      <point x="430" y="133"/>
      <point x="434" y="179"/>
      <point x="417" y="208" type="curve"/>
      <point x="347" y="142"/>
      <point x="305" y="117"/>
      <point x="256" y="117" type="curve" smooth="yes"/>
      <point x="216" y="117"/>
      <point x="195" y="137"/>
      <point x="195" y="184" type="curve"/>
      <point x="125" y="209"/>
      <point x="58" y="182"/>
      <point x="58" y="179" type="curve" smooth="yes"/>
      <point x="58" y="65"/>
      <point x="123" y="-10"/>
    </contour>
    <contour>
      <point x="386" y="750" type="curve"/>
      <point x="386" y="717"/>
      <point x="386" y="683"/>
      <point x="386" y="650" type="curve" smooth="yes"/>
      <point x="386" y="11" type="line"/>
      <point x="386" y="8"/>
      <point x="387" y="5"/>
      <point x="389" y="3" type="curve" smooth="yes"/>
      <point x="391" y="1"/>
      <point x="394" y="0"/>
      <point x="397" y="0" type="curve" smooth="yes"/>
      <point x="439" y="0"/>
      <point x="481" y="0"/>
      <point x="523" y="0" type="curve"/>
      <point x="523" y="45"/>
      <point x="523" y="92"/>
      <point x="523" y="141" type="curve" smooth="yes"/>
      <point x="523" y="739" type="line"/>
      <point x="523" y="742"/>
      <point x="522" y="745"/>
      <point x="520" y="747" type="curve" smooth="yes"/>
      <point x="518" y="749"/>
      <point x="515" y="750"/>
      <point x="512" y="750" type="curve" smooth="yes"/>
      <point x="470" y="750"/>
      <point x="428" y="750"/>
    </contour>
    <contour>
      <point x="466" y="711" type="move" name="caronslovak"/>
    </contour>
  </outline>
</glyph>
<glyph name="e" format="1">
  <advance width="600"/>
  <unicode hex="0065"/>
  <outline>
    <contour>
      <point x="305" y="429" type="curve" smooth="yes"/>
      <point x="368" y="429"/>
      <point x="394" y="411"/>
      <point x="428" y="354" type="curve"/>
      <point x="451" y="375"/>
      <point x="467" y="405"/>
      <point x="467" y="440" type="curve"/>
      <point x="467" y="502"/>
      <point x="384" y="549"/>
      <point x="305" y="549" type="curve"/>
      <point x="159" y="549"/>
      <point x="68" y="459"/>
      <point x="68" y="321" type="curve" smooth="yes"/>
      <point x="68" y="220" type="line" smooth="yes"/>
      <point x="68" y="71"/>
      <point x="162" y="-12"/>
      <point x="320" y="-12" type="curve" smooth="yes"/>
      <point x="347" y="-12"/>
      <point x="360" y="12"/>
      <point x="331" y="117" type="curve"/>
      <point x="250" y="117"/>
      <point x="201" y="141"/>
      <point x="201" y="219" type="curve" smooth="yes"/>
      <point x="201" y="327" type="line" smooth="yes"/>
      <point x="201" y="399"/>
      <point x="230" y="429"/>
    </contour>
    <contour>
      <point x="509" y="23" type="curve" smooth="yes"/>
      <point x="513" y="25"/>
      <point x="514" y="28"/>
      <point x="514" y="31" type="curve" smooth="yes"/>
      <point x="514" y="68"/>
      <point x="514" y="111"/>
      <point x="514" y="143" type="curve"/>
      <point x="495" y="143" type="line"/>
      <point x="449" y="126"/>
      <point x="404" y="117"/>
      <point x="331" y="117" type="curve" smooth="yes"/>
      <point x="256" y="117"/>
      <point x="230" y="123"/>
      <point x="186" y="143" type="curve"/>
      <point x="181" y="64"/>
      <point x="239" y="-12"/>
      <point x="320" y="-12" type="curve" smooth="yes"/>
      <point x="413" y="-12"/>
      <point x="489" y="11"/>
    </contour>
    <contour>
      <point x="516" y="231" type="line" smooth="yes"/>
      <point x="523" y="231"/>
      <point x="527" y="235"/>
      <point x="527" y="241" type="curve" smooth="yes"/>
      <point x="527" y="313" type="line" smooth="yes"/>
      <point x="527" y="484"/>
      <point x="439" y="549"/>
      <point x="305" y="549" type="curve" smooth="yes"/>
      <point x="292" y="549"/>
      <point x="286" y="535"/>
      <point x="305" y="429" type="curve"/>
      <point x="372" y="429"/>
      <point x="394" y="396"/>
      <point x="394" y="334" type="curve" smooth="yes"/>
      <point x="394" y="323" type="line" smooth="yes"/>
      <point x="394" y="322"/>
      <point x="394" y="322"/>
      <point x="393" y="322" type="curve" smooth="yes"/>
      <point x="252" y="322"/>
      <point x="206" y="322"/>
      <point x="109" y="322" type="curve"/>
      <point x="109" y="285"/>
      <point x="112" y="263"/>
      <point x="126" y="248" type="curve" smooth="yes"/>
      <point x="138" y="236"/>
      <point x="155" y="231"/>
      <point x="175" y="231" type="curve" smooth="yes"/>
    </contour>
    <contour>
      <point x="301" y="549" type="move" name="top"/>
    </contour>
    <contour>
      <point x="515" y="31" type="move" name="ogonek"/>
    </contour>
    <contour>
      <point x="300" y="-1" type="move" name="bottom"/>
    </contour>
  </outline>
</glyph>
<glyph name="g" format="1">
  <advance width="600"/>
  <unicode hex="0067"/>
  <outline>
    <contour>
      <point x="299" y="445" type="curve" smooth="yes"/>
      <point x="344" y="445"/>
      <point x="368" y="444"/>
      <point x="394" y="439" type="curve"/>
      <point x="399" y="489"/>
      <point x="381" y="548"/>
      <point x="290" y="548" type="curve" smooth="yes"/>
      <point x="160" y="548"/>
      <point x="64" y="482"/>
      <point x="64" y="372" type="curve" smooth="yes"/>
      <point x="64" y="349" type="line" smooth="yes"/>
      <point x="64" y="243"/>
      <point x="146" y="174"/>
      <point x="295" y="174" type="curve" smooth="yes"/>
      <point x="305" y="174"/>
      <point x="311" y="187"/>
      <point x="286" y="277" type="curve"/>
      <point x="229" y="277"/>
      <point x="197" y="299"/>
      <point x="197" y="346" type="curve" smooth="yes"/>
      <point x="197" y="374" type="line" smooth="yes"/>
      <point x="197" y="421"/>
      <point x="238" y="445"/>
    </contour>
    <contour>
      <point x="286" y="277" type="curve" smooth="yes"/>
      <point x="230" y="277"/>
      <point x="197" y="279"/>
      <point x="166" y="284" type="curve"/>
      <point x="164" y="224"/>
      <point x="180" y="174"/>
      <point x="295" y="174" type="curve" smooth="yes"/>
      <point x="425" y="174"/>
      <point x="521" y="239"/>
      <point x="521" y="350" type="curve" smooth="yes"/>
      <point x="521" y="373" type="line" smooth="yes"/>
      <point x="521" y="479"/>
      <point x="435" y="546"/>
      <point x="290" y="548" type="curve" smooth="yes"/>
      <point x="265" y="548"/>
      <point x="268" y="536"/>
      <point x="299" y="445" type="curve"/>
      <point x="361" y="445"/>
      <point x="388" y="421"/>
      <point x="388" y="376" type="curve" smooth="yes"/>
      <point x="388" y="348" type="line" smooth="yes"/>
      <point x="388" y="302"/>
      <point x="347" y="277"/>
    </contour>
    <contour>
      <point x="120" y="91" type="curve" smooth="yes"/>
      <point x="120" y="85" type="line" smooth="yes"/>
      <point x="120" y="23"/>
      <point x="172" y="-17"/>
      <point x="251" y="-17" type="curve" smooth="yes"/>
      <point x="369" y="-17" type="line" smooth="yes"/>
      <point x="418" y="-17"/>
      <point x="437" y="-34"/>
      <point x="437" y="-74" type="curve" smooth="yes"/>
      <point x="437" y="-96" type="line" smooth="yes"/>
      <point x="437" y="-138"/>
      <point x="396" y="-151"/>
      <point x="341" y="-151" type="curve"/>
      <point x="339" y="-239"/>
      <point x="349" y="-250"/>
      <point x="361" y="-250" type="curve" smooth="yes"/>
      <point x="482" y="-250"/>
      <point x="572" y="-209"/>
      <point x="572" y="-73" type="curve" smooth="yes"/>
      <point x="572" y="-57" type="line" smooth="yes"/>
      <point x="572" y="36"/>
      <point x="509" y="96"/>
      <point x="377" y="96" type="curve" smooth="yes"/>
      <point x="270" y="96" type="line" smooth="yes"/>
      <point x="254" y="96"/>
      <point x="248" y="101"/>
      <point x="248" y="117" type="curve" smooth="yes"/>
      <point x="248" y="129" type="line" smooth="yes"/>
      <point x="248" y="146"/>
      <point x="251" y="173"/>
      <point x="254" y="189" type="curve"/>
      <point x="254" y="192"/>
      <point x="253" y="202"/>
      <point x="250" y="204" type="curve" smooth="yes"/>
      <point x="167" y="204"/>
      <point x="120" y="142"/>
    </contour>
    <contour>
      <point x="459" y="-143" type="curve"/>
      <point x="428" y="-150"/>
      <point x="386" y="-151"/>
      <point x="341" y="-151" type="curve" smooth="yes"/>
      <point x="256" y="-151" type="line" smooth="yes"/>
      <point x="195" y="-151"/>
      <point x="175" y="-133"/>
      <point x="175" y="-89" type="curve" smooth="yes"/>
      <point x="175" y="-63" type="line" smooth="yes"/>
      <point x="175" y="-35"/>
      <point x="185" y="-14"/>
      <point x="219" y="4" type="curve"/>
      <point x="219" y="22"/>
      <point x="206" y="37"/>
      <point x="169" y="37" type="curve" smooth="yes"/>
      <point x="91" y="34"/>
      <point x="39" y="-29"/>
      <point x="39" y="-98" type="curve" smooth="yes"/>
      <point x="39" y="-112" type="line" smooth="yes"/>
      <point x="39" y="-200"/>
      <point x="113" y="-250"/>
      <point x="219" y="-250" type="curve" smooth="yes"/>
      <point x="361" y="-250" type="line" smooth="yes"/>
      <point x="415" y="-250"/>
      <point x="463" y="-218"/>
    </contour>
    <contour>
      <point x="438" y="485" type="curve" smooth="yes"/>
      <point x="506" y="502" type="line" smooth="yes"/>
      <point x="582" y="521"/>
      <point x="583" y="521"/>
      <point x="583" y="531" type="curve" smooth="yes"/>
      <point x="583" y="615" type="line" smooth="yes"/>
      <point x="583" y="621"/>
      <point x="578" y="626"/>
      <point x="572" y="626" type="curve" smooth="yes"/>
      <point x="527" y="626"/>
      <point x="467" y="626"/>
      <point x="422" y="626" type="curve"/>
      <point x="422" y="615"/>
      <point x="422" y="611"/>
      <point x="422" y="579" type="curve" smooth="yes"/>
      <point x="422" y="569"/>
      <point x="421" y="564"/>
      <point x="415" y="557" type="curve" smooth="yes"/>
      <point x="380" y="512" type="line"/>
      <point x="394" y="496"/>
      <point x="420" y="481"/>
    </contour>
  </outline>
</glyph>
<glyph name="h" format="1">
  <advance width="600"/>
  <unicode hex="0068"/>
  <outline>
    <contour>
      <point x="218" y="0" type="curve"/>
      <point x="218" y="739" type="line" smooth="yes"/>
      <point x="218" y="742"/>
      <point x="217" y="745"/>
      <point x="215" y="747" type="curve" smooth="yes"/>
      <point x="213" y="749"/>
      <point x="210" y="750"/>
      <point x="207" y="750" type="curve" smooth="yes"/>
      <point x="167" y="750"/>
      <point x="125" y="750"/>
      <point x="77" y="750" type="curve"/>
      <point x="77" y="724"/>
      <point x="77" y="690"/>
      <point x="77" y="652" type="curve" smooth="yes"/>
      <point x="77" y="11" type="line" smooth="yes"/>
      <point x="77" y="5"/>
      <point x="82" y="0"/>
      <point x="88" y="0" type="curve" smooth="yes"/>
      <point x="132" y="0"/>
      <point x="174" y="0"/>
    </contour>
    <contour>
      <point x="388" y="549" type="curve" smooth="yes"/>
      <point x="333" y="549"/>
      <point x="276" y="523"/>
      <point x="215" y="449" type="curve" smooth="yes"/>
      <point x="190" y="418"/>
      <point x="158" y="368"/>
      <point x="179" y="304" type="curve"/>
      <point x="250" y="383"/>
      <point x="293" y="409"/>
      <point x="341" y="409" type="curve" smooth="yes"/>
      <point x="368" y="409"/>
      <point x="383" y="393"/>
      <point x="383" y="360" type="curve"/>
      <point x="504" y="360"/>
      <point x="524" y="380"/>
      <point x="524" y="400" type="curve" smooth="yes"/>
      <point x="524" y="481"/>
      <point x="472" y="549"/>
    </contour>
    <contour>
      <point x="524" y="0" type="curve"/>
      <point x="524" y="29"/>
      <point x="524" y="63"/>
      <point x="524" y="98" type="curve" smooth="yes"/>
      <point x="524" y="400" type="line"/>
      <point x="524" y="445"/>
      <point x="439" y="462"/>
      <point x="381" y="424" type="curve"/>
      <point x="383" y="406"/>
      <point x="383" y="390"/>
      <point x="383" y="360" type="curve" smooth="yes"/>
      <point x="383" y="11" type="line" smooth="yes"/>
      <point x="383" y="5"/>
      <point x="388" y="0"/>
      <point x="394" y="0" type="curve" smooth="yes"/>
      <point x="438" y="0"/>
      <point x="480" y="0"/>
    </contour>
    <contour>
      <point x="140" y="730" type="move" name="top"/>
    </contour>
  </outline>
</glyph>
<glyph name="j" format="1">
  <advance width="600"/>
  <unicode hex="006A"/>
  <outline>
    <contour>
      <point x="72" y="538" type="curve"/>
      <point x="72" y="497"/>
      <point x="72" y="463"/>
      <point x="72" y="423" type="curve" smooth="yes"/>
      <point x="72" y="417"/>
      <point x="77" y="412"/>
      <point x="83" y="412" type="curve" smooth="yes"/>
      <point x="189" y="412"/>
      <point x="299" y="412"/>
      <point x="405" y="412" type="curve"/>
      <point x="405" y="466"/>
      <point x="386" y="538"/>
      <point x="341" y="538" type="curve" smooth="yes"/>
      <point x="253" y="538"/>
      <point x="160" y="538"/>
    </contour>
    <contour>
      <point x="445" y="-5" type="curve" smooth="yes"/>
      <point x="445" y="527" type="line" smooth="yes"/>
      <point x="445" y="530"/>
      <point x="444" y="533"/>
      <point x="442" y="535" type="curve" smooth="yes"/>
      <point x="440" y="537"/>
      <point x="437" y="538"/>
      <point x="434" y="538" type="curve" smooth="yes"/>
      <point x="312" y="538" type="line"/>
      <point x="312" y="16" type="line" smooth="yes"/>
      <point x="312" y="-71"/>
      <point x="298" y="-108"/>
      <point x="254" y="-153" type="curve"/>
      <point x="336" y="-207"/>
      <point x="445" y="-119"/>
    </contour>
    <contour>
      <point x="196" y="-118" type="curve" smooth="yes"/>
      <point x="141" y="-118"/>
      <point x="94" y="-110"/>
      <point x="45" y="-89" type="curve"/>
      <point x="27" y="-89" type="line"/>
      <point x="27" y="-129"/>
      <point x="27" y="-170"/>
      <point x="27" y="-210" type="curve" smooth="yes"/>
      <point x="27" y="-213"/>
      <point x="28" y="-216"/>
      <point x="30" y="-218" type="curve" smooth="yes"/>
      <point x="45" y="-233"/>
      <point x="115" y="-250"/>
      <point x="194" y="-250" type="curve" smooth="yes"/>
      <point x="361" y="-250"/>
      <point x="445" y="-166"/>
      <point x="445" y="-5" type="curve" smooth="yes"/>
      <point x="445" y="18"/>
      <point x="412" y="18"/>
      <point x="312" y="16" type="curve"/>
      <point x="312" y="-76"/>
      <point x="278" y="-118"/>
    </contour>
    <contour>
      <point x="452" y="654" type="curve"/>
      <point x="452" y="781" type="line" smooth="yes"/>
      <point x="452" y="787"/>
      <point x="447" y="792"/>
      <point x="441" y="792" type="curve" smooth="yes"/>
      <point x="390" y="792"/>
      <point x="339" y="792"/>
      <point x="289" y="792" type="curve"/>
      <point x="289" y="665" type="line" smooth="yes"/>
      <point x="289" y="659"/>
      <point x="294" y="654"/>
      <point x="300" y="654" type="curve" smooth="yes"/>
      <point x="350" y="654"/>
      <point x="401" y="654"/>
    </contour>
  </outline>
</glyph>
<glyph name="l" format="1">
  <advance width="600"/>
  <unicode hex="006C"/>
  <outline>
    <contour>
      <point x="82" y="750" type="curve"/>
      <point x="82" y="710"/>
      <point x="82" y="676"/>
      <point x="82" y="635" type="curve" smooth="yes"/>
      <point x="82" y="629"/>
      <point x="87" y="624"/>
      <point x="93" y="624" type="curve" smooth="yes"/>
      <point x="152" y="624"/>
      <point x="202" y="624"/>
      <point x="261" y="624" type="curve"/>
      <point x="261" y="728"/>
      <point x="257" y="750"/>
      <point x="247" y="750" type="curve" smooth="yes"/>
      <point x="187" y="750"/>
      <point x="142" y="750"/>
    </contour>
    <contour>
      <point x="377" y="747" type="curve" smooth="yes"/>
      <point x="375" y="749"/>
      <point x="372" y="750"/>
      <point x="369" y="750" type="curve" smooth="yes"/>
      <point x="247" y="750" type="line"/>
      <point x="247" y="85" type="line" smooth="yes"/>
      <point x="247" y="64"/>
      <point x="305" y="60"/>
      <point x="380" y="60" type="curve"/>
      <point x="380" y="739" type="line" smooth="yes"/>
      <point x="380" y="742"/>
      <point x="379" y="745"/>
    </contour>
    <contour>
      <point x="63" y="126" type="line"/>
      <point x="63" y="85"/>
      <point x="63" y="51"/>
      <point x="63" y="11" type="curve" smooth="yes"/>
      <point x="63" y="8"/>
      <point x="64" y="5"/>
      <point x="66" y="3" type="curve" smooth="yes"/>
      <point x="68" y="1"/>
      <point x="71" y="0"/>
      <point x="74" y="0" type="curve"/>
      <point x="538" y="0" type="line"/>
      <point x="538" y="40"/>
      <point x="538" y="74"/>
      <point x="538" y="115" type="curve" smooth="yes"/>
      <point x="538" y="121"/>
      <point x="533" y="126"/>
      <point x="527" y="126" type="curve"/>
    </contour>
    <contour>
      <point x="519" y="671" type="move" name="caronslovak"/>
    </contour>
    <contour>
      <point x="301" y="730" type="move" name="top"/>
    </contour>
    <contour>
      <point x="499" y="400" type="move" name="dot"/>
    </contour>
    <contour>
      <point x="301" y="-1" type="move" name="bottom"/>
    </contour>
  </outline>
</glyph>
<glyph name="m" format="1">
  <advance width="600"/>
  <unicode hex="006D"/>
  <outline>
    <contour>
      <point x="151" y="0" type="curve"/>
      <point x="151" y="455" type="line" smooth="yes"/>
      <point x="151" y="495"/>
      <point x="135" y="531"/>
      <point x="132" y="534" type="curve" smooth="yes"/>
      <point x="128" y="537"/>
      <point x="124" y="538"/>
      <point x="121" y="538" type="curve" smooth="yes"/>
      <point x="93" y="538"/>
      <point x="63" y="538"/>
      <point x="35" y="538" type="curve"/>
      <point x="35" y="508"/>
      <point x="35" y="473"/>
      <point x="35" y="438" type="curve" smooth="yes"/>
      <point x="35" y="11" type="line" smooth="yes"/>
      <point x="35" y="5"/>
      <point x="40" y="0"/>
      <point x="46" y="0" type="curve" smooth="yes"/>
      <point x="81" y="0"/>
      <point x="117" y="0"/>
    </contour>
    <contour>
      <point x="265" y="549" type="curve" smooth="yes"/>
      <point x="226" y="549"/>
      <point x="197" y="534"/>
      <point x="166" y="500" type="curve" smooth="yes"/>
      <point x="139" y="472"/>
      <point x="106" y="413"/>
      <point x="109" y="354" type="curve"/>
      <point x="145" y="396"/>
      <point x="184" y="409"/>
      <point x="216" y="409" type="curve" smooth="yes"/>
      <point x="235" y="409"/>
      <point x="246" y="401"/>
      <point x="246" y="375" type="curve"/>
      <point x="352" y="436"/>
      <point x="354" y="447"/>
      <point x="354" y="452" type="curve" smooth="yes"/>
      <point x="354" y="511"/>
      <point x="315" y="549"/>
    </contour>
    <contour>
      <point x="354" y="0" type="curve"/>
      <point x="354" y="452" type="line" smooth="yes"/>
      <point x="354" y="491"/>
      <point x="304" y="457"/>
      <point x="234" y="416" type="curve"/>
      <point x="242" y="405"/>
      <point x="246" y="400"/>
      <point x="246" y="375" type="curve" smooth="yes"/>
      <point x="246" y="11" type="line" smooth="yes"/>
      <point x="246" y="5"/>
      <point x="251" y="0"/>
      <point x="257" y="0" type="curve" smooth="yes"/>
      <point x="289" y="0"/>
      <point x="322" y="0"/>
    </contour>
    <contour>
      <point x="483" y="549" type="curve" smooth="yes"/>
      <point x="434" y="549"/>
      <point x="406" y="533"/>
      <point x="373" y="496" type="curve" smooth="yes"/>
      <point x="343" y="467"/>
      <point x="312" y="404"/>
      <point x="314" y="351" type="curve"/>
      <point x="354" y="395"/>
      <point x="388" y="409"/>
      <point x="419" y="409" type="curve" smooth="yes"/>
      <point x="437" y="409"/>
      <point x="449" y="401"/>
      <point x="449" y="374" type="curve"/>
      <point x="562" y="429"/>
      <point x="565" y="442"/>
      <point x="565" y="450" type="curve" smooth="yes"/>
      <point x="565" y="509"/>
      <point x="532" y="549"/>
    </contour>
    <contour>
      <point x="565" y="0" type="curve"/>
      <point x="565" y="34"/>
      <point x="565" y="67"/>
      <point x="565" y="100" type="curve" smooth="yes"/>
      <point x="565" y="450" type="line" smooth="yes"/>
      <point x="565" y="499"/>
      <point x="526" y="465"/>
      <point x="437" y="424" type="curve"/>
      <point x="444" y="411"/>
      <point x="449" y="404"/>
      <point x="449" y="374" type="curve" smooth="yes"/>
      <point x="449" y="11" type="line" smooth="yes"/>
      <point x="449" y="5"/>
      <point x="454" y="0"/>
      <point x="460" y="0" type="curve" smooth="yes"/>
      <point x="495" y="0"/>
      <point x="529" y="0"/>
    </contour>
  </outline>
</glyph>
<glyph name="n" format="1">
  <advance width="600"/>
  <unicode hex="006E"/>
  <outline>
    <contour>
      <point x="218" y="0" type="curve"/>
      <point x="218" y="527" type="line" smooth="yes"/>
      <point x="218" y="530"/>
      <point x="217" y="533"/>
      <point x="215" y="535" type="curve" smooth="yes"/>
      <point x="213" y="537"/>
      <point x="210" y="538"/>
      <point x="207" y="538" type="curve" smooth="yes"/>
      <point x="167" y="538"/>
      <point x="125" y="538"/>
      <point x="77" y="538" type="curve"/>
      <point x="77" y="512"/>
      <point x="77" y="477"/>
      <point x="77" y="439" type="curve" smooth="yes"/>
      <point x="77" y="11" type="line" smooth="yes"/>
      <point x="77" y="5"/>
      <point x="82" y="0"/>
      <point x="88" y="0" type="curve" smooth="yes"/>
      <point x="132" y="0"/>
      <point x="174" y="0"/>
    </contour>
    <contour>
      <point x="388" y="549" type="curve" smooth="yes"/>
      <point x="333" y="549"/>
      <point x="276" y="523"/>
      <point x="215" y="449" type="curve" smooth="yes"/>
      <point x="190" y="418"/>
      <point x="158" y="368"/>
      <point x="179" y="304" type="curve"/>
      <point x="250" y="383"/>
      <point x="293" y="409"/>
      <point x="340" y="409" type="curve" smooth="yes"/>
      <point x="368" y="409"/>
      <point x="383" y="393"/>
      <point x="383" y="361" type="curve"/>
      <point x="504" y="361"/>
      <point x="524" y="381"/>
      <point x="524" y="400" type="curve" smooth="yes"/>
      <point x="524" y="482"/>
      <point x="472" y="549"/>
    </contour>
    <contour>
      <point x="524" y="0" type="curve"/>
      <point x="524" y="29"/>
      <point x="524" y="63"/>
      <point x="524" y="98" type="curve" smooth="yes"/>
      <point x="524" y="400" type="line"/>
      <point x="524" y="445"/>
      <point x="439" y="462"/>
      <point x="381" y="424" type="curve"/>
      <point x="382" y="407"/>
      <point x="383" y="390"/>
      <point x="383" y="361" type="curve" smooth="yes"/>
      <point x="383" y="11" type="line" smooth="yes"/>
      <point x="383" y="5"/>
      <point x="388" y="0"/>
      <point x="394" y="0" type="curve" smooth="yes"/>
      <point x="438" y="0"/>
      <point x="480" y="0"/>
    </contour>
    <contour>
      <point x="90" y="678" type="move" name="caronslovak"/>
    </contour>
    <contour>
      <point x="300" y="549" type="move" name="top"/>
    </contour>
    <contour>
      <point x="300" y="-1" type="move" name="bottom"/>
    </contour>
  </outline>
</glyph>
<glyph name="p" format="1">
  <advance width="600"/>
  <unicode hex="0070"/>
  <outline>
    <contour>
      <point x="214" y="-203" type="curve"/>
      <point x="214" y="527" type="line" smooth="yes"/>
      <point x="214" y="530"/>
      <point x="213" y="533"/>
      <point x="211" y="535" type="curve" smooth="yes"/>
      <point x="209" y="537"/>
      <point x="206" y="538"/>
      <point x="203" y="538" type="curve"/>
      <point x="161" y="538"/>
      <point x="119" y="538"/>
      <point x="77" y="538" type="curve"/>
      <point x="77" y="508"/>
      <point x="77" y="474"/>
      <point x="77" y="437" type="curve" smooth="yes"/>
      <point x="77" y="-192" type="line" smooth="yes"/>
      <point x="77" y="-198"/>
      <point x="82" y="-203"/>
      <point x="88" y="-203" type="curve"/>
      <point x="130" y="-203"/>
      <point x="172" y="-203"/>
    </contour>
    <contour>
      <point x="382" y="549" type="curve" smooth="yes"/>
      <point x="324" y="549"/>
      <point x="265" y="524"/>
      <point x="213" y="469" type="curve" smooth="yes"/>
      <point x="169" y="423"/>
      <point x="162" y="376"/>
      <point x="178" y="346" type="curve"/>
      <point x="248" y="398"/>
      <point x="291" y="419"/>
      <point x="334" y="419" type="curve" smooth="yes"/>
      <point x="382" y="419"/>
      <point x="405" y="388"/>
      <point x="405" y="338" type="curve"/>
      <point x="470" y="339"/>
      <point x="542" y="347"/>
      <point x="542" y="358" type="curve" smooth="yes"/>
      <point x="542" y="473"/>
      <point x="479" y="549"/>
    </contour>
    <contour>
      <point x="358" y="-10" type="curve" smooth="yes"/>
      <point x="472" y="-10"/>
      <point x="542" y="72"/>
      <point x="542" y="213" type="curve" smooth="yes"/>
      <point x="542" y="358" type="line" smooth="yes"/>
      <point x="542" y="422"/>
      <point x="486" y="477"/>
      <point x="415" y="477" type="curve" smooth="yes"/>
      <point x="386" y="477"/>
      <point x="370" y="465"/>
      <point x="370" y="444" type="curve"/>
      <point x="393" y="412"/>
      <point x="405" y="391"/>
      <point x="405" y="338" type="curve" smooth="yes"/>
      <point x="405" y="210" type="line" smooth="yes"/>
      <point x="405" y="148"/>
      <point x="377" y="117"/>
      <point x="325" y="117" type="curve" smooth="yes"/>
      <point x="282" y="117"/>
      <point x="233" y="132"/>
      <point x="188" y="176" type="curve"/>
      <point x="175" y="166"/>
      <point x="173" y="133"/>
      <point x="174" y="117" type="curve" smooth="yes"/>
      <point x="179" y="58"/>
      <point x="263" y="-10"/>
    </contour>
  </outline>
</glyph>
<glyph name="q" format="1">
  <advance width="600"/>
  <unicode hex="0071"/>
  <outline>
    <contour>
      <point x="235" y="549" type="curve" smooth="yes"/>
      <point x="126" y="549"/>
      <point x="58" y="469"/>
      <point x="58" y="332" type="curve" smooth="yes"/>
      <point x="58" y="180" type="line" smooth="yes"/>
      <point x="58" y="117"/>
      <point x="114" y="63"/>
      <point x="184" y="63" type="curve" smooth="yes"/>
      <point x="213" y="63"/>
      <point x="229" y="75"/>
      <point x="229" y="96" type="curve"/>
      <point x="206" y="128"/>
      <point x="195" y="148"/>
      <point x="195" y="203" type="curve" smooth="yes"/>
      <point x="195" y="316" type="line" smooth="yes"/>
      <point x="195" y="379"/>
      <point x="222" y="413"/>
      <point x="275" y="413" type="curve" smooth="yes"/>
      <point x="320" y="413"/>
      <point x="364" y="378"/>
      <point x="396" y="330" type="curve"/>
      <point x="411" y="338"/>
      <point x="422" y="358"/>
      <point x="421" y="381" type="curve" smooth="yes"/>
      <point x="417" y="449"/>
      <point x="340" y="549"/>
    </contour>
    <contour>
      <point x="214" y="-10" type="curve" smooth="yes"/>
      <point x="279" y="-10"/>
      <point x="338" y="14"/>
      <point x="392" y="73" type="curve" smooth="yes"/>
      <point x="437" y="122"/>
      <point x="444" y="169"/>
      <point x="429" y="198" type="curve"/>
      <point x="357" y="145"/>
      <point x="307" y="122"/>
      <point x="264" y="122" type="curve" smooth="yes"/>
      <point x="216" y="122"/>
      <point x="195" y="155"/>
      <point x="195" y="203" type="curve"/>
      <point x="112" y="220"/>
      <point x="58" y="192"/>
      <point x="58" y="180" type="curve" smooth="yes"/>
      <point x="58" y="65"/>
      <point x="123" y="-10"/>
    </contour>
    <contour>
      <point x="523" y="-203" type="curve"/>
      <point x="523" y="438" type="line" smooth="yes"/>
      <point x="523" y="471"/>
      <point x="523" y="505"/>
      <point x="523" y="538" type="curve"/>
      <point x="481" y="538"/>
      <point x="439" y="538"/>
      <point x="397" y="538" type="curve" smooth="yes"/>
      <point x="394" y="538"/>
      <point x="391" y="537"/>
      <point x="389" y="535" type="curve" smooth="yes"/>
      <point x="387" y="533"/>
      <point x="386" y="530"/>
      <point x="386" y="527" type="curve" smooth="yes"/>
      <point x="386" y="-192" type="line" smooth="yes"/>
      <point x="386" y="-198"/>
      <point x="391" y="-203"/>
      <point x="397" y="-203" type="curve" smooth="yes"/>
      <point x="439" y="-203"/>
      <point x="481" y="-203"/>
    </contour>
  </outline>
</glyph>
<glyph name="r" format="1">
  <advance width="600"/>
  <unicode hex="0072"/>
  <outline>
    <contour>
      <point x="69" y="538" type="curve"/>
      <point x="69" y="497"/>
      <point x="69" y="463"/>
      <point x="69" y="423" type="curve" smooth="yes"/>
      <point x="69" y="417"/>
      <point x="74" y="412"/>
      <point x="80" y="412" type="curve" smooth="yes"/>
      <point x="133" y="412"/>
      <point x="207" y="412"/>
      <point x="260" y="412" type="curve"/>
      <point x="260" y="470"/>
      <point x="252" y="538"/>
      <point x="236" y="538" type="curve" smooth="yes"/>
      <point x="190" y="538"/>
      <point x="115" y="538"/>
    </contour>
    <contour>
      <point x="319" y="62" type="curve"/>
      <point x="319" y="401" type="line" smooth="yes"/>
      <point x="319" y="418"/>
      <point x="261" y="538"/>
      <point x="236" y="538" type="curve" smooth="yes"/>
      <point x="227" y="538"/>
      <point x="213" y="536"/>
      <point x="186" y="530" type="curve"/>
      <point x="186" y="73" type="line" smooth="yes"/>
      <point x="186" y="67"/>
      <point x="191" y="62"/>
    </contour>
    <contour>
      <point x="63" y="126" type="line"/>
      <point x="63" y="85"/>
      <point x="63" y="51"/>
      <point x="63" y="11" type="curve" smooth="yes"/>
      <point x="63" y="8"/>
      <point x="64" y="5"/>
      <point x="66" y="3" type="curve" smooth="yes"/>
      <point x="68" y="1"/>
      <point x="71" y="0"/>
      <point x="74" y="0" type="curve"/>
      <point x="490" y="0" type="line"/>
      <point x="490" y="40"/>
      <point x="490" y="74"/>
      <point x="490" y="115" type="curve" smooth="yes"/>
      <point x="490" y="121"/>
      <point x="485" y="126"/>
      <point x="479" y="126" type="curve"/>
    </contour>
    <contour>
      <point x="280" y="337" type="curve"/>
      <point x="348" y="393"/>
      <point x="395" y="407"/>
      <point x="451" y="407" type="curve" smooth="yes"/>
      <point x="480" y="407"/>
      <point x="509" y="404"/>
      <point x="539" y="397" type="curve"/>
      <point x="557" y="397" type="line"/>
      <point x="557" y="434"/>
      <point x="557" y="525"/>
      <point x="557" y="536" type="curve"/>
      <point x="557" y="543"/>
      <point x="553" y="547"/>
      <point x="546" y="547" type="curve" smooth="yes"/>
      <point x="489" y="547" type="line" smooth="yes"/>
      <point x="398" y="547"/>
      <point x="346" y="523"/>
      <point x="293" y="454" type="curve" smooth="yes"/>
      <point x="282" y="440"/>
      <point x="279" y="427"/>
    </contour>
    <contour>
      <point x="310" y="549" type="move" name="top"/>
    </contour>
    <contour>
      <point x="310" y="-1" type="move" name="bottom"/>
    </contour>
  </outline>
</glyph>
<glyph name="s" format="1">
  <advance width="600"/>
  <unicode hex="0073"/>
  <outline>
    <contour>
      <point x="337" y="546" type="curve" smooth="yes"/>
      <point x="319" y="546" type="line" smooth="yes"/>
      <point x="176" y="546"/>
      <point x="86" y="480"/>
      <point x="86" y="372" type="curve" smooth="yes"/>
      <point x="86" y="335"/>
      <point x="145" y="309"/>
      <point x="220" y="309" type="curve"/>
      <point x="220" y="323"/>
      <point x="220" y="358"/>
      <point x="220" y="375" type="curve" smooth="yes"/>
      <point x="220" y="403"/>
      <point x="250" y="418"/>
      <point x="323" y="418" type="curve" smooth="yes"/>
      <point x="384" y="418"/>
      <point x="422" y="412"/>
      <point x="477" y="394" type="curve"/>
      <point x="496" y="394" type="line"/>
      <point x="496" y="432"/>
      <point x="496" y="471"/>
      <point x="496" y="510" type="curve"/>
      <point x="496" y="514"/>
      <point x="495" y="517"/>
      <point x="493" y="519" type="curve" smooth="yes"/>
      <point x="483" y="530"/>
      <point x="422" y="546"/>
    </contour>
    <contour>
      <point x="369" y="315" type="curve" smooth="yes"/>
      <point x="281" y="328" type="line" smooth="yes"/>
      <point x="233" y="336"/>
      <point x="220" y="349"/>
      <point x="220" y="375" type="curve" smooth="yes"/>
      <point x="220" y="397"/>
      <point x="220" y="423"/>
      <point x="220" y="453" type="curve"/>
      <point x="143" y="453"/>
      <point x="86" y="418"/>
      <point x="86" y="372" type="curve"/>
      <point x="86" y="292"/>
      <point x="132" y="243"/>
      <point x="238" y="227" type="curve" smooth="yes"/>
      <point x="327" y="213" type="line" smooth="yes"/>
      <point x="387" y="203"/>
      <point x="400" y="187"/>
      <point x="400" y="164" type="curve" smooth="yes"/>
      <point x="400" y="143"/>
      <point x="400" y="116"/>
      <point x="400" y="91" type="curve"/>
      <point x="481" y="93"/>
      <point x="531" y="122"/>
      <point x="531" y="162" type="curve" smooth="yes"/>
      <point x="531" y="236"/>
      <point x="487" y="298"/>
    </contour>
    <contour>
      <point x="294" y="119" type="curve" smooth="yes"/>
      <point x="202" y="119"/>
      <point x="156" y="128"/>
      <point x="94" y="155" type="curve"/>
      <point x="75" y="155" type="line"/>
      <point x="75" y="121"/>
      <point x="75" y="81"/>
      <point x="75" y="35" type="curve" smooth="yes"/>
      <point x="75" y="32"/>
      <point x="75" y="30"/>
      <point x="77" y="28" type="curve" smooth="yes"/>
      <point x="91" y="15"/>
      <point x="186" y="-9"/>
      <point x="272" y="-9" type="curve" smooth="yes"/>
      <point x="291" y="-9" type="line" smooth="yes"/>
      <point x="444" y="-9"/>
      <point x="531" y="51"/>
      <point x="531" y="162" type="curve" smooth="yes"/>
      <point x="531" y="220"/>
      <point x="471" y="241"/>
      <point x="400" y="241" type="curve"/>
      <point x="400" y="211"/>
      <point x="400" y="186"/>
      <point x="400" y="164" type="curve" smooth="yes"/>
      <point x="400" y="139"/>
      <point x="377" y="119"/>
    </contour>
    <contour>
      <point x="303" y="549" type="move" name="top"/>
    </contour>
    <contour>
      <point x="304" y="-1" type="move" name="bottom"/>
    </contour>
  </outline>
</glyph>
<glyph name="t" format="1">
  <advance width="600"/>
  <unicode hex="0074"/>
  <outline>
    <contour>
      <point x="183" y="700" type="curve"/>
      <point x="183" y="214" type="line" smooth="yes"/>
      <point x="183" y="112"/>
      <point x="250" y="45"/>
      <point x="375" y="63" type="curve"/>
      <point x="330" y="109"/>
      <point x="316" y="153"/>
      <point x="316" y="226" type="curve" smooth="yes"/>
      <point x="316" y="689" type="line" smooth="yes"/>
      <point x="316" y="695"/>
      <point x="311" y="700"/>
      <point x="305" y="700" type="curve" smooth="yes"/>
      <point x="266" y="700"/>
      <point x="225" y="700"/>
    </contour>
    <contour>
      <point x="500" y="127" type="curve"/>
      <point x="482" y="127" type="line"/>
      <point x="446" y="127"/>
      <point x="453" y="127"/>
      <point x="409" y="127" type="curve" smooth="yes"/>
      <point x="342" y="127"/>
      <point x="316" y="148"/>
      <point x="316" y="226" type="curve"/>
      <point x="209" y="250"/>
      <point x="183" y="233"/>
      <point x="183" y="214" type="curve" smooth="yes"/>
      <point x="183" y="62"/>
      <point x="270" y="0"/>
      <point x="403" y="0" type="curve" smooth="yes"/>
      <point x="489" y="0" type="line" smooth="yes"/>
      <point x="492" y="0"/>
      <point x="495" y="1"/>
      <point x="497" y="3" type="curve" smooth="yes"/>
      <point x="499" y="5"/>
      <point x="500" y="8"/>
      <point x="500" y="11" type="curve" smooth="yes"/>
      <point x="500" y="51"/>
      <point x="500" y="86"/>
    </contour>
    <contour>
      <point x="63" y="538" type="line"/>
      <point x="63" y="497"/>
      <point x="63" y="465"/>
      <point x="63" y="425" type="curve" smooth="yes"/>
      <point x="63" y="422"/>
      <point x="64" y="419"/>
      <point x="66" y="417" type="curve" smooth="yes"/>
      <point x="68" y="415"/>
      <point x="71" y="414"/>
      <point x="74" y="414" type="curve" smooth="yes"/>
      <point x="500" y="414" type="line"/>
      <point x="500" y="454"/>
      <point x="500" y="486"/>
      <point x="500" y="527" type="curve" smooth="yes"/>
      <point x="500" y="533"/>
      <point x="495" y="538"/>
      <point x="489" y="538" type="curve" smooth="yes"/>
    </contour>
    <contour>
      <point x="451" y="700" type="move" name="caronslovak"/>
    </contour>
    <contour>
      <point x="371" y="-1" type="move" name="bottom"/>
    </contour>
  </outline>
</glyph>
<glyph name="u" format="1">
  <advance width="600"/>
  <unicode hex="0075"/>
  <outline>
    <contour>
      <point x="383" y="538" type="curve"/>
      <point x="383" y="11" type="line" smooth="yes"/>
      <point x="383" y="8"/>
      <point x="384" y="5"/>
      <point x="386" y="3" type="curve" smooth="yes"/>
      <point x="388" y="1"/>
      <point x="391" y="0"/>
      <point x="394" y="0" type="curve" smooth="yes"/>
      <point x="433" y="0"/>
      <point x="476" y="0"/>
      <point x="524" y="0" type="curve"/>
      <point x="524" y="26"/>
      <point x="524" y="60"/>
      <point x="524" y="98" type="curve" smooth="yes"/>
      <point x="524" y="527" type="line" smooth="yes"/>
      <point x="524" y="533"/>
      <point x="519" y="538"/>
      <point x="513" y="538" type="curve" smooth="yes"/>
      <point x="469" y="538"/>
      <point x="426" y="538"/>
    </contour>
    <contour>
      <point x="213" y="-12" type="curve" smooth="yes"/>
      <point x="268" y="-12"/>
      <point x="326" y="15"/>
      <point x="386" y="90" type="curve" smooth="yes"/>
      <point x="412" y="121"/>
      <point x="442" y="170"/>
      <point x="422" y="234" type="curve"/>
      <point x="351" y="155"/>
      <point x="308" y="129"/>
      <point x="260" y="129" type="curve" smooth="yes"/>
      <point x="232" y="129"/>
      <point x="218" y="144"/>
      <point x="218" y="178" type="curve"/>
      <point x="96" y="178"/>
      <point x="77" y="159"/>
      <point x="77" y="141" type="curve" smooth="yes"/>
      <point x="77" y="55"/>
      <point x="128" y="-12"/>
    </contour>
    <contour>
      <point x="77" y="538" type="curve"/>
      <point x="77" y="508"/>
      <point x="77" y="475"/>
      <point x="77" y="440" type="curve" smooth="yes"/>
      <point x="77" y="141" type="line"/>
      <point x="77" y="95"/>
      <point x="161" y="76"/>
      <point x="220" y="113" type="curve"/>
      <point x="218" y="131"/>
      <point x="218" y="148"/>
      <point x="218" y="178" type="curve" smooth="yes"/>
      <point x="218" y="527" type="line" smooth="yes"/>
      <point x="218" y="533"/>
      <point x="213" y="538"/>
      <point x="207" y="538" type="curve" smooth="yes"/>
      <point x="163" y="538"/>
      <point x="120" y="538"/>
    </contour>
    <contour>
      <point x="300" y="549" type="move" name="top"/>
    </contour>
    <contour>
      <point x="525" y="0" type="move" name="ogonek"/>
    </contour>
    <contour>
      <point x="293" y="-1" type="move" name="bottom"/>
    </contour>
  </outline>
</glyph>
<glyph name="v" format="1">
  <advance width="600"/>
  <unicode hex="0076"/>
  <outline>
    <contour>
      <point x="543" y="538" type="curve" smooth="yes"/>
      <point x="420" y="538" type="line"/>
      <point x="382" y="387"/>
      <point x="340" y="239"/>
      <point x="298" y="88" type="curve"/>
      <point x="283" y="29"/>
      <point x="269" y="14"/>
      <point x="240" y="0" type="curve"/>
      <point x="396" y="0" type="line"/>
      <point x="449" y="173"/>
      <point x="503" y="346"/>
      <point x="555" y="520" type="curve"/>
      <point x="558" y="529"/>
      <point x="553" y="538"/>
    </contour>
    <contour>
      <point x="169" y="538" type="curve" smooth="yes"/>
      <point x="40" y="538" type="line"/>
      <point x="93" y="363"/>
      <point x="146" y="189"/>
      <point x="199" y="14" type="curve"/>
      <point x="202" y="5"/>
      <point x="210" y="0"/>
      <point x="219" y="0" type="curve" smooth="yes"/>
      <point x="247" y="0" type="line" smooth="yes"/>
      <point x="299" y="0"/>
      <point x="388" y="27"/>
      <point x="389" y="129" type="curve"/>
      <point x="355" y="129"/>
      <point x="330" y="129"/>
      <point x="304" y="129" type="curve" smooth="yes"/>
      <point x="297" y="129"/>
      <point x="294" y="133"/>
      <point x="292" y="140" type="curve"/>
      <point x="256" y="268"/>
      <point x="221" y="395"/>
      <point x="185" y="522" type="curve"/>
      <point x="182" y="532"/>
      <point x="177" y="538"/>
    </contour>
  </outline>
</glyph>
<glyph name="w" format="1">
  <advance width="600"/>
  <unicode hex="0077"/>
  <outline>
    <contour>
      <point x="30" y="538" type="curve"/>
      <point x="54" y="363"/>
      <point x="80" y="189"/>
      <point x="104" y="14" type="curve" smooth="yes"/>
      <point x="105" y="5"/>
      <point x="114" y="0"/>
      <point x="124" y="0" type="curve" smooth="yes"/>
      <point x="152" y="0" type="line" smooth="yes"/>
      <point x="168" y="0"/>
      <point x="188" y="15"/>
      <point x="197" y="33" type="curve" smooth="yes"/>
      <point x="183" y="196"/>
      <point x="170" y="358"/>
      <point x="156" y="521" type="curve"/>
      <point x="155" y="530"/>
      <point x="154" y="533"/>
      <point x="152" y="535" type="curve" smooth="yes"/>
      <point x="150" y="537"/>
      <point x="147" y="538"/>
      <point x="144" y="538" type="curve"/>
      <point x="104" y="538"/>
      <point x="66" y="538"/>
    </contour>
    <contour>
      <point x="308" y="422" type="curve" smooth="yes"/>
      <point x="257" y="422" type="line"/>
      <point x="233" y="311"/>
      <point x="209" y="200"/>
      <point x="185" y="88" type="curve"/>
      <point x="172" y="30"/>
      <point x="163" y="13"/>
      <point x="142" y="0" type="curve"/>
      <point x="238" y="0" type="line"/>
      <point x="265" y="134"/>
      <point x="293" y="269"/>
      <point x="320" y="403" type="curve" smooth="yes"/>
      <point x="322" y="414"/>
      <point x="318" y="422"/>
    </contour>
    <contour>
      <point x="336" y="422" type="curve" smooth="yes"/>
      <point x="278" y="422" type="line"/>
      <point x="305" y="287"/>
      <point x="332" y="150"/>
      <point x="360" y="14" type="curve" smooth="yes"/>
      <point x="362" y="5"/>
      <point x="371" y="0"/>
      <point x="380" y="0" type="curve" smooth="yes"/>
      <point x="405" y="0" type="line" smooth="yes"/>
      <point x="417" y="0"/>
      <point x="429" y="10"/>
      <point x="431" y="24" type="curve" smooth="yes"/>
      <point x="399" y="171"/>
      <point x="373" y="291"/>
      <point x="348" y="411" type="curve" smooth="yes"/>
      <point x="346" y="420"/>
      <point x="342" y="422"/>
    </contour>
    <contour>
      <point x="447" y="538" type="curve"/>
      <point x="434" y="388"/>
      <point x="422" y="238"/>
      <point x="409" y="88" type="curve"/>
      <point x="404" y="34"/>
      <point x="400" y="17"/>
      <point x="393" y="0" type="curve"/>
      <point x="493" y="0" type="line"/>
      <point x="518" y="175"/>
      <point x="544" y="350"/>
      <point x="569" y="525" type="curve"/>
      <point x="570" y="531"/>
      <point x="569" y="533"/>
      <point x="567" y="535" type="curve" smooth="yes"/>
      <point x="565" y="537"/>
      <point x="564" y="538"/>
      <point x="560" y="538" type="curve"/>
      <point x="522" y="538"/>
      <point x="485" y="538"/>
    </contour>
    <contour>
      <point x="299" y="549" type="move" name="top"/>
    </contour>
  </outline>
</glyph>
<glyph name="x" format="1">
  <advance width="600"/>
  <unicode hex="0078"/>
  <outline>
    <contour>
      <point x="414" y="0" type="curve" smooth="yes"/>
      <point x="461" y="0"/>
      <point x="510" y="0"/>
      <point x="557" y="0" type="curve"/>
      <point x="493" y="102"/>
      <point x="428" y="203"/>
      <point x="364" y="304" type="curve" smooth="yes"/>
      <point x="357" y="316"/>
      <point x="340" y="321"/>
      <point x="332" y="333" type="curve" smooth="yes"/>
      <point x="292" y="397"/>
      <point x="252" y="462"/>
      <point x="213" y="527" type="curve" smooth="yes"/>
      <point x="208" y="534"/>
      <point x="202" y="538"/>
      <point x="193" y="538" type="curve" smooth="yes"/>
      <point x="147" y="538"/>
      <point x="97" y="538"/>
      <point x="51" y="538" type="curve"/>
      <point x="113" y="439"/>
      <point x="173" y="342"/>
      <point x="235" y="243" type="curve" smooth="yes"/>
      <point x="245" y="230"/>
      <point x="261" y="225"/>
      <point x="270" y="211" type="curve" smooth="yes"/>
      <point x="312" y="144"/>
      <point x="353" y="77"/>
      <point x="395" y="11" type="curve" smooth="yes"/>
      <point x="400" y="3"/>
      <point x="406" y="0"/>
    </contour>
    <contour>
      <point x="536" y="538" type="curve" smooth="yes"/>
      <point x="405" y="538" type="line"/>
      <point x="364" y="465"/>
      <point x="326" y="395"/>
      <point x="286" y="322" type="curve" smooth="yes"/>
      <point x="276" y="303"/>
      <point x="248" y="323"/>
      <point x="237" y="306" type="curve" smooth="yes"/>
      <point x="177" y="213"/>
      <point x="118" y="120"/>
      <point x="58" y="27" type="curve" smooth="yes"/>
      <point x="52" y="19"/>
      <point x="50" y="15"/>
      <point x="50" y="11" type="curve" smooth="yes"/>
      <point x="50" y="4"/>
      <point x="54" y="0"/>
      <point x="62" y="0" type="curve" smooth="yes"/>
      <point x="198" y="0" type="line"/>
      <point x="239" y="73"/>
      <point x="279" y="145"/>
      <point x="320" y="218" type="curve" smooth="yes"/>
      <point x="333" y="241"/>
      <point x="353" y="218"/>
      <point x="367" y="239" type="curve" smooth="yes"/>
      <point x="426" y="332"/>
      <point x="485" y="424"/>
      <point x="544" y="516" type="curve" smooth="yes"/>
      <point x="547" y="521"/>
      <point x="548" y="525"/>
      <point x="548" y="528" type="curve" smooth="yes"/>
      <point x="548" y="535"/>
      <point x="543" y="538"/>
    </contour>
  </outline>
</glyph>
<glyph name="y" format="1">
  <advance width="600"/>
  <unicode hex="0079"/>
  <outline>
    <contour>
      <point x="546" y="538" type="curve" smooth="yes"/>
      <point x="502" y="538"/>
      <point x="461" y="537"/>
      <point x="424" y="537" type="curve"/>
      <point x="377" y="338"/>
      <point x="302" y="26"/>
      <point x="282" y="-55" type="curve" smooth="yes"/>
      <point x="270" y="-103"/>
      <point x="240" y="-124"/>
      <point x="195" y="-124" type="curve" smooth="yes"/>
      <point x="92" y="-124" type="line"/>
      <point x="92" y="-239" type="line" smooth="yes"/>
      <point x="92" y="-246"/>
      <point x="96" y="-250"/>
      <point x="103" y="-250" type="curve" smooth="yes"/>
      <point x="210" y="-250" type="line" smooth="yes"/>
      <point x="316" y="-250"/>
      <point x="373" y="-195"/>
      <point x="400" y="-86" type="curve" smooth="yes"/>
      <point x="454" y="128"/>
      <point x="508" y="330"/>
      <point x="558" y="522" type="curve" smooth="yes"/>
      <point x="561" y="532"/>
      <point x="553" y="538"/>
    </contour>
    <contour>
      <point x="170" y="538" type="curve" smooth="yes"/>
      <point x="124" y="538"/>
      <point x="83" y="538"/>
      <point x="42" y="538" type="curve"/>
      <point x="96" y="363"/>
      <point x="203" y="21"/>
      <point x="206" y="10" type="curve" smooth="yes"/>
      <point x="208" y="4"/>
      <point x="212" y="0"/>
      <point x="218" y="0" type="curve" smooth="yes"/>
      <point x="340" y="0" type="line" smooth="yes"/>
      <point x="364" y="0"/>
      <point x="381" y="26"/>
      <point x="383" y="112" type="curve"/>
      <point x="313" y="112" type="line"/>
      <point x="309" y="112"/>
      <point x="306" y="114"/>
      <point x="304" y="119" type="curve" smooth="yes"/>
      <point x="300" y="133"/>
      <point x="220" y="409"/>
      <point x="190" y="524" type="curve" smooth="yes"/>
      <point x="186" y="535"/>
      <point x="182" y="538"/>
    </contour>
    <contour>
      <point x="303" y="549" type="move" name="top"/>
    </contour>
  </outline>
</glyph>
<glyph name="braceleft" format="1">
  <advance width="600"/>
  <unicode hex="007B"/>
  <outline>
    <contour>
      <point x="389" y="634" type="curve" smooth="yes"/>
      <point x="458" y="634"/>
      <point x="441" y="634"/>
      <point x="498" y="634" type="curve"/>
      <point x="518" y="634" type="line"/>
      <point x="518" y="672"/>
      <point x="518" y="710"/>
      <point x="518" y="749" type="curve"/>
      <point x="518" y="756"/>
      <point x="514" y="760"/>
      <point x="507" y="760" type="curve" smooth="yes"/>
      <point x="332" y="760" type="line" smooth="yes"/>
      <point x="249" y="760"/>
      <point x="221" y="697"/>
      <point x="221" y="659" type="curve" smooth="yes"/>
      <point x="221" y="655" type="line" smooth="yes"/>
      <point x="221" y="646"/>
      <point x="228" y="640"/>
      <point x="353" y="601" type="curve"/>
      <point x="354" y="627"/>
      <point x="363" y="634"/>
    </contour>
    <contour>
      <point x="410" y="443" type="curve" smooth="yes"/>
      <point x="410" y="527"/>
      <point x="354" y="556"/>
      <point x="354" y="596" type="curve" smooth="yes"/>
      <point x="354" y="601"/>
      <point x="354" y="652"/>
      <point x="354" y="671" type="curve"/>
      <point x="225" y="669"/>
      <point x="221" y="665"/>
      <point x="221" y="659" type="curve" smooth="yes"/>
      <point x="221" y="615" type="line" smooth="yes"/>
      <point x="221" y="524"/>
      <point x="277" y="506"/>
      <point x="277" y="444" type="curve" smooth="yes"/>
      <point x="277" y="391"/>
      <point x="219" y="363"/>
      <point x="110" y="363" type="curve" smooth="yes"/>
      <point x="78" y="363" type="line"/>
      <point x="78" y="281" type="line" smooth="yes"/>
      <point x="78" y="272"/>
      <point x="82" y="269"/>
      <point x="90" y="269" type="curve" smooth="yes"/>
      <point x="110" y="269" type="line" smooth="yes"/>
      <point x="330" y="269"/>
      <point x="410" y="348"/>
    </contour>
    <contour>
      <point x="410" y="156" type="curve" smooth="yes"/>
      <point x="410" y="255"/>
      <point x="330" y="331"/>
      <point x="110" y="331" type="curve" smooth="yes"/>
      <point x="99" y="331"/>
      <point x="89" y="331"/>
      <point x="78" y="331" type="curve"/>
      <point x="78" y="248" type="line" smooth="yes"/>
      <point x="78" y="241"/>
      <point x="82" y="237"/>
      <point x="89" y="237" type="curve" smooth="yes"/>
      <point x="110" y="237" type="line" smooth="yes"/>
      <point x="219" y="237"/>
      <point x="277" y="205"/>
      <point x="277" y="154" type="curve" smooth="yes"/>
      <point x="277" y="93"/>
      <point x="221" y="75"/>
      <point x="221" y="-16" type="curve" smooth="yes"/>
      <point x="221" y="-60" type="line" smooth="yes"/>
      <point x="221" y="-66"/>
      <point x="225" y="-70"/>
      <point x="354" y="-71" type="curve"/>
      <point x="354" y="-46"/>
      <point x="354" y="-22"/>
      <point x="354" y="3" type="curve" smooth="yes"/>
      <point x="354" y="43"/>
      <point x="410" y="72"/>
    </contour>
    <contour>
      <point x="389" y="-35" type="curve" smooth="yes"/>
      <point x="363" y="-35"/>
      <point x="354" y="-28"/>
      <point x="353" y="-2" type="curve"/>
      <point x="230" y="-41"/>
      <point x="221" y="-47"/>
      <point x="221" y="-56" type="curve" smooth="yes"/>
      <point x="221" y="-60" type="line" smooth="yes"/>
      <point x="221" y="-98"/>
      <point x="249" y="-161"/>
      <point x="332" y="-161" type="curve" smooth="yes"/>
      <point x="507" y="-161" type="line" smooth="yes"/>
      <point x="514" y="-161"/>
      <point x="518" y="-157"/>
      <point x="518" y="-150" type="curve"/>
      <point x="518" y="-35" type="line"/>
      <point x="498" y="-35" type="line"/>
      <point x="441" y="-35"/>
      <point x="458" y="-35"/>
    </contour>
  </outline>
</glyph>
<glyph name="bar" format="1">
  <advance width="600"/>
  <unicode hex="007C"/>
  <outline>
    <contour>
      <point x="229" y="760" type="curve"/>
      <point x="229" y="725"/>
      <point x="229" y="690"/>
      <point x="229" y="654" type="curve" smooth="yes"/>
      <point x="229" y="-149" type="line" smooth="yes"/>
      <point x="229" y="-155"/>
      <point x="234" y="-160"/>
      <point x="240" y="-160" type="curve" smooth="yes"/>
      <point x="284" y="-160"/>
      <point x="327" y="-160"/>
      <point x="371" y="-160" type="curve"/>
      <point x="371" y="749" type="line" smooth="yes"/>
      <point x="371" y="752"/>
      <point x="370" y="755"/>
      <point x="368" y="757" type="curve" smooth="yes"/>
      <point x="366" y="759"/>
      <point x="363" y="760"/>
      <point x="360" y="760" type="curve" smooth="yes"/>
      <point x="316" y="760"/>
      <point x="273" y="760"/>
    </contour>
  </outline>
</glyph>
<glyph name="braceright" format="1">
  <advance width="600"/>
  <unicode hex="007D"/>
  <outline>
    <contour>
      <point x="211" y="-35" type="curve" smooth="yes"/>
      <point x="142" y="-35"/>
      <point x="159" y="-35"/>
      <point x="102" y="-35" type="curve"/>
      <point x="82" y="-35" type="line"/>
      <point x="82" y="-73"/>
      <point x="82" y="-111"/>
      <point x="82" y="-150" type="curve"/>
      <point x="82" y="-157"/>
      <point x="86" y="-161"/>
      <point x="93" y="-161" type="curve" smooth="yes"/>
      <point x="268" y="-161" type="line" smooth="yes"/>
      <point x="351" y="-161"/>
      <point x="379" y="-98"/>
      <point x="379" y="-60" type="curve" smooth="yes"/>
      <point x="379" y="-56" type="line" smooth="yes"/>
      <point x="379" y="-47"/>
      <point x="372" y="-41"/>
      <point x="247" y="-2" type="curve"/>
      <point x="246" y="-28"/>
      <point x="237" y="-35"/>
    </contour>
    <contour>
      <point x="190" y="156" type="curve" smooth="yes"/>
      <point x="190" y="72"/>
      <point x="246" y="43"/>
      <point x="246" y="3" type="curve" smooth="yes"/>
      <point x="246" y="-2"/>
      <point x="246" y="-53"/>
      <point x="246" y="-72" type="curve"/>
      <point x="375" y="-70"/>
      <point x="379" y="-66"/>
      <point x="379" y="-60" type="curve" smooth="yes"/>
      <point x="379" y="-16" type="line" smooth="yes"/>
      <point x="379" y="75"/>
      <point x="323" y="93"/>
      <point x="323" y="155" type="curve" smooth="yes"/>
      <point x="323" y="208"/>
      <point x="381" y="236"/>
      <point x="490" y="236" type="curve" smooth="yes"/>
      <point x="522" y="236" type="line"/>
      <point x="522" y="318" type="line" smooth="yes"/>
      <point x="522" y="327"/>
      <point x="518" y="330"/>
      <point x="510" y="330" type="curve" smooth="yes"/>
      <point x="490" y="330" type="line" smooth="yes"/>
      <point x="270" y="330"/>
      <point x="190" y="251"/>
    </contour>
    <contour>
      <point x="190" y="443" type="curve" smooth="yes"/>
      <point x="190" y="344"/>
      <point x="270" y="268"/>
      <point x="490" y="268" type="curve" smooth="yes"/>
      <point x="501" y="268"/>
      <point x="511" y="268"/>
      <point x="522" y="268" type="curve"/>
      <point x="522" y="351" type="line" smooth="yes"/>
      <point x="522" y="358"/>
      <point x="518" y="362"/>
      <point x="511" y="362" type="curve" smooth="yes"/>
      <point x="490" y="362" type="line" smooth="yes"/>
      <point x="381" y="362"/>
      <point x="323" y="394"/>
      <point x="323" y="445" type="curve" smooth="yes"/>
      <point x="323" y="506"/>
      <point x="379" y="524"/>
      <point x="379" y="615" type="curve" smooth="yes"/>
      <point x="379" y="659" type="line" smooth="yes"/>
      <point x="379" y="665"/>
      <point x="375" y="669"/>
      <point x="246" y="670" type="curve"/>
      <point x="246" y="645"/>
      <point x="246" y="621"/>
      <point x="246" y="596" type="curve" smooth="yes"/>
      <point x="246" y="556"/>
      <point x="190" y="527"/>
    </contour>
    <contour>
      <point x="211" y="634" type="curve" smooth="yes"/>
      <point x="237" y="634"/>
      <point x="246" y="627"/>
      <point x="247" y="601" type="curve"/>
      <point x="370" y="640"/>
      <point x="379" y="646"/>
      <point x="379" y="655" type="curve" smooth="yes"/>
      <point x="379" y="659" type="line" smooth="yes"/>
      <point x="379" y="697"/>
      <point x="351" y="760"/>
      <point x="268" y="760" type="curve" smooth="yes"/>
      <point x="93" y="760" type="line" smooth="yes"/>
      <point x="86" y="760"/>
      <point x="82" y="756"/>
      <point x="82" y="749" type="curve"/>
      <point x="82" y="634" type="line"/>
      <point x="102" y="634" type="line"/>
      <point x="159" y="634"/>
      <point x="142" y="634"/>
    </contour>
  </outline>
</glyph>
<glyph name="exclamdown" format="1">
  <advance width="600"/>
  <unicode hex="00A1"/>
  <outline>
    <contour>
      <point x="251" y="256" type="line"/>
      <point x="241" y="182"/>
      <point x="230" y="109"/>
      <point x="219" y="36" type="curve"/>
      <point x="219" y="-151" type="line" smooth="yes"/>
      <point x="219" y="-158"/>
      <point x="224" y="-162"/>
      <point x="230" y="-162" type="curve" smooth="yes"/>
      <point x="294" y="-162"/>
      <point x="343" y="-162"/>
      <point x="381" y="-162" type="curve"/>
      <point x="381" y="-124"/>
      <point x="381" y="-89"/>
      <point x="381" y="-52" type="curve" smooth="yes"/>
      <point x="381" y="36" type="line"/>
      <point x="352" y="246"/>
      <point x="351" y="249"/>
      <point x="347" y="253" type="curve" smooth="yes"/>
      <point x="345" y="255"/>
      <point x="343" y="256"/>
      <point x="339" y="256" type="curve"/>
    </contour>
    <contour>
      <point x="207" y="547" type="curve"/>
      <point x="207" y="371" type="line" smooth="yes"/>
      <point x="207" y="365"/>
      <point x="212" y="360"/>
      <point x="218" y="360" type="curve" smooth="yes"/>
      <point x="275" y="360"/>
      <point x="336" y="360"/>
      <point x="393" y="360" type="curve"/>
      <point x="393" y="536" type="line" smooth="yes"/>
      <point x="393" y="542"/>
      <point x="388" y="547"/>
      <point x="382" y="547" type="curve" smooth="yes"/>
      <point x="325" y="547"/>
      <point x="264" y="547"/>
    </contour>
  </outline>
</glyph>
<glyph name="cent" format="1">
  <advance width="600"/>
  <unicode hex="00A2"/>
  <outline>
    <contour>
      <point x="389" y="387" type="line"/>
      <point x="444" y="762" type="line" smooth="yes"/>
      <point x="445" y="771"/>
      <point x="440" y="775"/>
      <point x="434" y="775" type="curve" smooth="yes"/>
      <point x="386" y="775"/>
      <point x="365" y="775"/>
      <point x="317" y="775" type="curve"/>
      <point x="317" y="743"/>
      <point x="317" y="711"/>
      <point x="317" y="679" type="curve"/>
      <point x="317" y="416" type="line" smooth="yes"/>
      <point x="317" y="408"/>
      <point x="320" y="404"/>
      <point x="328" y="402" type="curve" smooth="yes"/>
    </contour>
    <contour>
      <point x="318" y="311" type="line"/>
      <point x="263" y="-64" type="line" smooth="yes"/>
      <point x="262" y="-73"/>
      <point x="267" y="-77"/>
      <point x="273" y="-77" type="curve" smooth="yes"/>
      <point x="320" y="-77"/>
      <point x="341" y="-77"/>
      <point x="390" y="-77" type="curve"/>
      <point x="390" y="-45"/>
      <point x="390" y="-13"/>
      <point x="390" y="19" type="curve"/>
      <point x="390" y="281" type="line" smooth="yes"/>
      <point x="390" y="289"/>
      <point x="386" y="294"/>
      <point x="379" y="296" type="curve" smooth="yes"/>
    </contour>
    <contour>
      <point x="344" y="631" type="curve" smooth="yes"/>
      <point x="180" y="631"/>
      <point x="71" y="531"/>
      <point x="71" y="383" type="curve" smooth="yes"/>
      <point x="71" y="313" type="line" smooth="yes"/>
      <point x="71" y="159"/>
      <point x="166" y="70"/>
      <point x="344" y="70" type="curve" smooth="yes"/>
      <point x="363" y="70"/>
      <point x="365" y="91"/>
      <point x="341" y="202" type="curve"/>
      <point x="246" y="202"/>
      <point x="208" y="240"/>
      <point x="208" y="321" type="curve" smooth="yes"/>
      <point x="208" y="380" type="line" smooth="yes"/>
      <point x="208" y="468"/>
      <point x="262" y="498"/>
      <point x="342" y="498" type="curve" smooth="yes"/>
      <point x="400" y="498"/>
      <point x="446" y="485"/>
      <point x="498" y="463" type="curve"/>
      <point x="516" y="463" type="line"/>
      <point x="516" y="502"/>
      <point x="516" y="541"/>
      <point x="516" y="581" type="curve" smooth="yes"/>
      <point x="516" y="585"/>
      <point x="515" y="588"/>
      <point x="513" y="590" type="curve" smooth="yes"/>
      <point x="497" y="606"/>
      <point x="438" y="631"/>
    </contour>
    <contour>
      <point x="157" y="264" type="curve"/>
      <point x="133" y="132"/>
      <point x="201" y="70"/>
      <point x="344" y="70" type="curve" smooth="yes"/>
      <point x="434" y="70"/>
      <point x="497" y="92"/>
      <point x="513" y="109" type="curve" smooth="yes"/>
      <point x="515" y="111"/>
      <point x="516" y="114"/>
      <point x="516" y="117" type="curve"/>
      <point x="516" y="156"/>
      <point x="516" y="195"/>
      <point x="516" y="235" type="curve"/>
      <point x="498" y="235" type="line"/>
      <point x="446" y="214"/>
      <point x="399" y="202"/>
      <point x="341" y="202" type="curve" smooth="yes"/>
      <point x="261" y="202"/>
      <point x="206" y="224"/>
    </contour>
  </outline>
</glyph>
<glyph name="sterling" format="1">
  <advance width="600"/>
  <unicode hex="00A3"/>
  <outline>
    <contour>
      <point x="381" y="588" type="curve" smooth="yes"/>
      <point x="431" y="588"/>
      <point x="463" y="578"/>
      <point x="509" y="557" type="curve"/>
      <point x="527" y="557" type="line"/>
      <point x="527" y="587"/>
      <point x="527" y="629"/>
      <point x="527" y="676" type="curve" smooth="yes"/>
      <point x="527" y="679"/>
      <point x="527" y="681"/>
      <point x="525" y="683" type="curve" smooth="yes"/>
      <point x="512" y="696"/>
      <point x="459" y="720"/>
      <point x="380" y="720" type="curve" smooth="yes"/>
      <point x="228" y="720"/>
      <point x="141" y="646"/>
      <point x="141" y="536" type="curve" smooth="yes"/>
      <point x="141" y="511" type="line" smooth="yes"/>
      <point x="141" y="498"/>
      <point x="149" y="494"/>
      <point x="274" y="508" type="curve"/>
      <point x="274" y="566"/>
      <point x="305" y="588"/>
    </contour>
    <contour>
      <point x="141" y="511" type="curve" smooth="yes"/>
      <point x="141" y="407"/>
      <point x="141" y="323"/>
      <point x="141" y="213" type="curve" smooth="yes"/>
      <point x="141" y="156"/>
      <point x="110" y="125"/>
      <point x="65" y="125" type="curve" smooth="yes"/>
      <point x="58" y="125"/>
      <point x="52" y="125"/>
      <point x="46" y="125" type="curve"/>
      <point x="42" y="125" type="line"/>
      <point x="42" y="87"/>
      <point x="42" y="56"/>
      <point x="42" y="11" type="curve" smooth="yes"/>
      <point x="42" y="3"/>
      <point x="46" y="0"/>
      <point x="53" y="0" type="curve" smooth="yes"/>
      <point x="58" y="0" type="line" smooth="yes"/>
      <point x="182" y="0"/>
      <point x="274" y="62"/>
      <point x="274" y="234" type="curve" smooth="yes"/>
      <point x="274" y="328"/>
      <point x="274" y="416"/>
      <point x="274" y="508" type="curve" smooth="yes"/>
      <point x="274" y="545"/>
      <point x="274" y="579"/>
      <point x="274" y="615" type="curve"/>
      <point x="199" y="615"/>
      <point x="141" y="577"/>
    </contour>
    <contour>
      <point x="58" y="0" type="curve"/>
      <point x="235" y="0"/>
      <point x="338" y="0"/>
      <point x="472" y="0" type="curve" smooth="yes"/>
      <point x="537" y="0" type="line" smooth="yes"/>
      <point x="545" y="0"/>
      <point x="548" y="3"/>
      <point x="548" y="11" type="curve"/>
      <point x="548" y="49"/>
      <point x="548" y="87"/>
      <point x="548" y="125" type="curve"/>
      <point x="528" y="125" type="line"/>
      <point x="503" y="125"/>
      <point x="483" y="125"/>
      <point x="451" y="125" type="curve" smooth="yes"/>
      <point x="354" y="125"/>
      <point x="280" y="125"/>
      <point x="128" y="125" type="curve"/>
      <point x="47" y="8"/>
      <point x="51" y="0"/>
    </contour>
    <contour>
      <point x="62" y="403" type="line"/>
      <point x="62" y="363"/>
      <point x="62" y="356"/>
      <point x="62" y="316" type="curve" smooth="yes"/>
      <point x="62" y="313"/>
      <point x="63" y="310"/>
      <point x="65" y="308" type="curve" smooth="yes"/>
      <point x="67" y="306"/>
      <point x="70" y="305"/>
      <point x="73" y="305" type="curve" smooth="yes"/>
      <point x="450" y="305" type="line"/>
      <point x="450" y="345"/>
      <point x="450" y="352"/>
      <point x="450" y="392" type="curve" smooth="yes"/>
      <point x="450" y="398"/>
      <point x="445" y="403"/>
      <point x="439" y="403" type="curve" smooth="yes"/>
    </contour>
  </outline>
</glyph>
<glyph name="yen" format="1">
  <advance width="600"/>
  <unicode hex="00A5"/>
  <outline>
    <contour>
      <point x="18" y="465" type="line"/>
      <point x="18" y="425"/>
      <point x="18" y="417"/>
      <point x="18" y="377" type="curve" smooth="yes"/>
      <point x="18" y="374"/>
      <point x="19" y="371"/>
      <point x="21" y="369" type="curve" smooth="yes"/>
      <point x="23" y="367"/>
      <point x="26" y="366"/>
      <point x="29" y="366" type="curve"/>
      <point x="212" y="366" type="line"/>
      <point x="212" y="406"/>
      <point x="212" y="414"/>
      <point x="212" y="454" type="curve" smooth="yes"/>
      <point x="212" y="460"/>
      <point x="207" y="465"/>
      <point x="201" y="465" type="curve"/>
    </contour>
    <contour>
      <point x="388" y="465" type="line"/>
      <point x="388" y="425"/>
      <point x="388" y="417"/>
      <point x="388" y="377" type="curve" smooth="yes"/>
      <point x="388" y="371"/>
      <point x="393" y="366"/>
      <point x="399" y="366" type="curve"/>
      <point x="582" y="366" type="line"/>
      <point x="582" y="406"/>
      <point x="582" y="414"/>
      <point x="582" y="454" type="curve" smooth="yes"/>
      <point x="582" y="460"/>
      <point x="577" y="465"/>
      <point x="571" y="465" type="curve"/>
    </contour>
    <contour>
      <point x="582" y="135" type="line"/>
      <point x="582" y="175"/>
      <point x="582" y="182"/>
      <point x="582" y="222" type="curve" smooth="yes"/>
      <point x="582" y="225"/>
      <point x="581" y="228"/>
      <point x="579" y="230" type="curve" smooth="yes"/>
      <point x="577" y="232"/>
      <point x="574" y="233"/>
      <point x="571" y="233" type="curve"/>
      <point x="18" y="233" type="line"/>
      <point x="18" y="193"/>
      <point x="18" y="186"/>
      <point x="18" y="146" type="curve" smooth="yes"/>
      <point x="18" y="140"/>
      <point x="23" y="135"/>
      <point x="29" y="135" type="curve"/>
    </contour>
    <contour>
      <point x="19" y="700" type="line"/>
      <point x="91" y="549"/>
      <point x="166" y="398"/>
      <point x="236" y="246" type="curve"/>
      <point x="240" y="237"/>
      <point x="247" y="234"/>
      <point x="256" y="234" type="curve"/>
      <point x="312" y="234"/>
      <point x="339" y="301"/>
      <point x="324" y="333" type="curve"/>
      <point x="274" y="450"/>
      <point x="224" y="567"/>
      <point x="174" y="684" type="curve"/>
      <point x="171" y="694"/>
      <point x="167" y="700"/>
      <point x="157" y="700" type="curve" smooth="yes"/>
    </contour>
    <contour>
      <point x="432" y="700" type="line"/>
      <point x="382" y="577"/>
      <point x="333" y="455"/>
      <point x="283" y="332" type="curve"/>
      <point x="261" y="278"/>
      <point x="264" y="255"/>
      <point x="256" y="234" type="curve"/>
      <point x="357" y="234" type="line"/>
      <point x="429" y="383"/>
      <point x="502" y="533"/>
      <point x="574" y="682" type="curve"/>
      <point x="577" y="692"/>
      <point x="572" y="700"/>
      <point x="562" y="700" type="curve"/>
    </contour>
    <contour>
      <point x="371" y="0" type="curve"/>
      <point x="371" y="33"/>
      <point x="371" y="67"/>
      <point x="371" y="100" type="curve" smooth="yes"/>
      <point x="371" y="292" type="line" smooth="yes"/>
      <point x="371" y="298"/>
      <point x="366" y="303"/>
      <point x="229" y="303" type="curve"/>
      <point x="229" y="11" type="line" smooth="yes"/>
      <point x="229" y="8"/>
      <point x="230" y="5"/>
      <point x="232" y="3" type="curve" smooth="yes"/>
      <point x="234" y="1"/>
      <point x="237" y="0"/>
      <point x="240" y="0" type="curve" smooth="yes"/>
      <point x="284" y="0"/>
      <point x="327" y="0"/>
    </contour>
  </outline>
</glyph>
<glyph name="brokenbar" format="1">
  <advance width="600"/>
  <unicode hex="00A6"/>
  <outline>
    <contour>
      <point x="229" y="760" type="curve"/>
      <point x="229" y="727"/>
      <point x="229" y="694"/>
      <point x="229" y="661" type="curve" smooth="yes"/>
      <point x="229" y="380" type="line" smooth="yes"/>
      <point x="229" y="374"/>
      <point x="234" y="369"/>
      <point x="240" y="369" type="curve" smooth="yes"/>
      <point x="284" y="369"/>
      <point x="326" y="369"/>
      <point x="371" y="369" type="curve"/>
      <point x="371" y="749" type="line" smooth="yes"/>
      <point x="371" y="752"/>
      <point x="370" y="755"/>
      <point x="368" y="757" type="curve" smooth="yes"/>
      <point x="366" y="759"/>
      <point x="363" y="760"/>
      <point x="360" y="760" type="curve" smooth="yes"/>
      <point x="315" y="760"/>
      <point x="273" y="760"/>
    </contour>
    <contour>
      <point x="229" y="231" type="curve"/>
      <point x="229" y="-149" type="line"/>
      <point x="229" y="-155"/>
      <point x="234" y="-160"/>
      <point x="240" y="-160" type="curve" smooth="yes"/>
      <point x="283" y="-160"/>
      <point x="326" y="-160"/>
      <point x="371" y="-160" type="curve"/>
      <point x="371" y="220" type="line" smooth="yes"/>
      <point x="371" y="227"/>
      <point x="367" y="231"/>
      <point x="360" y="231" type="curve" smooth="yes"/>
      <point x="315" y="231"/>
      <point x="272" y="231"/>
    </contour>
  </outline>
</glyph>
<glyph name="section" format="1">
  <advance width="600"/>
  <unicode hex="00A7"/>
  <outline>
    <contour>
      <point x="319" y="719" type="curve" smooth="yes"/>
      <point x="174" y="719"/>
      <point x="71" y="634"/>
      <point x="71" y="527" type="curve" smooth="yes"/>
      <point x="71" y="482" type="line" smooth="yes"/>
      <point x="71" y="456"/>
      <point x="132" y="424"/>
      <point x="201" y="422" type="curve"/>
      <point x="201" y="449"/>
      <point x="201" y="493"/>
      <point x="201" y="520" type="curve" smooth="yes"/>
      <point x="201" y="573"/>
      <point x="243" y="597"/>
      <point x="321" y="597" type="curve" smooth="yes"/>
      <point x="371" y="597"/>
      <point x="436" y="583"/>
      <point x="477" y="562" type="curve"/>
      <point x="518" y="640"/>
      <point x="520" y="646"/>
      <point x="520" y="654" type="curve" smooth="yes"/>
      <point x="520" y="665"/>
      <point x="519" y="668"/>
      <point x="514" y="673" type="curve" smooth="yes"/>
      <point x="492" y="696"/>
      <point x="420" y="719"/>
    </contour>
    <contour>
      <point x="385" y="394" type="curve" smooth="yes"/>
      <point x="289" y="423" type="line" smooth="yes"/>
      <point x="217" y="445"/>
      <point x="201" y="461"/>
      <point x="201" y="501" type="curve" smooth="yes"/>
      <point x="201" y="523"/>
      <point x="201" y="548"/>
      <point x="201" y="567" type="curve"/>
      <point x="132" y="567"/>
      <point x="71" y="562"/>
      <point x="71" y="482" type="curve" smooth="yes"/>
      <point x="71" y="422"/>
      <point x="103" y="350"/>
      <point x="235" y="310" type="curve" smooth="yes"/>
      <point x="330" y="281" type="line" smooth="yes"/>
      <point x="403" y="259"/>
      <point x="412" y="240"/>
      <point x="412" y="206" type="curve" smooth="yes"/>
      <point x="412" y="180" type="line" smooth="yes"/>
      <point x="412" y="152"/>
      <point x="400" y="129"/>
      <point x="361" y="98" type="curve"/>
      <point x="402" y="96"/>
      <point x="430" y="96"/>
      <point x="453" y="96" type="curve" smooth="yes"/>
      <point x="496" y="96"/>
      <point x="543" y="150"/>
      <point x="543" y="205" type="curve" smooth="yes"/>
      <point x="543" y="225" type="line" smooth="yes"/>
      <point x="543" y="304"/>
      <point x="508" y="357"/>
    </contour>
    <contour>
      <point x="383" y="139" type="curve" smooth="yes"/>
      <point x="287" y="168" type="line" smooth="yes"/>
      <point x="215" y="189"/>
      <point x="201" y="207"/>
      <point x="201" y="247" type="curve" smooth="yes"/>
      <point x="201" y="271" type="line" smooth="yes"/>
      <point x="201" y="310"/>
      <point x="214" y="331"/>
      <point x="254" y="352" type="curve"/>
      <point x="200" y="353"/>
      <point x="179" y="354"/>
      <point x="164" y="354" type="curve" smooth="yes"/>
      <point x="115" y="354"/>
      <point x="71" y="300"/>
      <point x="71" y="238" type="curve" smooth="yes"/>
      <point x="71" y="220" type="line" smooth="yes"/>
      <point x="71" y="159"/>
      <point x="102" y="95"/>
      <point x="234" y="55" type="curve" smooth="yes"/>
      <point x="329" y="26" type="line" smooth="yes"/>
      <point x="402" y="4"/>
      <point x="412" y="-12"/>
      <point x="412" y="-45" type="curve" smooth="yes"/>
      <point x="412" y="-74"/>
      <point x="412" y="-103"/>
      <point x="412" y="-131" type="curve"/>
      <point x="470" y="-131"/>
      <point x="543" y="-89"/>
      <point x="543" y="-37" type="curve"/>
      <point x="543" y="44"/>
      <point x="506" y="102"/>
    </contour>
    <contour>
      <point x="282" y="-250" type="curve" smooth="yes"/>
      <point x="445" y="-250"/>
      <point x="543" y="-171"/>
      <point x="543" y="-58" type="curve" smooth="yes"/>
      <point x="543" y="-37" type="line" smooth="yes"/>
      <point x="543" y="-19"/>
      <point x="487" y="-1"/>
      <point x="412" y="-1" type="curve"/>
      <point x="412" y="-29"/>
      <point x="412" y="-32"/>
      <point x="412" y="-55" type="curve" smooth="yes"/>
      <point x="412" y="-91"/>
      <point x="376" y="-122"/>
      <point x="292" y="-122" type="curve" smooth="yes"/>
      <point x="202" y="-122"/>
      <point x="142" y="-102"/>
      <point x="82" y="-60" type="curve"/>
      <point x="63" y="-60" type="line"/>
      <point x="63" y="-86"/>
      <point x="63" y="-133"/>
      <point x="63" y="-185" type="curve" smooth="yes"/>
      <point x="63" y="-187"/>
      <point x="64" y="-191"/>
      <point x="66" y="-193" type="curve" smooth="yes"/>
      <point x="102" y="-229"/>
      <point x="186" y="-250"/>
    </contour>
    <contour>
      <point x="520" y="512" type="curve"/>
      <point x="520" y="654" type="line" smooth="yes"/>
      <point x="520" y="667"/>
      <point x="509" y="670"/>
      <point x="392" y="670" type="curve"/>
      <point x="392" y="658"/>
      <point x="392" y="641"/>
      <point x="392" y="623" type="curve" smooth="yes"/>
      <point x="392" y="523" type="line" smooth="yes"/>
      <point x="392" y="517"/>
      <point x="393" y="515"/>
      <point x="395" y="514" type="curve" smooth="yes"/>
      <point x="396" y="513"/>
      <point x="398" y="512"/>
      <point x="402" y="512" type="curve" smooth="yes"/>
      <point x="441" y="512"/>
      <point x="481" y="512"/>
    </contour>
  </outline>
</glyph>
<glyph name="dieresis" format="1">
  <advance width="600"/>
  <unicode hex="00A8"/>
  <outline>
    <contour>
      <point x="263" y="622" type="curve"/>
      <point x="263" y="755" type="line" smooth="yes"/>
      <point x="263" y="761"/>
      <point x="258" y="766"/>
      <point x="252" y="766" type="curve" smooth="yes"/>
      <point x="208" y="766"/>
      <point x="164" y="766"/>
      <point x="120" y="766" type="curve"/>
      <point x="120" y="633" type="line" smooth="yes"/>
      <point x="120" y="627"/>
      <point x="125" y="622"/>
      <point x="131" y="622" type="curve" smooth="yes"/>
      <point x="175" y="622"/>
      <point x="219" y="622"/>
    </contour>
    <contour>
      <point x="480" y="622" type="curve"/>
      <point x="480" y="755" type="line" smooth="yes"/>
      <point x="480" y="761"/>
      <point x="475" y="766"/>
      <point x="469" y="766" type="curve" smooth="yes"/>
      <point x="425" y="766"/>
      <point x="381" y="766"/>
      <point x="337" y="766" type="curve"/>
      <point x="337" y="633" type="line" smooth="yes"/>
      <point x="337" y="627"/>
      <point x="342" y="622"/>
      <point x="348" y="622" type="curve" smooth="yes"/>
      <point x="392" y="622"/>
      <point x="436" y="622"/>
    </contour>
  </outline>
</glyph>
<glyph name="copyright" format="1">
  <advance width="600"/>
  <unicode hex="00A9"/>
  <outline>
    <contour>
      <point x="300" y="715" type="curve" smooth="yes"/>
      <point x="132" y="715"/>
      <point x="15" y="616"/>
      <point x="15" y="430" type="curve" smooth="yes"/>
      <point x="15" y="271" type="line" smooth="yes"/>
      <point x="15" y="84"/>
      <point x="125" y="-15"/>
      <point x="300" y="-15" type="curve" smooth="yes"/>
      <point x="301" y="-12"/>
      <point x="318" y="18"/>
      <point x="300" y="44" type="curve"/>
      <point x="161" y="44"/>
      <point x="78" y="127"/>
      <point x="78" y="255" type="curve" smooth="yes"/>
      <point x="78" y="446" type="line" smooth="yes"/>
      <point x="78" y="574"/>
      <point x="161" y="656"/>
      <point x="300" y="656" type="curve" smooth="yes"/>
      <point x="363" y="656"/>
      <point x="402" y="649"/>
      <point x="455" y="627" type="curve"/>
      <point x="480" y="670"/>
      <point x="409" y="715"/>
    </contour>
    <contour>
      <point x="300" y="-15" type="curve" smooth="yes"/>
      <point x="468" y="-15"/>
      <point x="585" y="84"/>
      <point x="585" y="270" type="curve" smooth="yes"/>
      <point x="585" y="429" type="line" smooth="yes"/>
      <point x="585" y="616"/>
      <point x="475" y="715"/>
      <point x="300" y="715" type="curve" smooth="yes"/>
      <point x="299" y="712"/>
      <point x="282" y="682"/>
      <point x="300" y="656" type="curve"/>
      <point x="439" y="656"/>
      <point x="522" y="573"/>
      <point x="522" y="445" type="curve" smooth="yes"/>
      <point x="522" y="254" type="line" smooth="yes"/>
      <point x="522" y="126"/>
      <point x="439" y="44"/>
      <point x="300" y="44" type="curve" smooth="yes"/>
      <point x="237" y="44"/>
      <point x="198" y="51"/>
      <point x="145" y="73" type="curve"/>
      <point x="120" y="30"/>
      <point x="191" y="-15"/>
    </contour>
    <contour>
      <point x="308" y="491" type="curve" smooth="yes"/>
      <point x="344" y="491"/>
      <point x="358" y="476"/>
      <point x="375" y="450" type="curve"/>
      <point x="416" y="495"/>
      <point x="421" y="504"/>
      <point x="421" y="511" type="curve" smooth="yes"/>
      <point x="421" y="516"/>
      <point x="420" y="518"/>
      <point x="416" y="522" type="curve" smooth="yes"/>
      <point x="392" y="549"/>
      <point x="356" y="566"/>
      <point x="308" y="566" type="curve" smooth="yes"/>
      <point x="220" y="566"/>
      <point x="168" y="516"/>
      <point x="168" y="428" type="curve" smooth="yes"/>
      <point x="168" y="273" type="line" smooth="yes"/>
      <point x="168" y="244"/>
      <point x="201" y="211"/>
      <point x="251" y="211" type="curve"/>
      <point x="251" y="234"/>
      <point x="251" y="251"/>
      <point x="251" y="276" type="curve" smooth="yes"/>
      <point x="251" y="429" type="line" smooth="yes"/>
      <point x="251" y="469"/>
      <point x="270" y="491"/>
    </contour>
    <contour>
      <point x="307" y="134" type="curve" smooth="yes"/>
      <point x="354" y="134"/>
      <point x="397" y="149"/>
      <point x="417" y="173" type="curve"/>
      <point x="420" y="178"/>
      <point x="421" y="179"/>
      <point x="421" y="186" type="curve" smooth="yes"/>
      <point x="421" y="209"/>
      <point x="421" y="232"/>
      <point x="421" y="259" type="curve"/>
      <point x="410" y="259" type="line"/>
      <point x="382" y="227"/>
      <point x="355" y="212"/>
      <point x="313" y="212" type="curve" smooth="yes"/>
      <point x="269" y="212"/>
      <point x="251" y="230"/>
      <point x="251" y="276" type="curve"/>
      <point x="183" y="288"/>
      <point x="168" y="281"/>
      <point x="168" y="273" type="curve" smooth="yes"/>
      <point x="168" y="187"/>
      <point x="212" y="134"/>
    </contour>
    <contour>
      <point x="421" y="421" type="curve"/>
      <point x="421" y="511" type="line" smooth="yes"/>
      <point x="421" y="519"/>
      <point x="403" y="522"/>
      <point x="344" y="522" type="curve"/>
      <point x="344" y="515"/>
      <point x="344" y="511"/>
      <point x="344" y="506" type="curve" smooth="yes"/>
      <point x="344" y="432" type="line" smooth="yes"/>
      <point x="344" y="425"/>
      <point x="347" y="421"/>
      <point x="355" y="421" type="curve" smooth="yes"/>
      <point x="378" y="421"/>
      <point x="395" y="421"/>
    </contour>
  </outline>
</glyph>
<glyph name="ordfeminine" format="1">
  <advance width="600"/>
  <unicode hex="00AA"/>
  <outline>
    <contour>
      <point x="267" y="760" type="curve" smooth="yes"/>
      <point x="211" y="760"/>
      <point x="135" y="746"/>
      <point x="123" y="735" type="curve" smooth="yes"/>
      <point x="122" y="734"/>
      <point x="121" y="731"/>
      <point x="121" y="729" type="curve" smooth="yes"/>
      <point x="121" y="698"/>
      <point x="121" y="667"/>
      <point x="121" y="637" type="curve"/>
      <point x="137" y="637" type="line"/>
      <point x="182" y="649"/>
      <point x="223" y="655"/>
      <point x="274" y="655" type="curve" smooth="yes"/>
      <point x="338" y="655"/>
      <point x="362" y="638"/>
      <point x="362" y="583" type="curve"/>
      <point x="463" y="557"/>
      <point x="477" y="558"/>
      <point x="477" y="573" type="curve"/>
      <point x="477" y="707"/>
      <point x="416" y="760"/>
    </contour>
    <contour>
      <point x="358" y="667" type="curve"/>
      <point x="361" y="644"/>
      <point x="362" y="624"/>
      <point x="362" y="597" type="curve" smooth="yes"/>
      <point x="362" y="528"/>
      <point x="362" y="477"/>
      <point x="362" y="398" type="curve" smooth="yes"/>
      <point x="362" y="360"/>
      <point x="420" y="324"/>
      <point x="481" y="327" type="curve"/>
      <point x="477" y="349"/>
      <point x="477" y="369"/>
      <point x="477" y="399" type="curve" smooth="yes"/>
      <point x="477" y="461"/>
      <point x="477" y="490"/>
      <point x="477" y="573" type="curve" smooth="yes"/>
      <point x="477" y="631"/>
      <point x="453" y="668"/>
    </contour>
    <contour>
      <point x="526" y="397" type="line"/>
      <point x="511" y="397" type="line"/>
      <point x="508" y="397"/>
      <point x="506" y="397"/>
      <point x="502" y="397" type="curve" smooth="yes"/>
      <point x="487" y="397"/>
      <point x="478" y="407"/>
      <point x="477" y="429" type="curve"/>
      <point x="370" y="428"/>
      <point x="362" y="412"/>
      <point x="362" y="398" type="curve" smooth="yes"/>
      <point x="362" y="340"/>
      <point x="411" y="292"/>
      <point x="489" y="292" type="curve" smooth="yes"/>
      <point x="517" y="292" type="line" smooth="yes"/>
      <point x="523" y="292"/>
      <point x="526" y="295"/>
      <point x="526" y="301" type="curve"/>
    </contour>
    <contour>
      <point x="208" y="426" type="curve" smooth="yes"/>
      <point x="208" y="446" type="line" smooth="yes"/>
      <point x="208" y="474"/>
      <point x="209" y="495"/>
      <point x="213" y="516" type="curve"/>
      <point x="149" y="518"/>
      <point x="97" y="486"/>
      <point x="97" y="441" type="curve" smooth="yes"/>
      <point x="97" y="412" type="line" smooth="yes"/>
      <point x="97" y="340"/>
      <point x="146" y="292"/>
      <point x="226" y="292" type="curve" smooth="yes"/>
      <point x="289" y="292"/>
      <point x="344" y="322"/>
      <point x="386" y="380" type="curve" smooth="yes"/>
      <point x="392" y="388"/>
      <point x="395" y="409"/>
      <point x="388" y="452" type="curve"/>
      <point x="345" y="408"/>
      <point x="309" y="392"/>
      <point x="250" y="392" type="curve" smooth="yes"/>
      <point x="247" y="392" type="line" smooth="yes"/>
      <point x="220" y="392"/>
      <point x="208" y="407"/>
    </contour>
    <contour>
      <point x="381" y="539" type="curve" smooth="yes"/>
      <point x="365" y="553"/>
      <point x="305" y="564"/>
      <point x="228" y="564" type="curve" smooth="yes"/>
      <point x="153" y="564"/>
      <point x="97" y="510"/>
      <point x="97" y="441" type="curve" smooth="yes"/>
      <point x="97" y="434"/>
      <point x="106" y="425"/>
      <point x="208" y="446" type="curve"/>
      <point x="208" y="466"/>
      <point x="221" y="484"/>
      <point x="250" y="484" type="curve" smooth="yes"/>
      <point x="298" y="484"/>
      <point x="368" y="483"/>
      <point x="401" y="481" type="curve"/>
      <point x="401" y="504"/>
      <point x="396" y="525"/>
    </contour>
  </outline>
</glyph>
<glyph name="logicalnot" format="1">
  <advance width="600"/>
  <unicode hex="00AC"/>
  <outline>
    <contour>
      <point x="63" y="451" type="line"/>
      <point x="63" y="411"/>
      <point x="63" y="382"/>
      <point x="63" y="341" type="curve" smooth="yes"/>
      <point x="63" y="338"/>
      <point x="64" y="335"/>
      <point x="66" y="333" type="curve" smooth="yes"/>
      <point x="68" y="331"/>
      <point x="71" y="330"/>
      <point x="74" y="330" type="curve"/>
      <point x="537" y="330" type="line"/>
      <point x="537" y="440" type="line"/>
      <point x="537" y="446"/>
      <point x="532" y="451"/>
      <point x="526" y="451" type="curve"/>
    </contour>
    <contour>
      <point x="537" y="141" type="curve"/>
      <point x="537" y="390" type="line" smooth="yes"/>
      <point x="537" y="396"/>
      <point x="532" y="401"/>
      <point x="526" y="401" type="curve"/>
      <point x="404" y="401" type="line"/>
      <point x="404" y="152" type="line" smooth="yes"/>
      <point x="404" y="146"/>
      <point x="409" y="141"/>
      <point x="415" y="141" type="curve" smooth="yes"/>
      <point x="459" y="141"/>
      <point x="494" y="141"/>
    </contour>
  </outline>
</glyph>
<glyph name="uni00AD" format="1">
  <advance width="600"/>
  <unicode hex="00AD"/>
  <outline>
    <contour>
      <point x="113" y="363" type="line"/>
      <point x="113" y="323"/>
      <point x="113" y="287"/>
      <point x="113" y="247" type="curve" smooth="yes"/>
      <point x="113" y="244"/>
      <point x="114" y="241"/>
      <point x="116" y="239" type="curve" smooth="yes"/>
      <point x="118" y="237"/>
      <point x="121" y="236"/>
      <point x="124" y="236" type="curve"/>
      <point x="487" y="236" type="line"/>
      <point x="487" y="276"/>
      <point x="487" y="312"/>
      <point x="487" y="352" type="curve" smooth="yes"/>
      <point x="487" y="358"/>
      <point x="482" y="363"/>
      <point x="476" y="363" type="curve"/>
    </contour>
  </outline>
</glyph>
